<svg xmlns="http://www.w3.org/2000/svg" viewBox="0 0 102.05 59.53"><defs><style>.cls-1{isolation:isolate;}.cls-2{fill:#e12228;}.cls-3{fill:none;stroke:#e12228;stroke-miterlimit:10;}.cls-4{fill:#010101;mix-blend-mode:multiply;opacity:0.2;}.cls-5{fill:#fff;}</style></defs><g class="cls-1"><g id="Layer_1" data-name="Layer 1"><path class="cls-2" d="M16.5,20.52v1.76h3V24.6h-3v3.95H14V18.2h5.64v2.32Z"/><path class="cls-2" d="M26,28.55,23.6,25.21h0v3.34H21V18.2h3.27c.35,0,.62,0,.83,0a5.15,5.15,0,0,1,.84.09,3.18,3.18,0,0,1,1.52.63,3.44,3.44,0,0,1,1.28,2.83,3.4,3.4,0,0,1-.68,2.12A2.85,2.85,0,0,1,26.2,25L29,28.55Zm-.26-7.71a2,2,0,0,0-1.19-.32h-1V23.4h.94c1.15,0,1.73-.49,1.73-1.48A1.23,1.23,0,0,0,25.73,20.84Z"/><path class="cls-2" d="M30.17,28.55V18.2h5.75v2.32H32.7v1.61h3.11v2.32H32.7v1.78h3.22v2.32Z"/><path class="cls-2" d="M37.55,28.55V18.2H43.3v2.32H40.08v1.61H43.2v2.32H40.08v1.78H43.3v2.32Z"/><path class="cls-2" d="M50.65,28a4,4,0,0,1-2.57.78,4.09,4.09,0,0,1-2.65-.82,3,3,0,0,1-1.09-2.47v-.34H47a1.72,1.72,0,0,0,.26,1,.91.91,0,0,0,.82.45.89.89,0,0,0,1-1,.9.9,0,0,0-.35-.73,1.9,1.9,0,0,0-.36-.21l-.2-.1L47,24a6.78,6.78,0,0,1-1-.47,4.28,4.28,0,0,1-.8-.6,2.6,2.6,0,0,1-.76-1.89,2.68,2.68,0,0,1,1.15-2.24,3.91,3.91,0,0,1,2.47-.8,4.19,4.19,0,0,1,1.53.28,3.13,3.13,0,0,1,1.27.89,3.33,3.33,0,0,1,.68,2H49c-.1-.67-.42-1-1-1s-.91.27-.91.81a.75.75,0,0,0,.1.44,2.38,2.38,0,0,0,.94.66l1.1.49a7.39,7.39,0,0,1,.95.5,3.81,3.81,0,0,1,.77.6,2.63,2.63,0,0,1,.69,1.86A2.91,2.91,0,0,1,50.65,28Z"/><path class="cls-2" d="M59,28.55V24.41H55.58v4.14H52.94V18.2h2.64v3.89H59V18.2h2.64V28.55Z"/><path class="cls-2" d="M63.48,28.55V18.2h2.65V28.55Z"/><path class="cls-2" d="M75.51,23.17a3.1,3.1,0,0,1-.82,1.24,3.31,3.31,0,0,1-1.41.74,6.81,6.81,0,0,1-1.6.16H70.53v3.24H68V18.2h3.38c.33,0,.61,0,.83,0s.59.05.85.09a3.27,3.27,0,0,1,1.51.64,3.43,3.43,0,0,1,1.22,2.74A4,4,0,0,1,75.51,23.17Zm-2.8-2.45a2.86,2.86,0,0,0-1.2-.2h-1V23H71.6a2.27,2.27,0,0,0,1.16-.23,1.07,1.07,0,0,0,.49-1A1.05,1.05,0,0,0,72.71,20.72Z"/><path class="cls-2" d="M30.29,42.92H28.72l-.14,1h1.55l-.21,1.55H28.35L28,47.92H26.44l.34-2.44h-1.1l-.33,2.44H23.76l.33-2.44H22.71l.21-1.55h1.4l.13-1h-1.4l.22-1.56h1.4l.3-2.21h1.59l-.3,2.21h1.09l.31-2.21h1.59l-.31,2.21H30.5Zm-4.24,0-.14,1H27l.14-1Z"/><path class="cls-2" d="M37.78,47.87a4.14,4.14,0,0,1-2.61.88,4.51,4.51,0,0,1-1.79-.36,3,3,0,0,1-1.44-1.1,3.35,3.35,0,0,1-.4-.88,6.32,6.32,0,0,1-.17-.95H34a1.12,1.12,0,0,0,1.2,1c.75,0,1.12-.38,1.12-1.16a1,1,0,0,0-.85-1,4,4,0,0,0-.76-.06H34V42.27h.6a2.52,2.52,0,0,0,.56-.11.88.88,0,0,0,.59-.91c0-.61-.24-.91-.73-.91s-.79.3-.81.89h-2.6a3.06,3.06,0,0,1,1.05-2.38A3.67,3.67,0,0,1,35.19,38a3.47,3.47,0,0,1,2.24.74,2.54,2.54,0,0,1,1,2.08A2.34,2.34,0,0,1,37.07,43,2.5,2.5,0,0,1,39,45.5,2.88,2.88,0,0,1,37.78,47.87Z"/><path class="cls-2" d="M47.72,44.81a4.2,4.2,0,0,1-.5,2.11,3.43,3.43,0,0,1-1.61,1.44,3.76,3.76,0,0,1-1.7.39,4.13,4.13,0,0,1-1.58-.32A3.59,3.59,0,0,1,40,44.81V41.93a3.56,3.56,0,0,1,2.33-3.62,4.41,4.41,0,0,1,1.57-.3,4,4,0,0,1,1.58.33,3.58,3.58,0,0,1,2.23,3.59Zm-2.64-3a2,2,0,0,0-.24-1.07,1.08,1.08,0,0,0-1-.46,1.06,1.06,0,0,0-.95.47,1.87,1.87,0,0,0-.27,1.06v3A1.86,1.86,0,0,0,42.92,46a1,1,0,0,0,.95.47,1.08,1.08,0,0,0,1-.46,2.06,2.06,0,0,0,.24-1.08Z"/><path class="cls-2" d="M56.36,44.81a4.3,4.3,0,0,1-.5,2.11,3.43,3.43,0,0,1-1.61,1.44,3.82,3.82,0,0,1-1.7.39A4.13,4.13,0,0,1,51,48.43a3.59,3.59,0,0,1-2.32-3.62V41.93A3.56,3.56,0,0,1,51,38.31a4.41,4.41,0,0,1,1.57-.3,4,4,0,0,1,1.58.33,3.58,3.58,0,0,1,2.23,3.59Zm-2.64-3a1.93,1.93,0,0,0-.25-1.07,1.06,1.06,0,0,0-1-.46,1,1,0,0,0-.94.47,1.87,1.87,0,0,0-.27,1.06v3A1.86,1.86,0,0,0,51.56,46a1,1,0,0,0,.94.47,1.06,1.06,0,0,0,1-.46,2,2,0,0,0,.25-1.08Z"/><path class="cls-2" d="M63.54,48.55l-2.83-4.47h0v4.47H58V38.2h2.64v4.65h0l2.92-4.65h2.78L63,43.36l3.65,5.19Z"/><rect class="cls-3" x="1.41" y="8.39" width="90.19" height="49.07" rx="4.51"/><path class="cls-4" d="M101.06,4.42c-.22-.7-1-1.18-2.31-1.42a3.54,3.54,0,0,0-2.85.44c-3.71,3.19-6.73,8.21-9.28,12.86l-1.43-4.22c-.09-.3-.33-1-2.37-1.27-.72-.09-2-.18-2.61.38A1.83,1.83,0,0,0,79.86,13L83.42,23.6c.16.46.5.92,1.93,1.19.19,0,.46.08.75.11.93.09,2.15.05,2.56-.69s.88-1.63,1.31-2.43c3.19-5.93,6.49-12.07,10.73-15.73A1.6,1.6,0,0,0,101.06,4.42Z"/><path class="cls-5" d="M100.3,2.79c-.24-.68-1-1.08-2.35-1.2a3.7,3.7,0,0,0-2.83.73c-3.58,3.56-6.41,8.88-8.8,13.77L84.75,12c-.11-.28-.37-.95-2.42-1a3.74,3.74,0,0,0-2.59.63,1.89,1.89,0,0,0-.28,1.88L83.4,23.7c.17.44.53.87,2,1,.2,0,.47,0,.77,0,.92,0,2.14-.16,2.52-.94s.82-1.71,1.22-2.55c3-6.25,6-12.7,10.14-16.78A1.64,1.64,0,0,0,100.3,2.79Z"/><path class="cls-2" d="M95.43,3.18c-3.67,3.64-6.5,9.08-9.16,14.62-.68-1.75-1.35-3.5-2-5.24-.3-.78-4.77-.88-4.27.42q2,5.09,3.94,10.18c.28.74,3.9.76,4.27,0C91.59,16.09,94.94,8.33,99.7,3.59,100.48,2.82,96.65,2,95.43,3.18Z"/></g></g></svg>