<?xml version="1.0" encoding="utf-8"?>
<!-- Generator: Adobe Illustrator 26.3.0, SVG Export Plug-In . SVG Version: 6.00 Build 0)  -->
<svg version="1.1" id="Layer_1" xmlns="http://www.w3.org/2000/svg" xmlns:xlink="http://www.w3.org/1999/xlink" x="0px" y="0px"
	 viewBox="0 0 139.87 231.13" style="enable-background:new 0 0 139.87 231.13;" xml:space="preserve">
<style type="text/css">
	.st0{opacity:0.3;fill-rule:evenodd;clip-rule:evenodd;fill:#606161;}
	.st1{fill:#FFFFFF;}
	.st2{fill:#429C46;}
	.st3{fill:#EC8623;}
	.st4{fill:#A42267;}
	.st5{fill:none;stroke:#429C46;stroke-miterlimit:10;}
	.st6{fill-rule:evenodd;clip-rule:evenodd;fill:url(#SVGID_1_);}
	.st7{fill-rule:evenodd;clip-rule:evenodd;fill:url(#SVGID_00000159438338637933256350000000124672524820679593_);}
	.st8{fill-rule:evenodd;clip-rule:evenodd;fill:#074624;}
	.st9{fill-rule:evenodd;clip-rule:evenodd;fill:url(#SVGID_00000183959346689894204910000006146510954361885861_);}
	.st10{fill-rule:evenodd;clip-rule:evenodd;fill:url(#SVGID_00000046316027577733441170000001027014821349704886_);}
	.st11{fill:#E1232A;}
	.st12{fill:#109548;}
	.st13{fill:#3CB54A;}
	.st14{fill:none;stroke:#000000;stroke-miterlimit:10;}
	.st15{fill-rule:evenodd;clip-rule:evenodd;fill:url(#SVGID_00000067202277875817384410000008323256395366457216_);}
	.st16{fill-rule:evenodd;clip-rule:evenodd;fill:url(#SVGID_00000069363683303863508800000017846677503522425754_);}
	.st17{fill-rule:evenodd;clip-rule:evenodd;fill:#A52067;}
	.st18{fill-rule:evenodd;clip-rule:evenodd;fill:url(#SVGID_00000017485613255717929160000002764179864311884442_);}
	.st19{fill-rule:evenodd;clip-rule:evenodd;fill:url(#SVGID_00000044883789231045362550000011350242074306188722_);}
	.st20{font-family:'Arial-BoldMT';}
	.st21{font-size:15.4565px;}
	.st22{font-size:12px;}
</style>
<g>
	<g>
		<path class="st1" d="M129.92,175.98l-119.98,0V58.12l119.98,0L129.92,175.98z M116.53,163.55c0-1.1,0-2.21-0.01-3.31
			c1.04,0,2.08,0,3.26,0c0-1.03,0-1.98,0-3.06c1.09,0,2.05,0,3.01,0c0-1.15,0-2.17,0-3.32c-1.06,0-2.01,0-2.96,0
			c0-2.11,0-4.1,0-6.22c1.01,0,1.97,0,2.97,0c0-1.12,0-2.11,0-3.09c-1.09,0-2.09,0-3.21,0c0,1.03,0,1.99,0,3.05
			c-1.08,0-2.04,0-3.12,0c0,1.12,0,2.12,0,3.16c-1.07,0-2.02,0-2.98,0c0-2.1,0-4.12,0-6.25c1.02,0,1.97,0,3.06,0
			c0-1.07,0-2.03,0-3.08c0.86,0,1.6-0.03,2.33,0.01c0.65,0.03,0.93-0.2,0.9-0.87c-0.04-0.77-0.01-1.54-0.01-2.44
			c1.09,0,2.04,0,3.01,0c0-1.16,0-2.18,0-3.15c-1.1,0-2.09,0-3.22,0c0,1.05,0,2,0,3.09c-1.09,0-2.04,0-3.13,0c0,1.13,0,2.13,0,3.1
			c-1.06,0-1.98,0-2.93,0c0-2.05,0-4.03,0-6.15c1.02,0,1.98,0,3.07,0c0-1.14,0-2.13,0-3.26c1.13,0,2.12,0,3.2,0
			c0-2.01,0.02-3.89-0.03-5.76c-0.01-0.24-0.34-0.66-0.55-0.68c-0.87-0.08-1.76-0.03-2.77-0.03c0,1.19,0,2.18,0,3.17
			c-1.06,0-1.99,0-3.03,0c0-2.08,0-4.1,0-6.25c-1.11,0-2.1,0-3.15,0c0-1.09,0-2.05,0-3.02c2.1,0,4.14,0,6.29,0c0,1.06,0,2.02,0,2.98
			c2.17,0,4.21,0,6.26,0c0-2.15,0-4.2,0-6.41c-2.12,0-4.16,0-6.18,0c0-1.08,0-2,0-2.97c0.43,0,0.78,0,1.13,0
			c2.28-0.04,1.99,0.35,2.02-1.96c0.01-0.41,0-0.82,0-1.36c1.12,0,2.08,0,3.01,0c0-6.39,0-12.66,0-18.89c-1.1,0-2.09,0-3.23,0
			c0,1.04,0,1.99,0,2.92c-1.07,0-1.99,0-3.04,0c0-1.02,0-1.97,0-2.91c-3.27,0-6.41,0-9.64,0c0,1.03,0,1.95,0,2.9c-2.1,0-4.1,0-6.2,0
			c0-1.01,0-1.94,0-2.9c-1.12,0-2.15,0-3.14,0c0,1.09,0,2.08,0,3.2c1.06,0,2.01,0,3.09,0c-0.08,1.14-0.14,2.15-0.21,3.15l0.02-0.01
			c-0.97-0.07-1.95-0.14-3.04-0.21c0,1.22,0,2.18,0,3.14c-1.08,0-2.03,0-3.09,0c0-1.04,0-2,0-3.1c-0.91,0-1.73-0.06-2.53,0.03
			c-0.25,0.03-0.63,0.42-0.66,0.68c-0.09,0.76-0.03,1.54-0.03,2.46c-1.09,0-2.08,0-3.1,0c0,1.17,0,2.2,0,3.32c2.11,0,4.12,0,6.16,0
			c0,1.05,0,2,0,3.04c-2.11,0-4.13,0-6.26,0c0,2.15,0,4.2,0,6.39c-0.77,0-1.42,0.04-2.07-0.01c-0.85-0.07-1.23,0.22-1.14,1.12
			c0.06,0.64,0.01,1.29,0.01,1.96c-1.1,0-2.02,0-2.98,0c0-2.09,0-4.1,0-6.26c1.06,0,2.05,0,3.04,0c0-1.14,0-2.13,0-3.26
			c-3.19,0-6.29,0-9.54,0c0-1.08,0-2.03,0-2.97c-1.13,0-2.12,0-3.22,0c0,1.01,0,1.93,0,2.9c-3.17,0-6.23,0-9.41,0
			c0-1.05,0-2.02,0-2.99l-0.04,0.04c1.04,0,2.09,0,3.27,0c0-1.09,0-2.04,0-3.11c1.09,0,2.05,0,3.15,0c0-1.15,0-2.18,0-3.2
			c1.08,0,2,0,3.08,0c0,1.09,0,2.12,0,3.27c2.17,0,4.19,0,6.31,0c0,1.04,0,1.97,0,2.97c2.19,0,4.28,0,6.49,0
			c0-0.67-0.06-1.29,0.01-1.9c0.12-1.01-0.21-1.39-1.28-1.33c-1.66,0.09-3.33,0.02-4.99,0.02c0-1.12,0-2.08,0-3.12
			c3.16,0,6.23,0,9.46,0c0-1.04,0-2,0-3.06c0.61,0,1.07,0,1.53,0c1.6,0,1.6,0,1.6-1.55c0-2.65,0-5.29,0-7.96c1.09,0,2.04,0,3.12,0
			c0,1.04,0,1.99,0,2.95c1.13,0,2.13,0,3.13,0c0-2.13,0-4.17,0-6.32c-1.05,0-2.02,0-2.99,0c0-1.06,0-2.01,0-3.1c1.04,0,2,0,3,0
			c0-3.27,0-6.41,0-9.65c-1.04,0-2,0-3.11,0c0-1.1,0-2.09,0-3.12c-1.14,0-2.13,0-3.18,0c0,1.07,0,2.07,0,3.21c1.03,0,2.02,0,3.04,0
			c0,1.1,0,2.07,0,3.19c-2.1,0-4.15,0-6.3,0c0,1.12,0,2.08,0,3.06c-1.07,0-2.02,0-3.08,0c0-1.03,0-1.99,0-3.06
			c-2.01,0-3.92-0.02-5.82,0.03c-0.23,0.01-0.61,0.44-0.64,0.7c-0.09,0.76-0.03,1.53-0.03,2.42c-1.09,0-2.05,0-3.13,0
			c0,1.08,0,2.03,0,3.05c-0.67,0-1.22,0.07-1.75-0.01c-1.26-0.2-1.6,0.37-1.46,1.51c0.07,0.56,0.01,1.13,0.01,1.7
			c-2.15,0-4.12,0-6.11,0c0-2.09,0-4.1,0-6.25c1.03,0,1.98,0,2.94,0c0-1.12,0-2.11,0-3.24c-1.05,0-2,0-3.05,0c0-1.11,0-2.07,0-3.09
			c-1.12,0-2.15,0-3.3,0c0,2.14,0,4.19,0,6.24c-1.05,0-1.98,0-2.88,0c-0.13-1.04,0.09-2.44-0.46-2.88c-0.61-0.5-1.93-0.13-2.94-0.14
			l0.04,0.04c0-2.17,0-4.34,0-6.51c-4.36,0-8.49,0-12.67,0c0,1.09,0,2.11,0,3.25c1.05,0,2.01,0,2.97,0c0,1.08,0,2.05,0,3.15
			c-1.02,0-1.98,0-2.98,0c0,3.29,0,6.43,0,9.68c0.86,0,1.63-0.02,2.41,0.01c0.61,0.02,0.85-0.22,0.82-0.83
			c-0.03-0.8-0.01-1.61-0.01-2.5c1.11,0,2.03,0,3.11,0c0-1.08,0-2.07,0-3.09c1.08,0,2,0,2.98,0c0,2.08,0,4.1,0,6.25
			c-1,0-1.96,0-2.93,0c0,2.18,0,4.23,0,6.38c1.02,0,1.94,0,2.89,0c0,1.13,0,2.15,0,3.25c-1.03,0-1.95,0-2.91,0c0,1.08,0,2.08,0,3.24
			c2.12,0,4.16,0,6.3,0c0,1.09,0,2.01,0,3.06c1.05,0,2.01,0,3,0c0,1.08,0,2.03,0,3.02c-2.04,0-4.01,0-6.1,0c0-1.03,0-1.99,0-3.12
			c-3.25,0-6.39,0-9.51,0c0-1.1,0-2.01,0-2.99c0.86,0,1.65,0.04,2.42-0.02c0.26-0.02,0.69-0.32,0.71-0.52
			c0.08-0.87,0.03-1.76,0.03-2.63c-1.18,0-2.18,0-3.32,0c0,1.02,0,1.98,0,2.95c-1.06,0-1.99,0-3.05,0c0-1.01,0-1.97,0-2.95
			c-1.14,0-2.14,0-3.28,0c0,1.02,0,1.97,0,2.94c-2.16,0-4.17,0-6.31,0c0-1.02,0-1.98,0-2.94c-4.3,0-8.46,0-12.68,0
			c0,4.23,0,8.39,0,12.66c3.17,0,6.24,0,9.42,0c0,1.06,0,2.02,0,3.12c2.15,0,4.21,0,6.28,0c0,2.19,0,4.24,0,6.27
			c-2.06,0-4.03,0-6.1,0c0-0.85,0.05-1.63-0.02-2.4c-0.03-0.3-0.33-0.81-0.52-0.82c-1.94-0.06-3.89-0.04-5.97-0.04
			c0,1.19,0,2.22,0,3.32c-0.88,0-1.63-0.05-2.36,0.03c-0.29,0.03-0.76,0.37-0.77,0.57c-0.06,1.9-0.04,3.81-0.04,5.82
			c1.14,0,2.1,0,3.09,0c0,1.1,0,2.09,0,3.17c-1.05,0-2.02,0-2.99,0c0,2.14,0,4.18,0,6.33c1.08,0,2.04,0,2.99,0c0,1.1,0,2.09,0,3.2
			c-1.04,0-2,0-3.02,0c0,1.12,0,2.11,0,3.26c2.12,0,4.17,0,6.22,0c0,1.03,0,1.92,0,2.86c-1.06,0.05-2.05,0.09-3.16,0.14
			c0,1.14,0,2.13,0,3.23c-1.09,0-2.05,0-3.07,0c0,1.11,0,2.1,0,3.16c1.08,0,2.08,0,3.21,0c0-0.99,0-1.95,0-2.95
			c4.25,0,8.37,0,12.63,0c0,1.03,0,1.98,0,2.94c2.2,0,4.25,0,6.46,0c0-1.01,0-1.96,0-3.02c1.82,0,3.5-0.04,5.17,0.02
			c0.9,0.03,1.31-0.2,1.21-1.17c-0.07-0.68-0.01-1.37-0.01-2.19c3.24,0,6.3,0,9.47,0c0-1.06,0-1.98,0-2.95c1.05,0,2,0,3.04,0
			c0,1.84-0.03,3.6,0.03,5.35c0.01,0.32,0.33,0.87,0.56,0.89c0.87,0.11,1.76,0.04,2.77,0.04c0-1.18,0-2.18,0-3.19
			c2.14,0,4.14,0,6.13,0c0,2.1,0,4.11,0,6.25c-1.05,0-2.01,0-3.02,0c0,1.08,0,2.04,0,3.16c1.07,0,2.06,0,3.15,0c0,1.18,0,2.2,0,3.21
			c-1.03,0-2.07,0-3.07,0c-0.54,3.16-0.38,3.36,2.55,3.24c0.15-0.01,0.29-0.06,0.51-0.11c0-1.07,0-2.11,0-3.14c2.09,0,4.18,0,6.37,0
			c0,1.2,0,2.16,0,3.17c1.13,0,2.15,0,3.27,0c0-2.15,0-4.21,0-6.31c1.06-0.06,2.02-0.12,2.98-0.17c0,0-0.04-0.03-0.04-0.03
			c0.01,3.24,0.01,6.49,0.02,9.73l0.04-0.04c-0.35-0.03-0.7-0.08-1.05-0.08c-2.16-0.03-2.16-0.02-2.16,2.17c0,2.41,0,4.82,0,7.23
			c-1.11,0-2.05,0-3.12,0c0-3.17,0-6.24,0-9.4c-0.86,0-1.6,0.03-2.34-0.01c-0.67-0.03-0.91,0.25-0.88,0.9
			c0.03,0.72,0.01,1.45,0.01,2.17c-2.16,0-4.13,0-6.23,0c0-1.03,0-1.99,0-2.99c-1.12,0-2.12,0-3.24,0c0,1.03,0,1.99,0,2.98
			c-1.08,0-2.03,0-3.06,0c0-1.21,0-2.34,0-3.47c0-2.95,0-2.95-2.96-2.74c-0.07,0-0.13,0.07-0.24,0.13c0,2.03,0,4.07,0,6.26
			c1.04,0,1.99,0,2.93,0c0,2.15,0,4.17,0,6.32c-1.04,0-1.99,0-2.93,0c0,1.14,0,2.13,0,3.12c2.14,0,4.2,0,6.39,0
			c0-1.03,0-1.99,0-2.94c1.06,0,1.98,0,3.04,0c0,1.03,0,1.99,0,2.92c2.23,0,4.32,0,6.49,0c0-1.03,0-1.95,0-2.92
			c1.04,0,1.99,0,3.07,0c0,1.03,0,1.99,0,2.95c1.12,0,2.12,0,3.25,0c0-1.02,0-1.97,0-2.95c3.19,0,6.25,0,9.44,0
			c0,1.04,0,1.99,0,2.95c2.18,0,4.24,0,6.43,0c0-1.02,0-1.97,0-3.05c1.1,0,2.06,0,3.21,0c0-1.17,0-2.21,0-3.25
			c0,0-0.04,0.04-0.04,0.04c1.01,0,2.02-0.01,3.03-0.01c0,0.82-0.04,1.64,0.03,2.45c0.02,0.27,0.28,0.73,0.46,0.75
			c0.9,0.08,1.82,0.04,2.79,0.04c0-1.21,0-2.22,0-3.23c1,0,2,0,3.1,0c0,1.17,0,2.14,0,3.15c1.13,0,2.15,0,3.16,0
			c0-1.1,0-2.09,0-3.19c-1.05,0-2.01,0-2.93,0c0-1.11,0-2.1,0-3.23c1.05,0,2,0,3.08,0c0-1.09,0-2.04,0-3.09c1.09,0,2.05,0,3.17,0
			c0-1.04,0-2,0-2.96c1.1,0,2.04,0,3.12,0c0,2.08,0,4.07,0,6.05c-1.07,0-2.14,0-3.2,0c0,1.19,0,2.21,0,3.26c1.13,0,2.17,0,3.21,0
			c0,2.09,0,4.18,0,6.28c1.11,0,2.11,0,3.25,0c0-1.03,0-1.98,0-3.06c1.1,0,2.06,0,3.01,0c0-1.13,0-2.13,0-3.19
			C120.66,163.55,118.6,163.55,116.53,163.55z M18.11,147.64c0,7.42,0,14.78,0,22.16c7.45,0,14.81,0,22.2,0c0-7.43,0-14.79,0-22.16
			C32.86,147.64,25.53,147.64,18.11,147.64z M18.1,87.22c7.5,0,14.83,0,22.21,0c0.04-0.29,0.1-0.51,0.1-0.74
			c0.01-6.84-0.01-13.68,0.02-20.52c0-0.88-0.37-1.01-1.12-1.01c-6.8,0.02-13.61,0.01-20.41,0.02c-0.26,0-0.51,0.06-0.8,0.1
			C18.1,72.46,18.1,79.8,18.1,87.22z M100.67,65.02c0,7.49,0,14.83,0,22.16c7.45,0,14.81,0,22.15,0c0-7.44,0-14.78,0-22.16
			C115.4,65.02,108.07,65.02,100.67,65.02z M53.04,157.15c0-1.12,0-2.11,0-3.22c-1.08,0-2.08,0-3.12,0c0-1.04,0-1.95,0-3.04
			c1.08,0,2.11,0,3.25,0c0-1.17,0-2.16,0-3.17c2.09,0,4.06,0,6.15,0c0,1.08,0,2.08,0,3.11c1.15,0,2.18,0,3.18,0
			c0-1.13,0-2.15,0-3.29c-1.07,0-2.02,0-3.11,0c0-1.07,0-2.02,0-3.09c-2.14,0-4.16,0-6.18,0c-0.07-1.08,0.21-2.39-0.31-2.9
			c-0.5-0.5-1.82-0.19-2.78-0.23c-0.06,0-0.12,0.08-0.21,0.14c0,0.98,0,1.97,0,3.1c1.02,0,1.98,0,2.92,0c0,1.08,0,2.03,0,2.95
			c-2.06,0-4.04,0-6.09,0c0-1.01,0-1.94,0-2.94c-1.11,0-2.14,0-3.21,0c0,1.04,0,1.99,0,3.08c1.02,0,1.98,0,3.06,0
			c0,1.92,0.03,3.71-0.01,5.49c-0.02,0.78,0.25,1.05,1.01,1c0.72-0.05,1.45-0.01,2.31-0.01c0,1.12,0,2.07,0,3.03
			C51.01,157.15,51.97,157.15,53.04,157.15z M46.77,160.24c0-0.9,0.06-1.65-0.03-2.38c-0.03-0.27-0.39-0.68-0.63-0.7
			c-0.83-0.09-1.68-0.03-2.54-0.03c0,4.34,0,8.52,0,12.67c1.11,0,2.1,0,3.23,0c0-2.09,0-4.09,0-6.24c1.08,0,2.03,0,2.97,0
			c0-1.18,0-2.21,0-3.31C48.76,160.24,47.84,160.24,46.77,160.24z M75.18,64.96c-0.92,0-1.7-0.04-2.47,0.02
			c-0.26,0.02-0.69,0.33-0.7,0.52c-0.05,1.97-0.03,3.94-0.03,5.93c1.17,0,2.16,0,3.19,0C75.18,69.27,75.18,67.19,75.18,64.96z
			 M81.65,64.96c0,1.15,0,2.17,0,3.18c1.09,0,2.08,0,3.17,0c0-0.89,0.04-1.71-0.03-2.51c-0.02-0.24-0.35-0.62-0.57-0.64
			C83.39,64.91,82.54,64.96,81.65,64.96z M49.94,166.72c0,1.08,0,2.1,0,3.07c1.1,0,2.1,0,3.08,0c0.39-3.22,0.3-3.32-2.75-3.16
			C50.2,166.64,50.12,166.67,49.94,166.72z M46.77,87.24c0-0.94,0.04-1.75-0.03-2.56c-0.02-0.21-0.34-0.54-0.54-0.56
			c-0.87-0.06-1.75-0.03-2.63-0.03c0,1.16,0,2.14,0,3.14C44.65,87.24,45.61,87.24,46.77,87.24z"/>
		<g>
			<path d="M68.39,150.55c0-1.01,0-2.03,0-3.21c-1.09,0-2.08,0-3.15,0c0-1.12,0-2.08,0-3.16c1.01,0,1.97,0,3.02,0
				c0-2.13,0-4.14,0-6.25c-1.99,0-4,0-6.13,0c0,1,0,2,0,3.19c-1.01,0-1.9,0.06-2.77-0.04c-0.23-0.03-0.55-0.58-0.56-0.89
				c-0.05-1.75-0.03-3.51-0.03-5.35c-1.04,0-1.98,0-3.04,0c0,0.96,0,1.89,0,2.95c-3.17,0-6.23,0-9.47,0c0,0.82-0.06,1.51,0.01,2.19
				c0.11,0.97-0.31,1.21-1.21,1.17c-1.67-0.06-3.35-0.02-5.17-0.02c0,1.06,0,2.01,0,3.02c-2.21,0-4.27,0-6.46,0
				c0-0.96,0-1.92,0-2.94c-4.26,0-8.38,0-12.63,0c0,1,0,1.96,0,2.95c-1.13,0-2.14,0-3.21,0c0-1.05,0-2.05,0-3.16
				c1.02,0,1.98,0,3.07,0c0-1.1,0-2.1,0-3.23c1.11-0.05,2.1-0.09,3.16-0.14c0-0.94,0-1.83,0-2.86c-2.05,0-4.1,0-6.22,0
				c0-1.14,0-2.14,0-3.26c1.02,0,1.98,0,3.02,0c0-1.11,0-2.1,0-3.2c-0.96,0-1.92,0-2.99,0c0-2.15,0-4.19,0-6.33
				c0.97,0,1.93,0,2.99,0c0-1.08,0-2.07,0-3.17c-0.99,0-1.95,0-3.09,0c0-2.02-0.02-3.92,0.04-5.82c0.01-0.21,0.48-0.54,0.77-0.57
				c0.73-0.08,1.48-0.03,2.36-0.03c0-1.1,0-2.13,0-3.32c2.08,0,4.03-0.02,5.97,0.04c0.19,0.01,0.49,0.52,0.52,0.82
				c0.07,0.77,0.02,1.55,0.02,2.4c2.07,0,4.05,0,6.1,0c0-2.03,0-4.08,0-6.27c-2.07,0-4.12,0-6.28,0c0-1.1,0-2.06,0-3.12
				c-3.18,0-6.26,0-9.42,0c0-4.26,0-8.43,0-12.66c4.21,0,8.38,0,12.68,0c0,0.96,0,1.91,0,2.94c2.14,0,4.15,0,6.31,0
				c0-0.97,0-1.92,0-2.94c1.14,0,2.14,0,3.28,0c0,0.98,0,1.94,0,2.95c1.07,0,1.99,0,3.05,0c0-0.97,0-1.92,0-2.95
				c1.14,0,2.14,0,3.32,0c0,0.87,0.04,1.76-0.03,2.63c-0.02,0.2-0.45,0.5-0.71,0.52c-0.77,0.07-1.56,0.02-2.42,0.02
				c0,0.98,0,1.9,0,2.99c3.12,0,6.26,0,9.51,0c0,1.13,0,2.09,0,3.12c2.09,0,4.06,0,6.1,0c0-0.99,0-1.94,0-3.02c-0.99,0-1.95,0-3,0
				c0-1.05,0-1.97,0-3.06c-2.14,0-4.18,0-6.3,0c0-1.16,0-2.15,0-3.24c0.95,0,1.88,0,2.91,0c0-1.11,0-2.13,0-3.25
				c-0.95,0-1.88,0-2.89,0c0-2.15,0-4.19,0-6.38c0.97,0,1.93,0,2.93,0c0-2.15,0-4.16,0-6.25c-0.98,0-1.9,0-2.98,0c0,1.01,0,2,0,3.09
				c-1.08,0-2,0-3.11,0c0,0.9-0.02,1.7,0.01,2.5c0.02,0.61-0.22,0.85-0.82,0.83c-0.77-0.03-1.55-0.01-2.41-0.01
				c0-3.25,0-6.39,0-9.68c1.01,0,1.96,0,2.98,0c0-1.11,0-2.07,0-3.15c-0.96,0-1.92,0-2.97,0c0-1.14,0-2.16,0-3.25
				c4.18,0,8.31,0,12.67,0c0,2.17,0,4.34,0,6.51c-1,0-2.01,0-3.03,0c0,1.07,0,2.02,0,3.04c1.05,0,2.03,0,3,0c0,2.09,0,4.18,0,6.29
				c1.1,0,2.03,0,2.97,0c0-2.1,0-4.13,0-6.25c-1.07,0-2.04,0-3.01,0c0.01-1.04,0.02-2.08,0.02-3.12c1.01,0.01,2.32-0.36,2.94,0.14
				c0.55,0.44,0.33,1.84,0.46,2.88c0.9,0,1.83,0,2.88,0c0-2.05,0-4.1,0-6.24c1.15,0,2.18,0,3.3,0c0,1.01,0,1.98,0,3.09
				c1.04,0,2,0,3.05,0c0,1.13,0,2.12,0,3.24c-0.96,0-1.92,0-2.94,0c0,2.14,0,4.16,0,6.25c1.99,0,3.96,0,6.11,0
				c0-0.57,0.06-1.14-0.01-1.7c-0.14-1.14,0.2-1.71,1.46-1.51c0.53,0.08,1.08,0.01,1.75,0.01c0-1.02,0-1.98,0-3.05
				c1.08,0,2.04,0,3.13,0c0-0.89-0.06-1.66,0.03-2.42c0.03-0.27,0.41-0.7,0.64-0.7c1.91-0.06,3.81-0.03,5.82-0.03
				c0,1.07,0,2.03,0,3.06c1.06,0,2.01,0,3.08,0c0-0.98,0-1.94,0-3.06c2.16,0,4.2,0,6.3,0c0-1.13,0-2.09,0-3.19
				c-1.01,0-2.01,0-3.04,0c0-1.14,0-2.14,0-3.21c1.05,0,2.04,0,3.18,0c0,1.03,0,2.02,0,3.12c1.1,0,2.06,0,3.11,0
				c0,3.24,0,6.38,0,9.65c-1,0-1.96,0-3,0c0,1.08,0,2.04,0,3.1c0.97,0,1.93,0,2.99,0c0,2.15,0,4.19,0,6.32c-1.01,0-2.01,0-3.13,0
				c0-0.95,0-1.91,0-2.95c-1.08,0-2.03,0-3.12,0c0,2.66,0,5.31,0,7.96c0,1.55,0,1.55-1.6,1.55c-0.46,0-0.92,0-1.53,0
				c0,1.07,0,2.02,0,3.06c-3.23,0-6.3,0-9.46,0c0,1.04,0,2,0,3.12c1.66,0,3.33,0.07,4.99-0.02c1.07-0.06,1.4,0.32,1.28,1.33
				c-0.07,0.61-0.01,1.23-0.01,1.9c-2.21,0-4.3,0-6.49,0c0-1,0-1.92,0-2.97c-2.12,0-4.14,0-6.31,0c0-1.14,0-2.17,0-3.27
				c-1.08,0-2,0-3.08,0c0,1.02,0,2.05,0,3.2c-1.1,0-2.06,0-3.15,0c0,1.07,0,2.03,0,3.11c-1.18,0-2.22,0-3.27,0c0-1,0-2,0-3.01
				c-1.11,0-2.06,0-3.02,0c0,1,0,1.92,0,2.97c1.06,0,2.06,0,3.06,0c0,0.97,0,1.94,0,2.99c3.18,0,6.24,0,9.41,0c0-0.97,0-1.89,0-2.9
				c1.1,0,2.09,0,3.22,0c0,0.94,0,1.89,0,2.97c3.24,0,6.35,0,9.54,0c0,1.12,0,2.12,0,3.26c-0.99,0-1.98,0-3.04,0
				c0,2.16,0,4.17,0,6.26c0.97,0,1.88,0,2.98,0c0-0.66,0.05-1.32-0.01-1.96c-0.09-0.9,0.29-1.19,1.14-1.12
				c0.65,0.05,1.31,0.01,2.07,0.01c0-2.18,0-4.24,0-6.39c2.13,0,4.15,0,6.26,0c0-1.04,0-1.99,0-3.04c-2.03,0-4.05,0-6.16,0
				c0-1.13,0-2.15,0-3.32c1.02,0,2.02,0,3.1,0c0-0.91-0.06-1.69,0.03-2.46c0.03-0.26,0.41-0.65,0.66-0.68
				c0.8-0.09,1.62-0.03,2.53-0.03c0,1.09,0,2.06,0,3.1c1.06,0,2.02,0,3.09,0c0-0.96,0-1.92,0-3.14c1.1,0.08,2.07,0.14,3.05,0.21
				c0.11,1.04,0.21,2.07,0.33,3.22c-1.23,0-2.2,0-3.18,0c0,1.05,0,2,0,3.05c1.04,0,2.01,0,3,0c0,3.25,0,6.38,0,9.5
				c-1.1,0-2.09,0-3.19,0c0-1.09,0-2.09,0-3.1c-1.07,0-2.02,0-2.94,0c0,2.1,0,4.11,0,6.25c1.06,0,2.02,0,3.09,0
				c0,2.18,0,4.23,0,6.26c1.08,0,2.03,0,3.07,0c0-2.11,0-4.14,0-6.32c1.07,0,2.06,0,3.16,0c0-1.09,0-2.01,0-3.1c1.1,0,2.09,0,3.16,0
				c0-1.17,0-2.18,0-3.33c1.08,0,2.08,0,3.1,0c0-2.12,0-4.09,0-6.08c-1.02,0-1.94,0-3,0c0,1.03,0,1.98,0,3c-1.14,0-2.14,0-3.17,0
				c0-1.07,0-2.05,0-3.15c1.06,0,2.02,0,3.1,0c0-1.11,0-2.11,0-3.25c1.12,0,2.11,0,3.06,0c0-2.12,0-4.09,0-6.06
				c-1.02,0-1.94,0-3.01,0c0,1.03,0,1.98,0,3.11c-2.3,0-4.44,0-6.59,0c0.07-1,0.13-2.01,0.21-3.15c-1.08,0-2.04,0-3.09,0
				c0-1.12,0-2.12,0-3.2c0.99,0,2.02,0,3.14,0c0,0.96,0,1.89,0,2.9c2.09,0,4.1,0,6.2,0c0-0.95,0-1.87,0-2.9c3.23,0,6.37,0,9.64,0
				c0,0.94,0,1.89,0,2.91c1.05,0,1.98,0,3.04,0c0-0.93,0-1.88,0-2.92c1.13,0,2.13,0,3.23,0c0,6.22,0,12.49,0,18.89
				c-0.93,0-1.89,0-3.01,0c0,0.53,0,0.95,0,1.36c-0.03,2.31,0.26,1.93-2.02,1.96c-0.35,0.01-0.7,0-1.13,0c0,0.97,0,1.89,0,2.97
				c2.02,0,4.06,0,6.18,0c0,2.21,0,4.26,0,6.41c-2.05,0-4.09,0-6.26,0c0-0.96,0-1.92,0-2.98c-2.16,0-4.19,0-6.29,0
				c0,0.97,0,1.93,0,3.02c1.04,0,2.04,0,3.15,0c0,2.15,0,4.16,0,6.25c1.04,0,1.96,0,3.03,0c0-0.99,0-1.98,0-3.17
				c1.02,0,1.9-0.04,2.77,0.03c0.21,0.02,0.54,0.44,0.55,0.68c0.05,1.87,0.03,3.74,0.03,5.76c-1.07,0-2.06,0-3.2,0
				c0,1.13,0,2.12,0,3.26c-1.09,0-2.05,0-3.07,0c0,2.12,0,4.09,0,6.15c0.94,0,1.86,0,2.93,0c0-0.98,0-1.97,0-3.1
				c1.09,0,2.04,0,3.13,0c0-1.09,0-2.05,0-3.09c1.13,0,2.13,0,3.22,0c0,0.97,0,1.99,0,3.15c-0.97,0-1.93,0-3.01,0
				c0,0.9-0.03,1.67,0.01,2.44c0.03,0.67-0.25,0.91-0.9,0.87c-0.73-0.04-1.47-0.01-2.33-0.01c0,1.05,0,2.01,0,3.08
				c-1.08,0-2.04,0-3.06,0c0,2.14,0,4.16,0,6.25c0.96,0,1.91,0,2.98,0c0-1.05,0-2.05,0-3.16c1.07,0,2.03,0,3.12,0
				c0-1.07,0-2.02,0-3.05c1.12,0,2.12,0,3.21,0c0,0.98,0,1.97,0,3.09c-1.01,0-1.96,0-2.97,0c0,2.12,0,4.11,0,6.22
				c0.95,0,1.9,0,2.96,0c0,1.15,0,2.17,0,3.32c-0.96,0-1.92,0-3.01,0c0,1.07,0,2.03,0,3.06c-1.18,0-2.22,0-3.26,0l0.02,0.02
				c0-1.99,0-3.97,0-6.05c-1.08,0-2.02,0-3.12,0c0,0.97,0,1.92,0,2.96c-1.11,0-2.08,0-3.17,0c0,1.04,0,2,0,3.09
				c-1.07,0-2.03,0-3.08,0c0,1.13,0,2.12,0,3.23c0.92,0,1.87,0,2.93,0c0,1.1,0,2.09,0,3.19c-1.01,0-2.03,0-3.16,0
				c0-1.01,0-1.97,0-3.15c-1.1,0-2.1,0-3.1,0l0.02,0.02c0-2.09,0-4.18,0-6.31c-1.17,0-2.1,0-3.17,0c0,0.5,0.01,0.96,0,1.42
				c-0.04,1.63-0.09,3.26-0.14,4.9c0,0,0.02-0.02,0.02-0.02c-1.01,0-2.02,0.01-3.03,0.02c0-2.09,0-4.18,0-6.27
				c-2.28,0-4.29,0-6.29,0c0,1.03,0,1.98,0,3.03c1.05,0,2.01,0,3.13,0c0,1.12,0,2.16,0,3.2c1.18,0,2.19,0,3.2,0
				c0,1.04,0,2.09,0,3.25c-1.16,0-2.12,0-3.21,0c0,1.07,0,2.03,0,3.05c-2.19,0-4.25,0-6.43,0c0-0.95,0-1.91,0-2.95
				c-3.19,0-6.25,0-9.44,0c0,0.97,0,1.93,0,2.95c-1.12,0-2.12,0-3.25,0c0-0.97,0-1.92,0-2.95c-1.07,0-2.02,0-3.07,0
				c0,0.96,0,1.89,0,2.92c-2.17,0-4.26,0-6.49,0c0-0.93,0-1.89,0-2.92c-1.06,0-1.98,0-3.04,0c0,0.95,0,1.91,0,2.94
				c-2.19,0-4.24,0-6.39,0c0-0.99,0-1.98,0-3.12c0.94,0,1.89,0,2.93,0c0-2.15,0-4.16,0-6.32c-0.94,0-1.9,0-2.93,0
				c0-2.18,0-4.23,0-6.26c0.1-0.06,0.17-0.13,0.24-0.13c2.96-0.2,2.96-0.2,2.96,2.74c0,1.13,0,2.26,0,3.47c1.03,0,1.98,0,3.06,0
				c0-1,0-1.96,0-2.98c1.12,0,2.12,0,3.24,0c0,1,0,1.95,0,2.99c2.1,0,4.07,0,6.23,0c0-0.72,0.03-1.45-0.01-2.17
				c-0.03-0.65,0.21-0.93,0.88-0.9c0.74,0.04,1.48,0.01,2.34,0.01c0,3.16,0,6.23,0,9.4c1.07,0,2.02,0,3.12,0c0-2.41,0-4.82,0-7.23
				c0-2.19,0-2.19,2.16-2.17c0.35,0,0.7,0.05,1.05,0.08c0.06,1,0.13,1.99,0.19,2.96c2.11,0,4.12,0,6.13,0c0-1.01,0-1.93,0-2.93
				c-2.16,0-4.26,0-6.35,0c-0.01-3.24-0.01-6.49-0.02-9.73c2.14,0,4.28,0,6.58,0c0,2.22,0,4.27,0,6.32c2.16,0,4.16,0,6.14,0
				c0-2.08,0-4.06,0-6.22c-1.04,0-2.02,0-3.14,0c0-1.12,0-2.08,0-3.12c-1.1,0-2.07,0-3.15,0c0-2.14,0-4.19,0-6.26
				c-2.13,0-4.14,0-6.18,0c0,1.03,0,1.99,0,3.03c0.86,0,1.64-0.04,2.41,0.03c0.25,0.02,0.66,0.33,0.67,0.54
				c0.08,0.87,0.03,1.76,0.03,2.73c-1.23,0-2.28,0-3.34,0c0-1,0-2,0-3.07c-0.3-0.01-0.57-0.03-0.83-0.04
				c-2.49-0.04-2.47-0.04-2.36-2.58c0.03-0.67,0.27-0.9,0.91-0.88c0.76,0.03,1.53,0.01,2.41,0.01c0-1.12,0-2.08,0-3.14
				c1.08,0,2.04,0,3.14,0c0-2.16,0-4.2,0-6.34c2.26,0,4.36,0,6.46,0c0,1.13-0.01,2.25-0.01,3.38c-1,0-2.01,0-3.04,0
				c0,2.07,0,4.06,0,6.06c1,0,1.89,0,3,0c0-2.07,0-4.08,0-6.1c1.02,0.01,2.04,0.02,3.05,0.04c0,2.05,0,4.1,0,6.3c-1.01,0-2,0-2.95,0
				c0,1.11,0,2.06,0,3.02c2.07,0,4.06,0,6.22,0c0-1.07,0-2.1,0-3.21c0.92,0,1.65,0.02,2.39-0.01c0.6-0.02,0.85,0.22,0.83,0.83
				c-0.03,0.77-0.01,1.54-0.01,2.36c2.15,0,4.16,0,6.29,0c0-1.08,0-2.07,0-3.22c1.11,0,2.1,0,3.19,0c0-1.09,0-2.01,0-3.09
				c1.09,0,2.07,0,3.02,0c0-2.18,0-4.2,0-6.33c-1.03,0-1.98,0-3.09,0c0-2.13,0-4.14,0-6.17c-1.07,0-1.99,0-3.06,0
				c0,3.18,0,6.29,0,9.38c-2.24,0-4.32,0-6.5,0c0-2.12,0-4.14,0-6.17c-2.11,0-4.12,0-6.1,0c0,1.03,0,1.98,0,3.03
				c1.06,0,2.02,0,2.98,0c0,1.13,0,2.16,0,3.32c-1.14,0-2.19,0-3.24,0c0-1.1,0-2.2,0-3.37c-1.09,0-2.05,0-3.01,0
				c-0.05-1-0.11-2-0.17-3.08c-2.1,0-4.12,0-6.22,0c0-1.12,0-2.14,0-3.3c1.09,0,2.08,0,3.03,0c0-1.09,0-2.05,0-3.01
				c-2.07,0-4.05,0-6.19,0c0,1.04,0,2.03,0,3.06c-0.73,0-1.3,0-1.92,0c0.08-0.44,0.15-0.81,0.21-1.18c0.11-0.67,0.23-1.35,0.34-2.02
				c0.41-0.04,0.82-0.09,1.27-0.13c0-1,0-1.96,0-2.94c-0.38-0.05-0.72-0.09-0.94-0.11c-0.11,1.08-0.21,2.15-0.31,3.21
				c-0.38,0.2-0.77,0.39-1.14,0.57c0.24,0.44,0.52,0.94,0.8,1.45c-0.85,0-1.69,0-2.54,0c0,0.06,0,0.12,0,0.17
				c0.66,0.07,1.31,0.14,2.1,0.22c-0.56,1.04-0.99,1.89-1.48,2.72c-0.2,0.33-0.49,0.64-0.81,0.86c-0.91,0.62-1.85,1.19-2.79,1.78
				c-0.42,0.11-0.85,0.21-1.27,0.32c-0.35,0.02-0.7,0.02-1.05,0.06c-4.4,0.55-8.73-1.39-10.69-5.79c-0.2-0.45-0.1-1.04-0.15-1.71
				c0,0-0.29-0.11-0.64-0.23c0.49-0.33,0.85-0.58,1.21-0.83c-0.41-0.17-0.82-0.34-1.39-0.58c0.59-0.17,1.03-0.29,1.47-0.42
				c0-0.07-0.01-0.15-0.01-0.22c-0.46-0.08-0.92-0.17-1.36-0.25c0.02-2.48,0.2-2.3,2.31-2.26c0.26,0,0.51,0.17,0.77,0.26
				c1.67,0.61,2.64,0.13,3.3-1.46c0.23-0.56,0.73-1.01,1.16-1.6c0.11-0.46,0.22-1.1,0.45-1.7c0.05-0.12,0.79-0.14,0.8-0.09
				c0.21,0.75,0.35,1.52,0.53,2.38c0.27,0.07,0.75,0.21,1.27,0.35c0.11-0.83-0.69-2.22,0.61-2.24c1.59-0.03,0.65,1.51,0.77,2.22
				c0.59,0.33,1.31,0.49,1.45,0.87c0.54,1.45,1.5,0.65,2.32,0.56c0.16-0.02,0.42-0.31,0.44-0.29c0.82,0.88,1.55,0.05,2.2-0.09
				c0.2-0.43,0.37-0.8,0.6-1.29c-0.43-0.88-0.96-1.97-1.53-3.16c-0.33-0.12-0.93-0.22-1.37-0.53c-3.87-2.69-8.46-2.7-12.36-0.03
				c-0.43,0.3-1.01,0.39-1.75,0.66c0-1.3,0-2.29,0-3.29c-1.08,0-2,0-3.05,0c0,1.02,0,1.98,0,3.08c-1.12,0-2.11,0-3.26,0
				c0,1.17,0,2.19,0,3.31c-2.18,0-4.2,0-6.34,0c0,1.05,0,2.01,0,3.08c-1.08,0-2.03,0-3.07,0c0,1.29,0,2.46,0,3.63
				c0,2.93,0,2.93-2.99,2.69c-0.07-0.01-0.13-0.07-0.32-0.18c0-0.89,0-1.84,0-2.97c-2.16,0-4.21,0-6.31,0c0-1.18,0-2.19,0-3.2
				c3.11,0,6.22,0,9.35,0c0-1.12,0-2.06,0-2.97c-3.15,0-6.21,0-9.31,0c0,1.07,0,2.04,0,3.02c-2.09,0-4.19,0-6.28,0
				c0,2.16,0,4.18,0,6.33c3.17,0,6.27,0,9.41,0c0,1.14,0,2.13,0,3.24c-4.22,0-8.35,0-12.62,0c0,1.07,0,2.02,0,3.11
				c-1.15,0-2.14,0-3.14,0c0,2.15,0,4.17,0,6.22c2.08,0,4.09,0,6.25,0c0-2.11,0-4.16,0-6.21c1.15,0,2.15,0,3.26,0
				c0,1.98,0.02,3.89-0.03,5.8c-0.01,0.22-0.46,0.59-0.73,0.61c-0.79,0.08-1.6,0.03-2.4,0.03c0,1.07,0,1.95,0,2.94
				c0.8,0,1.54,0.03,2.27-0.01c0.65-0.03,0.93,0.21,0.9,0.87c-0.03,0.77-0.01,1.54-0.01,2.33c2.13,0,4.1,0,6.11,0
				c0-1.02,0-1.98,0-3.06c-1.02,0-1.98,0-3,0c0-1.12,0-2.12,0-3.24c4.22,0,8.38,0,12.56,0c0-1.08,0-2.03,0-3.08
				c-2.11,0-4.13,0-6.17,0c0-2.22,0-4.33,0-6.55c2.13,0,4.15,0,6.3,0c0-2.15,0-4.2,0-6.24c1.13,0,2.13,0,3.27,0
				c0,2.12,0,4.17,0,6.22c1.08,0,2,0,3.05,0c0-1.01,0-1.97,0-3.04c1.09,0,2.04,0,3.08,0c0-0.98-0.03-1.84,0.02-2.69
				c0.01-0.19,0.27-0.51,0.44-0.52c0.19-0.02,0.52,0.2,0.58,0.38c0.3,0.91,0.53,1.85,0.79,2.83c-0.56,0.06-1.08,0.12-1.66,0.18
				c0,0.83-0.02,1.57,0.01,2.31c0.03,0.62-0.23,0.84-0.83,0.81c-0.77-0.03-1.54-0.01-2.44-0.01c0,1.09,0,2.05,0,3.12
				c-1.09,0-2.05,0-3,0c0,1.09,0,2.06,0,3.08c3.12,0,6.18,0,9.39,0c0-2.18,0-4.26,0-6.63c0.78,0.29,1.34,0.48,1.88,0.71
				c1.21,0.52,2.37,1.18,3.62,1.56c0.77,0.23,0.94,0.55,0.79,1.23c0,0,0.02-0.02,0.02-0.02c-0.99,0-1.99,0-3.03,0
				c0,1.14,0,2.12,0,3.31c1.05,0,2.04,0,3.03,0l-0.02-0.02c0,1,0,1.99,0,3.11c1.22,0,2.21,0,3.32,0c0,2.16,0,4.21,0,6.37
				c1.08,0,2.03,0,3.08,0c0,1.09,0,2.05,0,3.2c2.15,0,4.2,0,6.26,0c-0.01,1-0.02,2.01-0.03,3.01c-0.96,0.06-1.92,0.11-2.98,0.17
				c0,2.11,0,4.16,0,6.31c-1.12,0-2.14,0-3.27,0c0-1.01,0-1.97,0-3.17c-2.19,0-4.28,0-6.37,0L68.39,150.55z M68.38,86.94
				c0-1,0-1.99,0-2.99c-1.13,0-2.08,0-3.02,0c0,1.01,0,1.93,0,2.95c1.06,0,2.06,0,3.06,0c0,1.08,0,2.16,0,3.36c1.19,0,2.18,0,3.26,0
				c0,1.06,0,1.98,0,2.94c5.27,0,10.45,0,15.61,0c0-1.03,0-1.98,0-3.05c-3.21,0-6.31,0-9.55,0c0-1.12,0-2.11,0-3.25
				c-1.08,0-2.03,0-3.1,0c0-2.12,0-4.09,0-6.05c-1.05,0-1.97,0-3.02,0c0,2.04,0,4.01,0,6.09C70.48,86.94,69.43,86.94,68.38,86.94z
				 M106.36,153.55c0-3.17,0-6.21,0-9.27c-3.13,0-6.19,0-9.25,0c0,3.14,0,6.21,0,9.27C100.23,153.55,103.27,153.55,106.36,153.55z
				 M106.58,115.62c-1.18,0-2.17,0-3.16,0c0,2.15,0,4.16,0,6.22c1.01,0,1.96,0,3.06,0c0-1.1,0-2.13,0-3.24c1.11,0,2.07,0,3.17,0
				c0-1.04,0-2,0-3.07c1.09,0,2.05,0,3.12,0c0-1.08,0-2.04,0-3.14c1.11,0,2.1,0,3.13,0c0-1.14,0-2.12,0-3.08c-2.11,0-4.12,0-6.24,0
				c0,1.08,0,2.08,0,3.2c-1.07,0-2.02,0-3.08,0C106.58,113.55,106.58,114.47,106.58,115.62z M46.09,99.91c-1.11,0-2.06,0-2.98,0
				c0,3.08,0,6.07,0,9.13c0.82,0,1.56,0.03,2.3-0.01c0.66-0.03,0.91,0.24,0.88,0.9c-0.04,0.77-0.01,1.54-0.01,2.35
				c1.08,0,2.03,0,3.13,0c0-1.12,0-2.14,0-3.27c1.07,0,1.99,0,2.94,0c0-1.03,0-1.94,0-3.03c-2.11,0-4.16,0-6.26,0
				C46.09,103.87,46.09,101.92,46.09,99.91z M59.05,80.83c0,3.19,0,6.25,0,9.41c1.05,0,2.01,0,3.1,0c0,1.06,0,2.01,0,2.96
				c1.06,0,1.98,0,2.95,0c0-2.08,0-4.09,0-6.26c-1.04,0-2.03,0-3.12,0c0-2.13,0-4.1,0-6.11C60.95,80.83,60.03,80.83,59.05,80.83z
				 M23.99,99.55c1.1,0,2.05,0,3.11,0c0-1.04,0-2,0-3.1c1.1,0,2.09,0,3.12,0c0-1.06,0-1.98,0-2.91c-3.14,0-6.21,0-9.26,0
				c0,1,0,1.91,0,2.97c1.06,0,2.02,0,3.03,0C23.99,97.58,23.99,98.51,23.99,99.55z M90.51,166.23c0-2.13,0-4.13,0-6.16
				c-1,0-1.92,0-2.89,0c0,2.08,0,4.09,0,6.16C88.6,166.23,89.52,166.23,90.51,166.23z M119.06,102.99c-1.06,0-1.98,0-2.93,0
				c0,2.04,0,4,0,5.96c1.02,0,1.97,0,2.93,0C119.06,106.92,119.06,104.99,119.06,102.99z M93.71,74.37c-2.09,0-4.06,0-6.09,0
				c0,0.99,0,1.9,0,2.87c2.06,0,4.06,0,6.09,0C93.71,76.26,93.71,75.37,93.71,74.37z M58.73,103.01c-2.05,0-4.04,0-6.02,0
				c0,1.02,0,1.94,0,2.86c2.05,0,4.01,0,6.02,0C58.73,104.88,58.73,103.96,58.73,103.01z M113.01,96.57c0,1.05,0,2,0,2.97
				c2.06,0,4.05,0,6.02,0c0-1.04,0-1.99,0-2.97C117.01,96.57,115.08,96.57,113.01,96.57z M52.35,71.02c0-1.06,0-2.04,0-3.03
				c-1.02,0-1.97,0-2.94,0c0,1.04,0,2,0,3.03C50.42,71.02,51.37,71.02,52.35,71.02z M27.01,115.64c-1.06,0-1.98,0-2.93,0
				c0,1.02,0,1.96,0,2.89c1.03,0,1.98,0,2.93,0C27.01,117.52,27.01,116.6,27.01,115.64z M24.08,122.02c0,1.05,0,1.96,0,2.87
				c1.03,0,1.97,0,2.92,0c0-1,0-1.92,0-2.87C26,122.02,25.08,122.02,24.08,122.02z M90.72,124.91c1.03,0,1.98,0,2.96,0
				c0-0.98,0-1.9,0-2.86c-1.01,0-1.96,0-2.96,0C90.72,123.01,90.72,123.9,90.72,124.91z M100.26,124.89c0.97,0,1.94,0,2.94,0
				c0-0.98,0-1.88,0-2.83c-1.01,0-1.95,0-2.94,0C100.26,123.04,100.26,123.92,100.26,124.89z M52.35,128.2c0-1.05,0-1.99,0-2.95
				c-1.02,0-1.97,0-2.89,0c0,1.03,0,1.97,0,2.95C50.46,128.2,51.35,128.2,52.35,128.2z M112.7,153.56c0-1.02,0-1.93,0-2.88
				c-1.01,0-1.96,0-2.93,0c0,1,0,1.92,0,2.88C110.76,153.56,111.68,153.56,112.7,153.56z M39.7,99.92c-1.05,0-2,0-2.91,0
				c0,1.02,0,1.94,0,2.89c1.01,0,1.93,0,2.91,0C39.7,101.82,39.7,100.9,39.7,99.92z M33.37,96.62c-1.08,0-2.02,0-2.94,0
				c0,1.04,0,1.99,0,2.91c1.03,0,1.98,0,2.94,0C33.37,98.52,33.37,97.6,33.37,96.62z M81.03,74.39c-1.01,0-1.99,0-2.96,0
				c0,1.01,0,1.93,0,2.84c1.02,0,1.97,0,2.96,0C81.03,76.26,81.03,75.37,81.03,74.39z M87.36,77.58c-1.07,0-2.02,0-2.95,0
				c0,1.04,0,2,0,2.93c1.03,0,1.98,0,2.95,0C87.36,79.5,87.36,78.57,87.36,77.58z M55.6,86.86c0-1.04,0-1.98,0-2.9
				c-1.04,0-1.98,0-2.91,0c0,1.01,0,1.93,0,2.9C53.67,86.86,54.58,86.86,55.6,86.86z M80.99,86.89c0-1.05,0-2,0-2.94
				c-1.03,0-1.97,0-2.89,0c0,1.03,0,1.98,0,2.94C79.09,86.89,79.98,86.89,80.99,86.89z M87.38,83.93c-1.05,0-2,0-2.95,0
				c0,1.02,0,1.96,0,2.89c1.03,0,1.98,0,2.95,0C87.38,85.83,87.38,84.94,87.38,83.93z M23.83,128.16c0-0.96,0-1.91,0-2.91
				c-1,0-1.94,0-2.92,0c0,1,0,1.92,0,2.91C21.86,128.16,22.74,128.16,23.83,128.16z M59,96.37c0.99,0,1.95,0,2.96,0
				c0-0.99,0-1.9,0-2.84c-1.02,0-1.97,0-2.96,0C59,94.47,59,95.33,59,96.37z M39.72,93.54c-1.07,0-2.01,0-2.93,0c0,1,0,1.9,0,2.81
				c1.03,0,1.97,0,2.93,0C39.72,95.37,39.72,94.49,39.72,93.54z M87.63,118.53c0.93,0,1.88,0,2.89,0c0-0.97,0-1.92,0-2.9
				c-1,0-1.91,0-2.89,0C87.63,116.6,87.63,117.52,87.63,118.53z M68.49,163.33c0,1.01,0,1.92,0,2.88c1.01,0,1.96,0,2.93,0
				c0-0.99,0-1.9,0-2.88C70.45,163.33,69.53,163.33,68.49,163.33z M30.23,102.83c0-1.04,0-1.96,0-2.94c-1.01,0-1.96,0-2.9,0
				c0,1.02,0,1.97,0,2.94C28.32,102.83,29.21,102.83,30.23,102.83z M87.63,80.84c0,1.01,0,1.9,0,2.86c0.99,0,1.91,0,2.9,0
				c0-0.96,0-1.88,0-2.86C89.54,80.84,88.62,80.84,87.63,80.84z M36.79,106.13c0,0.97,0,1.9,0,2.85c1.01,0,1.93,0,2.91,0
				c0-0.97,0-1.88,0-2.85C38.74,106.13,37.86,106.13,36.79,106.13z M66.61,118.16c-1.45,0-2.86,0-4.47,0
				C63.2,119.12,66.3,118.93,66.61,118.16z M79.03,118.24c-0.37-0.12-0.77-0.4-1.1-0.33c-0.96,0.2-1.87,0.57-2.86,0.02
				c-0.22-0.12-0.67,0.2-1.02,0.25c-0.28,0.04-0.57-0.04-0.86-0.07C73.61,118.64,76.54,118.85,79.03,118.24z M62.5,119.81
				c0.02,0.13,0.03,0.27,0.05,0.4c1.3-0.13,2.59-0.25,4.11-0.4C65.58,119.15,63.22,119.23,62.5,119.81z M66.68,117.33
				c-0.89-1.08-2.07-0.55-3.11-0.64c-0.42-0.04-0.86,0.21-1.28,0.32c0.03,0.1,0.07,0.21,0.1,0.31
				C63.82,117.33,65.25,117.33,66.68,117.33z"/>
			<path d="M17.62,147.31c7.42,0,14.75,0,22.2,0c0,7.37,0,14.73,0,22.16c-7.39,0-14.75,0-22.2,0
				C17.62,162.1,17.62,154.73,17.62,147.31z M20.9,166.2c5.29,0,10.46,0,15.64,0c0-5.23,0-10.37,0-15.52c-5.26,0-10.43,0-15.64,0
				C20.9,155.89,20.9,161,20.9,166.2z"/>
			<path d="M17.61,86.89c0-7.42,0-14.75,0-22.16c0.29-0.04,0.54-0.1,0.8-0.1c6.8-0.01,13.61,0,20.41-0.02
				c0.75,0,1.13,0.13,1.12,1.01c-0.03,6.84-0.02,13.68-0.02,20.52c0,0.22-0.06,0.45-0.1,0.74C32.44,86.89,25.1,86.89,17.61,86.89z
				 M20.94,67.96c0,5.3,0,10.51,0,15.71c5.26,0,10.44,0,15.62,0c0-5.28,0-10.46,0-15.71C31.35,67.96,26.21,67.96,20.94,67.96z"/>
			<path d="M100.17,64.7c7.4,0,14.73,0,22.15,0c0,7.38,0,14.71,0,22.16c-7.33,0-14.7,0-22.15,0
				C100.17,79.53,100.17,72.19,100.17,64.7z M103.42,83.68c5.27,0,10.44,0,15.6,0c0-5.31,0-10.52,0-15.72c-5.25,0-10.39,0-15.6,0
				C103.42,73.21,103.42,78.39,103.42,83.68z"/>
			<path d="M52.55,156.83c-1.07,0-2.03,0-3.14,0c0-0.96,0-1.92,0-3.03c-0.85,0-1.58-0.04-2.31,0.01c-0.76,0.05-1.03-0.23-1.01-1
				c0.05-1.79,0.01-3.57,0.01-5.49c-1.08,0-2.04,0-3.06,0c0-1.09,0-2.04,0-3.08c1.07,0,2.09,0,3.21,0c0,1,0,1.93,0,2.94
				c2.06,0,4.03,0,6.09,0c0-0.92,0-1.87,0-2.95c-0.94,0-1.9,0-2.92,0c0-1.12,0-2.12,0-3.1c0.09-0.06,0.15-0.15,0.21-0.14
				c0.96,0.04,2.27-0.27,2.78,0.23c0.51,0.51,0.23,1.83,0.31,2.9c2.02,0,4.03,0,6.18,0c0,1.07,0,2.02,0,3.09c1.08,0,2.04,0,3.11,0
				c0,1.14,0,2.17,0,3.29c-1,0-2.03,0-3.18,0c0-1.02,0-2.02,0-3.11c-2.09,0-4.06,0-6.15,0c0,1.01,0,2,0,3.17c-1.14,0-2.16,0-3.25,0
				c0,1.09,0,2,0,3.04c1.04,0,2.04,0,3.12,0C52.55,154.72,52.55,155.71,52.55,156.83z"/>
			<path d="M46.28,159.92c1.07,0,1.99,0,3,0c0,1.11,0,2.14,0,3.31c-0.93,0-1.89,0-2.97,0c0,2.15,0,4.15,0,6.24
				c-1.13,0-2.12,0-3.23,0c0-4.14,0-8.32,0-12.67c0.85,0,1.7-0.05,2.54,0.03c0.24,0.03,0.6,0.44,0.63,0.7
				C46.34,158.27,46.28,159.02,46.28,159.92z"/>
			<path d="M116.04,163.23c2.07,0,4.13,0,6.28,0c0,1.06,0,2.06,0,3.19c-0.95,0-1.91,0-3.01,0c0,1.08,0,2.04,0,3.06
				c-1.14,0-2.13,0-3.25,0c0-2.09,0-4.18,0-6.28C116.06,163.2,116.04,163.23,116.04,163.23z"/>
			<path d="M74.69,64.63c0,2.23,0,4.32,0,6.47c-1.03,0-2.03,0-3.19,0c0-1.99-0.02-3.96,0.03-5.93c0-0.19,0.44-0.5,0.7-0.52
				C72.99,64.59,73.77,64.63,74.69,64.63z"/>
			<path d="M81.16,64.64c0.88,0,1.74-0.04,2.58,0.03c0.22,0.02,0.55,0.4,0.57,0.64c0.07,0.81,0.03,1.62,0.03,2.51
				c-1.09,0-2.08,0-3.17,0C81.16,66.81,81.16,65.79,81.16,64.64z"/>
			<path d="M116.03,159.92c0,1.1,0,2.21,0.01,3.31c0,0,0.02-0.03,0.02-0.03c-1.04,0-2.08,0-3.21,0c0-1.05,0-2.07,0-3.26
				c1.06,0,2.13,0,3.2,0C116.06,159.94,116.03,159.92,116.03,159.92z"/>
			<path d="M49.45,166.39c0.18-0.05,0.25-0.08,0.33-0.09c3.05-0.16,3.14-0.06,2.75,3.16c-0.98,0-1.98,0-3.08,0
				C49.45,168.49,49.45,167.47,49.45,166.39z"/>
			<path d="M103.36,163.21c0,1.01,0,2.02,0,3.23c-0.97,0-1.88,0.04-2.79-0.04c-0.18-0.02-0.44-0.48-0.46-0.75
				c-0.06-0.81-0.02-1.63-0.03-2.45c0,0-0.02,0.02-0.02,0.02c1.11,0,2.21,0,3.32,0L103.36,163.21z"/>
			<path d="M68.37,150.53c0,1.04,0,2.08,0,3.14c-0.22,0.05-0.36,0.11-0.51,0.11c-2.92,0.12-3.09-0.08-2.55-3.24c1,0,2.04,0,3.07,0
				C68.39,150.55,68.37,150.53,68.37,150.53z"/>
			<path d="M46.28,86.92c-1.15,0-2.12,0-3.2,0c0-1,0-1.98,0-3.14c0.88,0,1.76-0.04,2.63,0.03c0.2,0.01,0.52,0.35,0.54,0.56
				C46.31,85.17,46.28,85.98,46.28,86.92z"/>
			<path class="st1" d="M68.37,128.25c0.15-0.68-0.03-0.99-0.79-1.23c-1.25-0.38-2.41-1.04-3.62-1.56c-0.54-0.23-1.1-0.42-1.88-0.71
				c0,2.37,0,4.45,0,6.63c-3.21,0-6.27,0-9.39,0c0-1.02,0-1.99,0-3.08c0.95,0,1.91,0,3,0c0-1.07,0-2.03,0-3.12
				c0.9,0,1.67-0.03,2.44,0.01c0.6,0.03,0.86-0.19,0.83-0.81c-0.03-0.74-0.01-1.48-0.01-2.31c0.58-0.06,1.1-0.12,1.66-0.18
				c-0.27-0.98-0.49-1.91-0.79-2.83c-0.06-0.18-0.4-0.4-0.58-0.38c-0.17,0.01-0.42,0.33-0.44,0.52c-0.05,0.85-0.02,1.71-0.02,2.69
				c-1.03,0-1.99,0-3.08,0c0,1.07,0,2.03,0,3.04c-1.06,0-1.98,0-3.05,0c0-2.05,0-4.09,0-6.22c-1.14,0-2.14,0-3.27,0
				c0,2.05,0,4.1,0,6.24c-2.15,0-4.17,0-6.3,0c0,2.22,0,4.33,0,6.55c2.04,0,4.06,0,6.17,0c0,1.05,0,2,0,3.08c-4.18,0-8.34,0-12.56,0
				c0,1.13,0,2.12,0,3.24c1.02,0,1.98,0,3,0c0,1.08,0,2.04,0,3.06c-2.01,0-3.99,0-6.11,0c0-0.8-0.03-1.56,0.01-2.33
				c0.03-0.67-0.25-0.91-0.9-0.87c-0.73,0.04-1.47,0.01-2.27,0.01c0-0.99,0-1.87,0-2.94c0.8,0,1.6,0.05,2.4-0.03
				c0.27-0.03,0.72-0.39,0.73-0.61c0.06-1.91,0.03-3.81,0.03-5.8c-1.11,0-2.11,0-3.26,0c0,2.05,0,4.09,0,6.21c-2.16,0-4.17,0-6.25,0
				c0-2.05,0-4.07,0-6.22c0.99,0,1.99,0,3.14,0c0-1.09,0-2.04,0-3.11c4.28,0,8.41,0,12.62,0c0-1.11,0-2.1,0-3.24
				c-3.13,0-6.24,0-9.41,0c0-2.16,0-4.17,0-6.33c2.1,0,4.19,0,6.28,0l-0.04-0.04c0,1.01,0,2.02,0,3.2c2.1,0,4.15,0,6.31,0
				c0,1.13,0,2.08,0,2.97c0.19,0.11,0.25,0.18,0.32,0.18c2.99,0.24,2.99,0.24,2.99-2.69c0-1.17,0-2.34,0-3.63c1.03,0,1.99,0,3.07,0
				c0-1.08,0-2.03,0-3.08c2.14,0,4.16,0,6.34,0c0-1.12,0-2.14,0-3.31c1.15,0,2.14,0,3.26,0c0-1.1,0-2.06,0-3.08
				c1.05,0,1.97,0,3.05,0c0,1,0,2,0,3.29c0.74-0.27,1.31-0.37,1.75-0.66c3.9-2.68,8.49-2.66,12.36,0.03
				c0.45,0.31,1.04,0.41,1.37,0.53c0.58,1.19,1.11,2.27,1.53,3.16c-0.22,0.48-0.4,0.86-0.6,1.29c-0.65,0.14-1.37,0.97-2.2,0.09
				c-0.02-0.02-0.28,0.27-0.44,0.29c-0.82,0.09-1.78,0.89-2.32-0.56c-0.14-0.38-0.87-0.54-1.45-0.87c-0.13-0.71,0.82-2.24-0.77-2.22
				c-1.3,0.02-0.5,1.41-0.61,2.24c-0.52-0.14-1-0.28-1.27-0.35c-0.18-0.86-0.32-1.63-0.53-2.38c-0.01-0.05-0.76-0.04-0.8,0.09
				c-0.23,0.6-0.34,1.24-0.45,1.7c-0.44,0.59-0.93,1.04-1.16,1.6c-0.66,1.6-1.63,2.07-3.3,1.46c-0.26-0.09-0.51-0.26-0.77-0.26
				c-2.11-0.03-2.28-0.21-2.31,2.26c0.44,0.08,0.9,0.16,1.36,0.25c0,0.07,0.01,0.15,0.01,0.22c-0.44,0.13-0.89,0.25-1.47,0.42
				c0.57,0.24,0.98,0.41,1.39,0.58c-0.36,0.25-0.72,0.5-1.21,0.83c0.35,0.13,0.64,0.23,0.64,0.23c0.05,0.66-0.05,1.25,0.15,1.71
				c1.95,4.4,6.28,6.34,10.69,5.79c0.35-0.04,0.7-0.04,1.05-0.06c-0.5,0.38-1.01,0.76-1.51,1.15c0.05,0.1,0.09,0.19,0.14,0.29
				C70.31,128.25,69.34,128.25,68.37,128.25z M39.83,131.45c0-1.09,0-2.12,0-3.16c-1.08,0-2.08,0-3.11,0c0,1.09,0,2.11,0,3.16
				C37.8,131.45,38.79,131.45,39.83,131.45z M58.79,112.46c0,0.94-0.03,1.72,0.02,2.49c0.01,0.21,0.21,0.54,0.37,0.57
				c0.18,0.04,0.55-0.15,0.61-0.32c0.31-0.89,0.54-1.81,0.81-2.74C59.97,112.46,59.45,112.46,58.79,112.46z"/>
			<path class="st1" d="M90.72,128.19c-2.1,0-4.21,0-6.46,0c0,2.14,0,4.18,0,6.34c-1.11,0-2.06,0-3.14,0c0,1.07,0,2.02,0,3.14
				c-0.88,0-1.64,0.02-2.41-0.01c-0.64-0.03-0.88,0.21-0.91,0.88c-0.11,2.54-0.13,2.53,2.36,2.58c0.26,0,0.53,0.02,0.83,0.04
				c0,1.07,0,2.07,0,3.07l0.04-0.04c-2.05,0-4.1,0-6.26,0c0-1.15,0-2.11,0-3.2c-1.05,0-2,0-3.08,0c0-2.17,0-4.21,0-6.37
				c-1.11,0-2.11,0-3.32,0c0-1.12,0-2.11,0-3.11c2.09,0,4.19,0,6.31,0c0-1.8,0-3.45,0-5.18c-0.31,0.06-0.53,0.11-0.75,0.16
				c0.93-0.59,1.88-1.16,2.79-1.78c0.32-0.22,0.61-0.53,0.81-0.86c0.49-0.82,0.92-1.68,1.48-2.72c-0.79-0.08-1.44-0.15-2.1-0.22
				c0-0.06,0-0.12,0-0.17c0.85,0,1.69,0,2.54,0c0,0-0.02-0.02-0.02-0.02c-0.07,0.37-0.13,0.74-0.21,1.18c0.62,0,1.19,0,1.92,0
				c0-1.03,0-2.02,0-3.06c2.14,0,4.12,0,6.19,0c0,0.96,0,1.92,0,3.01c-0.95,0-1.94,0-3.03,0c0,1.16,0,2.18,0,3.3
				c2.1,0,4.12,0,6.22,0c0.06,1.08,0.11,2.08,0.17,3.08L90.72,128.19z M77.98,128.26c0,1.16,0,2.2,0,3.18c1.13,0,2.09,0,3.05,0
				c0-1.11,0-2.13,0-3.18C79.96,128.26,78.98,128.26,77.98,128.26z"/>
			<path class="st1" d="M93.69,131.6c1.05,0,2.1,0,3.24,0c0-1.17,0-2.19,0-3.32c-0.96,0-1.92,0-2.98,0c0-1.05,0-2,0-3.03
				c1.98,0,3.99,0,6.1,0c0,2.03,0,4.05,0,6.17c2.18,0,4.27,0,6.5,0c0-3.09,0-6.2,0-9.38c1.07,0,1.99,0,3.06,0c0,2.04,0,4.05,0,6.17
				c1.1,0,2.06,0,3.09,0c0,2.14,0,4.15,0,6.33c-0.95,0-1.94,0-3.02,0c0,1.08,0,2,0,3.09c-1.08,0-2.07,0-3.19,0c0,1.15,0,2.15,0,3.22
				c-2.13,0-4.14,0-6.29,0c0-0.82-0.02-1.59,0.01-2.36c0.02-0.6-0.23-0.85-0.83-0.83c-0.74,0.03-1.47,0.01-2.39,0.01
				c0,1.11,0,2.13,0,3.21c-2.16,0-4.15,0-6.22,0c0-0.96,0-1.91,0-3.02c0.96,0,1.95,0,2.95,0c0-2.2,0-4.25,0-6.3
				C93.72,131.56,93.69,131.6,93.69,131.6z"/>
			<path class="st1" d="M99.94,96.64c2.15,0,4.29,0,6.59,0c0-1.13,0-2.08,0-3.11c1.07,0,1.99,0,3.01,0c0,1.97,0,3.94,0,6.06
				c-0.95,0-1.94,0-3.06,0c0,1.14,0,2.14,0,3.25c-1.08,0-2.04,0-3.1,0c0,1.1,0,2.09,0,3.15c1.03,0,2.03,0,3.17,0c0-1.02,0-1.97,0-3
				c1.06,0,1.98,0,3,0c0,1.99,0,3.95,0,6.08c-1.02,0-2.02,0-3.1,0c0,1.15,0,2.16,0,3.33c-1.07,0-2.06,0-3.16,0c0,1.09,0,2.02,0,3.1
				c-1.1,0-2.09,0-3.16,0c0,2.18,0,4.21,0,6.32c-1.04,0-1.99,0-3.07,0c0-2.03,0-4.08,0-6.26c-1.08,0-2.03,0-3.09,0
				c0-2.14,0-4.15,0-6.25c0.92,0,1.88,0,2.94,0c0,1.01,0,2.01,0,3.1c1.1,0,2.09,0,3.19,0c0-3.12,0-6.26,0-9.5c-0.99,0-1.95,0-3,0
				c0-1.06,0-2.01,0-3.05c0.98,0,1.95,0,3.18,0c-0.12-1.15-0.22-2.19-0.33-3.22C99.96,96.63,99.94,96.64,99.94,96.64z"/>
			<path class="st1" d="M68.39,86.94c1.05,0,2.09,0,3.26,0c0-2.08,0-4.05,0-6.09c1.05,0,1.97,0,3.02,0c0,1.96,0,3.93,0,6.05
				c1.07,0,2.02,0,3.1,0c0,1.13,0,2.13,0,3.25c3.23,0,6.34,0,9.55,0c0,1.07,0,2.02,0,3.05c-5.17,0-10.34,0-15.61,0
				c0-0.96,0-1.88,0-2.94c-1.08,0-2.08,0-3.26,0c0-1.21,0-2.28,0-3.36L68.39,86.94z"/>
			<path class="st1" d="M80.99,144.24c1.05,0,2.1,0,3.34,0c0-0.97,0.04-1.86-0.03-2.73c-0.02-0.21-0.42-0.52-0.67-0.54
				c-0.77-0.07-1.55-0.03-2.41-0.03c0-1.04,0-2,0-3.03c2.04,0,4.05,0,6.18,0c0,2.07,0,4.12,0,6.26c1.08,0,2.05,0,3.15,0
				c0,1.04,0,2,0,3.12c1.12,0,2.11,0,3.14,0c0,2.15,0,4.14,0,6.22c-1.98,0-3.98,0-6.14,0c0-2.05,0-4.1,0-6.32c-2.29,0-4.43,0-6.58,0
				c0,0,0.03,0.03,0.03,0.03c0.01-1.01,0.02-2.01,0.03-3.02C81.03,144.2,80.99,144.24,80.99,144.24z"/>
			<path class="st1" d="M106.36,153.55c-3.09,0-6.13,0-9.25,0c0-3.07,0-6.13,0-9.27c3.06,0,6.12,0,9.25,0
				C106.36,147.34,106.36,150.38,106.36,153.55z M100.19,147.31c0,1.16,0,2.19,0,3.2c1.09,0,2.08,0,3.11,0c0-1.1,0-2.13,0-3.2
				C102.23,147.31,101.24,147.31,100.19,147.31z"/>
			<path class="st1" d="M106.58,115.62c0-1.14,0-2.06,0-3.11c1.06,0,2.02,0,3.08,0c0-1.12,0-2.12,0-3.2c2.12,0,4.13,0,6.24,0
				c0,0.96,0,1.94,0,3.08c-1.03,0-2.03,0-3.13,0c0,1.1,0,2.06,0,3.14c-1.07,0-2.03,0-3.12,0c0,1.07,0,2.03,0,3.07
				c-1.1,0-2.06,0-3.17,0c0,1.12,0,2.14,0,3.24c-1.1,0-2.05,0-3.06,0c0-2.05,0-4.07,0-6.22
				C104.42,115.62,105.41,115.62,106.58,115.62z"/>
			<path class="st1" d="M46.09,99.91c0,2.01,0,3.96,0,6.07c2.11,0,4.15,0,6.26,0c0,1.09,0,2,0,3.03c-0.95,0-1.87,0-2.94,0
				c0,1.13,0,2.16,0,3.27c-1.1,0-2.04,0-3.13,0c0-0.81-0.03-1.59,0.01-2.35c0.03-0.66-0.22-0.93-0.88-0.9
				c-0.74,0.03-1.48,0.01-2.3,0.01c0-3.06,0-6.05,0-9.13C44.03,99.91,44.98,99.91,46.09,99.91z"/>
			<path class="st1" d="M59.05,80.83c0.98,0,1.9,0,2.93,0c0,2,0,3.97,0,6.11c1.09,0,2.08,0,3.12,0c0,2.17,0,4.18,0,6.26
				c-0.97,0-1.89,0-2.95,0c0-0.94,0-1.9,0-2.96c-1.09,0-2.05,0-3.1,0C59.05,87.08,59.05,84.02,59.05,80.83z"/>
			<path class="st1" d="M23.99,99.55c0-1.04,0-1.97,0-3.05c-1.02,0-1.97,0-3.03,0c0-1.06,0-1.97,0-2.97c3.05,0,6.12,0,9.26,0
				c0,0.94,0,1.85,0,2.91c-1.03,0-2.02,0-3.12,0c0,1.1,0,2.06,0,3.1C26.04,99.55,25.09,99.55,23.99,99.55z"/>
			<path class="st1" d="M97.1,163.19c-1.01,0-2.03,0-3.2,0c0-1.05,0-2.08,0-3.2c-1.12,0-2.08,0-3.13,0c0-1.04,0-1.99,0-3.03
				c2,0,4.01,0,6.29,0c0,2.09,0,4.18,0,6.27C97.06,163.22,97.1,163.19,97.1,163.19z"/>
			<path class="st1" d="M36.7,115.61c0-0.97,0-1.95,0-3.02c3.1,0,6.16,0,9.31,0c0,0.91,0,1.85,0,2.97c-3.13,0-6.24,0-9.35,0
				C36.66,115.56,36.7,115.61,36.7,115.61z"/>
			<path d="M73.93,126.49c0.22-0.05,0.44-0.09,0.75-0.16c0,1.72,0,3.38,0,5.18c-2.12,0-4.21,0-6.31,0c0,0,0.02,0.02,0.02,0.02
				c0-1.1,0-2.21,0-3.31c0,0-0.02,0.02-0.02,0.02c0.97,0,1.94,0,2.91,0c-0.05-0.1-0.09-0.19-0.14-0.29c0.5-0.38,1.01-0.76,1.51-1.15
				C73.08,126.71,73.51,126.6,73.93,126.49z"/>
			<path class="st1" d="M103.38,163.23c-1.11,0-2.21,0-3.32,0c0.05-1.63,0.1-3.26,0.14-4.9c0.01-0.46,0-0.92,0-1.42
				c1.07,0,2,0,3.17,0C103.38,159.05,103.38,161.14,103.38,163.23z"/>
			<path class="st1" d="M55.68,74.28c0.97,0,1.94,0,3.01,0c0,2.12,0,4.15,0,6.25c-0.95,0-1.87,0-2.97,0c0-2.11,0-4.2,0-6.29
				C55.72,74.24,55.68,74.28,55.68,74.28z"/>
			<path class="st1" d="M80.99,156.92c2.1,0,4.2,0,6.35,0c0,0.99,0,1.92,0,2.93c-2,0-4.02,0-6.13,0c-0.06-0.97-0.12-1.97-0.19-2.96
				C81.03,156.89,80.99,156.92,80.99,156.92z"/>
			<path class="st1" d="M90.51,166.23c-1,0-1.92,0-2.89,0c0-2.08,0-4.08,0-6.16c0.97,0,1.89,0,2.89,0
				C90.51,162.09,90.51,164.1,90.51,166.23z"/>
			<path class="st1" d="M119.06,102.99c0,2,0,3.93,0,5.96c-0.97,0-1.91,0-2.93,0c0-1.96,0-3.92,0-5.96
				C117.09,102.99,118,102.99,119.06,102.99z"/>
			<path class="st1" d="M93.71,74.37c0,1.01,0,1.89,0,2.87c-2.03,0-4.03,0-6.09,0c0-0.97,0-1.88,0-2.87
				C89.65,74.37,91.62,74.37,93.71,74.37z"/>
			<path class="st1" d="M58.73,103.01c0,0.95,0,1.87,0,2.86c-2,0-3.97,0-6.02,0c0-0.92,0-1.84,0-2.86
				C54.69,103.01,56.68,103.01,58.73,103.01z"/>
			<path class="st1" d="M113.01,96.57c2.06,0,4,0,6.02,0c0,0.98,0,1.93,0,2.97c-1.97,0-3.96,0-6.02,0
				C113.01,98.57,113.01,97.62,113.01,96.57z"/>
			<path class="st1" d="M90.67,131.53c0,2.02,0,4.03,0,6.1c-1.11,0-2,0-3,0c0-1.99,0-3.99,0-6.06c1.03,0,2.04,0,3.04,0
				C90.71,131.57,90.67,131.53,90.67,131.53z"/>
			<path class="st1" d="M90.68,128.23c0.96,0,1.92,0,3.01,0c0,1.17,0,2.27,0,3.37c0,0,0.03-0.04,0.03-0.04
				c-1.02-0.01-2.04-0.02-3.05-0.04c0,0,0.04,0.04,0.04,0.04c0-1.13,0.01-2.25,0.01-3.38C90.72,128.19,90.68,128.23,90.68,128.23z"
				/>
			<path class="st1" d="M68.4,128.23c0,1.1,0,2.21,0,3.31c-0.99,0-1.98,0-3.03,0c0-1.19,0-2.18,0-3.31
				C66.41,128.23,67.4,128.23,68.4,128.23z"/>
			<path class="st1" d="M52.35,71.02c-0.98,0-1.93,0-2.94,0c0-1.03,0-1.99,0-3.03c0.97,0,1.91,0,2.94,0
				C52.35,68.97,52.35,69.96,52.35,71.02z"/>
			<path class="st1" d="M68.43,86.9c-1,0-2,0-3.06,0c0-1.01,0-1.93,0-2.95c0.94,0,1.88,0,3.02,0c0,1,0,1.99,0,2.99
				C68.39,86.94,68.43,86.9,68.43,86.9z"/>
			<path class="st1" d="M27.01,115.64c0,0.97,0,1.89,0,2.89c-0.95,0-1.9,0-2.93,0c0-0.93,0-1.88,0-2.89
				C25.03,115.64,25.95,115.64,27.01,115.64z"/>
			<path class="st1" d="M24.08,122.02c1.01,0,1.92,0,2.92,0c0,0.95,0,1.87,0,2.87c-0.94,0-1.89,0-2.92,0
				C24.08,123.99,24.08,123.07,24.08,122.02z"/>
			<path class="st1" d="M90.72,124.91c0-1.01,0-1.9,0-2.86c0.99,0,1.94,0,2.96,0c0,0.97,0,1.88,0,2.86
				C92.7,124.91,91.76,124.91,90.72,124.91z"/>
			<path class="st1" d="M100.26,124.89c0-0.97,0-1.86,0-2.83c0.99,0,1.93,0,2.94,0c0,0.95,0,1.86,0,2.83
				C102.2,124.89,101.23,124.89,100.26,124.89z"/>
			<path class="st1" d="M52.35,128.2c-1.01,0-1.9,0-2.89,0c0-0.97,0-1.92,0-2.95c0.92,0,1.87,0,2.89,0
				C52.35,126.21,52.35,127.15,52.35,128.2z"/>
			<path class="st1" d="M112.7,153.56c-1.02,0-1.94,0-2.93,0c0-0.96,0-1.88,0-2.88c0.97,0,1.92,0,2.93,0
				C112.7,151.63,112.7,152.54,112.7,153.56z"/>
			<path class="st1" d="M39.7,99.92c0,0.98,0,1.9,0,2.89c-0.98,0-1.9,0-2.91,0c0-0.95,0-1.87,0-2.89
				C37.69,99.92,38.64,99.92,39.7,99.92z"/>
			<path class="st1" d="M55.7,71.16c-0.01,1.04-0.02,2.08-0.02,3.12c0,0,0.04-0.04,0.04-0.04c-0.97,0-1.95,0-3,0
				c0-1.02,0-1.97,0-3.04c1.02,0,2.02,0,3.03,0C55.74,71.21,55.7,71.16,55.7,71.16z"/>
			<path class="st1" d="M33.37,96.62c0,0.98,0,1.9,0,2.91c-0.96,0-1.91,0-2.94,0c0-0.92,0-1.87,0-2.91
				C31.34,96.62,32.29,96.62,33.37,96.62z"/>
			<path class="st1" d="M62.08,102.87c-1,0-2.01,0-3.06,0c0-1.04,0-1.96,0-2.97c0.96,0,1.91,0,3.02,0c0,1.01,0,2.01,0,3.01
				C62.04,102.91,62.08,102.87,62.08,102.87z"/>
			<path class="st1" d="M81.03,74.39c0,0.98,0,1.87,0,2.84c-0.98,0-1.93,0-2.96,0c0-0.92,0-1.84,0-2.84
				C79.05,74.39,80.02,74.39,81.03,74.39z"/>
			<path class="st1" d="M87.36,77.58c0,1,0,1.92,0,2.93c-0.97,0-1.91,0-2.95,0c0-0.93,0-1.89,0-2.93
				C85.35,77.58,86.29,77.58,87.36,77.58z"/>
			<path class="st1" d="M55.6,86.86c-1.02,0-1.93,0-2.91,0c0-0.97,0-1.89,0-2.9c0.93,0,1.87,0,2.91,0
				C55.6,84.87,55.6,85.81,55.6,86.86z"/>
			<path class="st1" d="M80.99,86.89c-1.01,0-1.9,0-2.89,0c0-0.97,0-1.91,0-2.94c0.92,0,1.86,0,2.89,0
				C80.99,84.89,80.99,85.83,80.99,86.89z"/>
			<path class="st1" d="M87.38,83.93c0,1.01,0,1.91,0,2.89c-0.97,0-1.92,0-2.95,0c0-0.93,0-1.87,0-2.89
				C85.38,83.93,86.33,83.93,87.38,83.93z"/>
			<path class="st1" d="M23.83,128.16c-1.09,0-1.97,0-2.92,0c0-0.98,0-1.91,0-2.91c0.97,0,1.92,0,2.92,0
				C23.83,126.25,23.83,127.2,23.83,128.16z"/>
			<path class="st1" d="M59,96.37c0-1.04,0-1.9,0-2.84c0.99,0,1.93,0,2.96,0c0,0.94,0,1.85,0,2.84C60.95,96.37,59.99,96.37,59,96.37
				z"/>
			<path class="st1" d="M39.72,93.54c0,0.95,0,1.84,0,2.81c-0.96,0-1.9,0-2.93,0c0-0.91,0-1.82,0-2.81
				C37.71,93.54,38.65,93.54,39.72,93.54z"/>
			<path class="st1" d="M87.63,118.53c0-1.01,0-1.93,0-2.9c0.98,0,1.89,0,2.89,0c0,0.98,0,1.93,0,2.9
				C89.51,118.53,88.56,118.53,87.63,118.53z"/>
			<path class="st1" d="M68.49,163.33c1.04,0,1.95,0,2.93,0c0,0.98,0,1.89,0,2.88c-0.97,0-1.92,0-2.93,0
				C68.49,165.26,68.49,164.35,68.49,163.33z"/>
			<path class="st1" d="M30.23,102.83c-1.02,0-1.91,0-2.9,0c0-0.97,0-1.91,0-2.94c0.94,0,1.89,0,2.9,0
				C30.23,100.87,30.23,101.79,30.23,102.83z"/>
			<path class="st1" d="M87.63,80.84c0.99,0,1.91,0,2.9,0c0,0.98,0,1.89,0,2.86c-0.99,0-1.91,0-2.9,0
				C87.63,82.74,87.63,81.86,87.63,80.84z"/>
			<path class="st1" d="M36.79,106.13c1.08,0,1.96,0,2.91,0c0,0.97,0,1.88,0,2.85c-0.98,0-1.9,0-2.91,0
				C36.79,108.03,36.79,107.09,36.79,106.13z"/>
			<path class="st1" d="M66.61,118.16c-0.32,0.77-3.41,0.97-4.47,0C63.75,118.16,65.16,118.16,66.61,118.16z"/>
			<path class="st1" d="M79.77,118.72c0.1-1.06,0.21-2.12,0.31-3.21c0.21,0.03,0.55,0.07,0.94,0.11c0,0.98,0,1.94,0,2.94
				c-0.45,0.05-0.86,0.09-1.27,0.13L79.77,118.72z"/>
			<path class="st1" d="M79.03,118.24c-2.49,0.6-5.42,0.4-5.84-0.13c0.29,0.03,0.58,0.1,0.86,0.07c0.35-0.05,0.8-0.37,1.02-0.25
				c0.99,0.55,1.9,0.19,2.86-0.02C78.26,117.85,78.66,118.12,79.03,118.24z"/>
			<path class="st1" d="M62.5,119.81c0.72-0.58,3.08-0.66,4.16,0c-1.52,0.15-2.82,0.27-4.11,0.4
				C62.53,120.08,62.52,119.94,62.5,119.81z"/>
			<path class="st1" d="M66.68,117.33c-1.43,0-2.86,0-4.3,0c-0.03-0.1-0.07-0.21-0.1-0.31c0.43-0.12,0.87-0.36,1.28-0.32
				C64.62,116.78,65.79,116.25,66.68,117.33z"/>
			<path class="st1" d="M79.75,118.7c-0.11,0.67-0.23,1.35-0.34,2.02c0,0,0.02,0.02,0.02,0.02c-0.28-0.51-0.56-1.01-0.8-1.45
				c0.37-0.18,0.76-0.37,1.14-0.57C79.77,118.72,79.75,118.7,79.75,118.7z"/>
			<path class="st1" d="M20.9,166.2c0-5.2,0-10.32,0-15.52c5.21,0,10.38,0,15.64,0c0,5.15,0,10.29,0,15.52
				C31.36,166.2,26.19,166.2,20.9,166.2z M23.99,163.27c3.04,0,5.93,0.02,8.81-0.03c0.26,0,0.74-0.45,0.75-0.69
				c0.05-2.73,0.05-5.46,0.01-8.19c0-0.25-0.4-0.7-0.62-0.71c-2.95-0.05-5.91-0.03-8.94-0.03
				C23.99,156.86,23.99,159.99,23.99,163.27z"/>
			<path class="st1" d="M20.94,67.96c5.27,0,10.41,0,15.62,0c0,5.25,0,10.43,0,15.71c-5.19,0-10.36,0-15.62,0
				C20.94,78.47,20.94,73.26,20.94,67.96z M23.99,80.78c3.03,0,5.99,0.02,8.95-0.04c0.22,0,0.6-0.55,0.61-0.84
				c0.05-2.66,0.01-5.31,0.04-7.97c0.01-0.68-0.26-0.87-0.9-0.85c-1.21,0.04-2.42,0.01-3.63,0.01c-1.67,0-3.33,0-5.06,0
				C23.99,74.39,23.99,77.53,23.99,80.78z"/>
			<path class="st1" d="M103.42,83.68c0-5.29,0-10.47,0-15.72c5.21,0,10.35,0,15.6,0c0,5.2,0,10.41,0,15.72
				C113.86,83.68,108.69,83.68,103.42,83.68z M106.5,80.68c3.21,0,6.35,0,9.49,0c0-3.22,0-6.33,0-9.49c-3.21,0-6.34,0-9.49,0
				C106.5,74.42,106.5,77.53,106.5,80.68z"/>
			<path d="M39.83,131.45c-1.04,0-2.03,0-3.11,0c0-1.05,0-2.07,0-3.16c1.03,0,2.03,0,3.11,0C39.83,129.34,39.83,130.36,39.83,131.45
				z"/>
			<path d="M58.79,112.46c0.66,0,1.18,0,1.81,0c-0.27,0.93-0.5,1.85-0.81,2.74c-0.06,0.17-0.43,0.36-0.61,0.32
				c-0.16-0.03-0.36-0.36-0.37-0.57C58.76,114.18,58.79,113.4,58.79,112.46z"/>
			<path d="M77.98,128.26c1,0,1.97,0,3.05,0c0,1.05,0,2.08,0,3.18c-0.96,0-1.92,0-3.05,0C77.98,130.46,77.98,129.42,77.98,128.26z"
				/>
			<path d="M100.19,147.31c1.05,0,2.04,0,3.11,0c0,1.07,0,2.1,0,3.2c-1.02,0-2.02,0-3.11,0
				C100.19,149.5,100.19,148.48,100.19,147.31z"/>
			<path d="M23.99,163.27c0-3.27,0-6.41,0-9.65c3.03,0,5.98-0.02,8.94,0.03c0.22,0,0.62,0.46,0.62,0.71
				c0.05,2.73,0.05,5.46-0.01,8.19c0,0.25-0.48,0.69-0.75,0.69C29.91,163.28,27.03,163.27,23.99,163.27z"/>
			<path d="M23.99,80.78c0-3.25,0-6.39,0-9.69c1.73,0,3.4,0,5.06,0c1.21,0,2.42,0.03,3.63-0.01c0.65-0.02,0.91,0.17,0.9,0.85
				c-0.03,2.66,0.01,5.31-0.04,7.97c-0.01,0.3-0.39,0.84-0.61,0.84C29.99,80.8,27.03,80.78,23.99,80.78z"/>
			<path d="M106.5,80.68c0-3.16,0-6.27,0-9.49c3.15,0,6.28,0,9.49,0c0,3.16,0,6.27,0,9.49C112.85,80.68,109.71,80.68,106.5,80.68z"
				/>
		</g>
		<g>
			<circle class="st1" cx="69.93" cy="117.05" r="10.7"/>
			<g>
				<g>
					<path class="st11" d="M71.97,124.59c-0.14-0.03-0.28-0.05-0.42-0.08c-0.04-0.01-0.08-0.02-0.16-0.04
						c0.08-0.03,0.13-0.04,0.18-0.06c1.25-0.48,2.05-1.36,2.39-2.66c0.36-1.39,0.74-2.78,1.11-4.17c0.09-0.34,0.2-0.67,0.24-1.01
						c0.13-0.99-0.33-2-1.2-2.42c-0.28-0.14-0.58-0.23-0.88-0.32c-0.33-0.11-0.65-0.24-0.96-0.4c-0.24-0.13-0.51-0.21-0.76-0.32
						c0.24-0.06,0.49-0.1,0.74-0.05c0.43,0.09,0.85,0.2,1.27,0.3c0.34,0.09,0.68,0.16,1,0.33c0.79,0.43,1.25,1.11,1.46,1.97
						c0.15,0.59,0.1,1.17-0.03,1.76c-0.32,1.49-0.63,2.99-0.94,4.48c-0.12,0.56-0.28,1.1-0.64,1.56c-0.48,0.63-1.11,1.02-1.91,1.11
						c-0.02,0-0.04,0.01-0.06,0.02C72.27,124.59,72.12,124.59,71.97,124.59z"/>
					<path class="st11" d="M68.99,121.68c0.02,0.1,0.03,0.19,0.05,0.29c0.03,0.15,0.02,0.3-0.03,0.45c-0.1,0.29-0.12,0.59-0.01,0.88
						c0.07,0.17,0.18,0.31,0.27,0.47c-0.13-0.08-0.27-0.15-0.41-0.24c-0.32-0.2-0.59-0.45-0.81-0.76c-0.41-0.56-0.51-1.18-0.31-1.83
						c0.08-0.27,0.19-0.54,0.34-0.77c0.22-0.35,0.31-0.71,0.28-1.11c-0.02-0.2-0.06-0.4-0.09-0.61c0-0.03-0.01-0.05-0.01-0.08
						c0.01-0.01,0.02-0.01,0.03-0.02c0.03,0.04,0.07,0.08,0.1,0.13c0.27,0.32,0.5,0.67,0.53,1.11c0.01,0.17-0.03,0.35-0.05,0.52
						c-0.01,0.06-0.03,0.13-0.03,0.19c0,0.11,0.08,0.16,0.17,0.11c0.07-0.03,0.13-0.07,0.19-0.12c0.29-0.28,0.41-0.64,0.46-1.02
						c0.08-0.58-0.07-1.13-0.3-1.66c-0.1-0.25-0.19-0.5-0.19-0.77c0-0.35,0.17-0.71,0.44-0.93c0,0.12-0.01,0.23,0,0.33
						c0.03,0.51,0.12,1,0.38,1.45c0.08,0.14,0.19,0.26,0.29,0.39c0.02,0.02,0.04,0.04,0.07,0.06c0.16,0.12,0.29,0.08,0.34-0.11
						c0.05-0.21,0.03-0.43-0.03-0.64c-0.01-0.05-0.03-0.09-0.03-0.15c0.04,0.04,0.09,0.08,0.13,0.12c0.26,0.27,0.36,0.59,0.35,0.96
						c-0.01,0.31-0.11,0.6-0.22,0.88c-0.07,0.17-0.11,0.35-0.16,0.53c-0.01,0.05,0.01,0.14,0.05,0.15c0.04,0.02,0.12-0.01,0.16-0.04
						c0.29-0.19,0.45-0.47,0.51-0.8c0.06-0.32,0.21-0.59,0.44-0.81c0.02-0.02,0.03-0.03,0.05-0.05c0.01-0.01,0.02-0.01,0.05-0.03
						c-0.03,0.15-0.07,0.29-0.1,0.42c-0.13,0.69-0.01,1.34,0.35,1.95c0.35,0.6,0.32,1.21,0.07,1.82c-0.2,0.5-0.52,0.92-0.97,1.22
						c-0.17,0.11-0.35,0.18-0.57,0.22c0.05-0.04,0.08-0.06,0.11-0.09c0.25-0.19,0.36-0.45,0.34-0.76c-0.02-0.23-0.07-0.45-0.18-0.66
						c-0.1-0.18-0.13-0.38-0.03-0.58c-0.01-0.01-0.01-0.01-0.02-0.02c-0.05,0.04-0.13,0.07-0.15,0.13
						c-0.05,0.12-0.07,0.25-0.11,0.38c-0.02,0.06-0.05,0.12-0.08,0.17c-0.05-0.05-0.12-0.08-0.15-0.14
						c-0.08-0.15-0.03-0.31,0.04-0.45c0.03-0.08,0.07-0.15,0.1-0.24c0.04-0.14,0.02-0.28-0.05-0.42c-0.03,0.09-0.05,0.16-0.08,0.23
						c-0.03,0.07-0.09,0.12-0.15,0.18c0.05-0.23-0.03-0.43-0.11-0.63c-0.07-0.19-0.02-0.38,0.04-0.56c0.01-0.04,0.03-0.08,0.06-0.15
						c-0.16,0.09-0.25,0.22-0.32,0.35c-0.18,0.34-0.19,0.71-0.13,1.08c0.01,0.09,0.03,0.18,0.03,0.26c0,0.03-0.04,0.06-0.06,0.09
						c-0.02-0.03-0.07-0.05-0.07-0.08c-0.03-0.2-0.05-0.4-0.15-0.58c-0.02-0.03-0.03-0.06-0.07-0.12c-0.01,0.13,0,0.23-0.02,0.33
						c-0.02,0.12-0.05,0.24-0.09,0.35c-0.05,0.12-0.04,0.23-0.02,0.35c0.01,0.06,0.01,0.13,0.02,0.19c-0.13,0.03-0.2-0.03-0.22-0.16
						C69.19,121.98,69.15,121.87,68.99,121.68z"/>
					<path class="st11" d="M68.02,124.52c-0.53,0.07-1.01,0-1.46-0.22c-0.82-0.4-1.32-1.07-1.56-1.93
						c-0.18-0.66-0.31-1.34-0.45-2.01c-0.23-1.07-0.46-2.13-0.67-3.2c-0.21-1.08,0-2.05,0.74-2.89c0.33-0.37,0.74-0.63,1.22-0.76
						c0.5-0.14,1-0.28,1.5-0.41c0.28-0.07,0.57-0.06,0.88-0.02c-0.08,0.03-0.14,0.05-0.19,0.07c-0.22,0.09-0.45,0.16-0.66,0.28
						c-0.41,0.25-0.86,0.39-1.31,0.54c-0.86,0.28-1.34,0.89-1.55,1.75c-0.1,0.43-0.07,0.87,0.05,1.29c0.23,0.87,0.47,1.73,0.69,2.61
						c0.07,0.28,0.09,0.58,0.14,0.87c0.15,0.91,0.4,1.78,0.9,2.57c0.41,0.65,0.95,1.14,1.68,1.43
						C67.97,124.5,67.98,124.5,68.02,124.52z"/>
					<path class="st11" d="M69.59,124.33c-0.5,0-1-0.02-1.48-0.17c-0.58-0.18-0.99-0.54-1.24-1.09c-0.3-0.65-0.5-1.32-0.7-2
						c-0.27-0.91-0.49-1.84-0.65-2.77c-0.1-0.62-0.16-1.24-0.18-1.87c-0.02-0.87,0.35-1.51,1.08-1.95c0.76-0.46,1.6-0.7,2.48-0.79
						c0.07-0.01,0.14,0,0.21,0c0.02,0,0.03,0.01,0.08,0.02c-0.06,0.02-0.09,0.04-0.13,0.05c-0.56,0.21-1.13,0.41-1.65,0.71
						c-0.35,0.2-0.66,0.45-0.87,0.8c-0.22,0.37-0.29,0.79-0.3,1.22c-0.02,0.68,0.08,1.35,0.19,2.02c0.17,1.01,0.36,2.01,0.65,2.99
						c0.15,0.52,0.34,1.03,0.59,1.51c0.36,0.68,0.9,1.11,1.66,1.26C69.42,124.28,69.51,124.31,69.59,124.33z"/>
					<path class="st11" d="M70.46,113.78c1.29-0.14,2.46,0.14,3.47,0.98c0.41,0.34,0.6,0.8,0.62,1.33c0.04,1-0.09,1.97-0.29,2.94
						c-0.2,0.96-0.46,1.9-0.81,2.82c-0.23,0.61-0.57,1.16-0.95,1.69c-0.3,0.41-0.71,0.66-1.21,0.73c-0.3,0.05-0.6,0.06-0.89,0.09
						c0-0.01-0.01-0.03-0.01-0.04c0.09-0.03,0.17-0.07,0.26-0.1c0.18-0.06,0.37-0.12,0.55-0.19c0.52-0.2,0.88-0.58,1.17-1.04
						c0.36-0.57,0.6-1.2,0.77-1.85c0.21-0.83,0.4-1.66,0.57-2.5c0.11-0.53,0.2-1.06,0.28-1.6c0.06-0.38,0.07-0.76,0-1.14
						c-0.11-0.59-0.44-1-0.96-1.27c-0.54-0.28-1.12-0.45-1.71-0.61c-0.27-0.07-0.54-0.14-0.81-0.21c-0.02,0-0.03-0.01-0.04-0.02
						C70.46,113.8,70.46,113.79,70.46,113.78z"/>
					<path class="st12" d="M69.96,112.76c-0.01,0.05-0.02,0.08-0.08,0.09"/>
					<path class="st12" d="M69.96,112.88c0,0-0.08-0.02-0.08-0.02c-0.35,0.05-0.7,0.11-1.06,0.17c-0.01,0-0.02,0-0.03,0
						c-0.01-0.01-0.02-0.02-0.03-0.03c0.19-0.32,0.37-0.66,0.58-0.97c0.59-0.87,1.32-1.58,2.25-2.07c0.36-0.19,0.74-0.34,1.13-0.44
						c0.06-0.01,0.09,0,0.12,0.04c0.28,0.38,0.21,0.85-0.17,1.12c-0.03,0.02-0.08,0.04-0.12,0.04c-0.65,0.09-1.27,0.28-1.8,0.69
						c-0.44,0.34-0.71,0.78-0.79,1.34"/>
				</g>
				<path class="st13" d="M71.03,113.08c0,0-0.22-0.24-1.07-0.21c-0.19-0.6,0.75-2.03,2.64-2.15c-1.62,0.62-1.9,1.57-1.57,2.39"/>
			</g>
		</g>
	</g>
	<g>
		<text transform="matrix(1 0 0 1 5.9708 216.3265)" class="st20 st21">TRAN HUU LANH</text>
		<text transform="matrix(1 0 0 1 32.6935 191.2036)" class="st20 st22">0868 614 214</text>
		<g>
			<path class="st17" d="M90.19,4.74H48.83c-1.78,0-3.23,1.45-3.23,3.23v41.36c0,1.78,1.45,3.23,3.23,3.23h41.36
				c1.78,0,3.23-1.45,3.23-3.23V7.97C93.42,6.19,91.97,4.74,90.19,4.74z"/>
			<g>
				<path class="st1" d="M78.69,27.2c3.8,0,6.87-3.07,6.87-6.87s-3.07-6.87-6.87-6.87s-6.87,3.07-6.87,6.87S74.89,27.2,78.69,27.2z
					 M78.69,17.41c1.62,0,2.92,1.31,2.92,2.92s-1.31,2.92-2.92,2.92s-2.92-1.31-2.92-2.92S77.07,17.41,78.69,17.41z"/>
				<path class="st1" d="M78.69,30.17c-3.8,0-6.87,3.07-6.87,6.87s3.07,6.87,6.87,6.87s6.87-3.07,6.87-6.87S82.48,30.17,78.69,30.17
					z M78.69,39.96c-1.62,0-2.92-1.31-2.92-2.92s1.31-2.92,2.92-2.92s2.92,1.31,2.92,2.92S80.3,39.96,78.69,39.96z"/>
				<path class="st1" d="M64.7,30.17c-1.16,0-2.23,0.39-3.09,1.03c-0.86-0.65-1.94-1.03-3.09-1.03c-2.84,0-5.15,2.31-5.15,5.15v8.59
					h3.94v-8.64c0-0.65,0.52-1.16,1.16-1.16c0.65,0,1.16,0.52,1.16,1.16v8.63h3.94v-8.63c0-0.65,0.52-1.16,1.16-1.16
					c0.65,0,1.16,0.52,1.16,1.16v8.63h3.93v-8.59C69.83,32.48,67.54,30.17,64.7,30.17z"/>
				<path class="st1" d="M64.7,13.46c-1.16,0-2.23,0.39-3.09,1.03c-0.86-0.65-1.94-1.03-3.09-1.03c-2.86,0-5.17,2.31-5.17,5.15v8.58
					h3.94v-8.63c0-0.65,0.52-1.16,1.16-1.16c0.65,0,1.16,0.52,1.16,1.16v8.63h3.94v-8.63c0-0.65,0.52-1.16,1.16-1.16
					s1.16,0.52,1.16,1.16v8.63h3.94v-8.58C69.83,15.77,67.54,13.46,64.7,13.46z"/>
			</g>
		</g>
	</g>
</g>
</svg>
