<svg xmlns="http://www.w3.org/2000/svg" viewBox="0 0 102.05 59.53"><defs><style>.cls-1{isolation:isolate;}.cls-2{fill:#e12228;}.cls-3{fill:none;stroke:#e12228;stroke-miterlimit:10;}.cls-4{fill:#010101;mix-blend-mode:multiply;opacity:0.2;}.cls-5{fill:#fff;}</style></defs><g class="cls-1"><g id="Layer_1" data-name="Layer 1"><path class="cls-2" d="M11.3,27.61V19.49H9.61V17.26h4.33V27.61Z"/><path class="cls-2" d="M25,23.88a4.33,4.33,0,0,1-.5,2.11,3.43,3.43,0,0,1-1.61,1.44,4,4,0,0,1-1.71.38,4.12,4.12,0,0,1-1.57-.32,3.59,3.59,0,0,1-2.33-3.61V21a3.55,3.55,0,0,1,2.34-3.62,4.21,4.21,0,0,1,1.56-.31,3.92,3.92,0,0,1,1.59.34A3.57,3.57,0,0,1,25,21Zm-2.64-2.95a1.9,1.9,0,0,0-.25-1.07,1.08,1.08,0,0,0-1-.47,1.09,1.09,0,0,0-.95.47,2,2,0,0,0-.26,1.07v3A2,2,0,0,0,20.16,25a1.22,1.22,0,0,0,1.92,0A2,2,0,0,0,22.33,24Z"/><path class="cls-2" d="M33.61,23.88A4.23,4.23,0,0,1,33.1,26a3.41,3.41,0,0,1-1.6,1.44,4,4,0,0,1-1.71.38,4.17,4.17,0,0,1-1.58-.32,3.59,3.59,0,0,1-2.32-3.61V21a3.55,3.55,0,0,1,2.34-3.62,4.21,4.21,0,0,1,1.56-.31,4,4,0,0,1,1.59.34A3.58,3.58,0,0,1,33.61,21ZM31,20.93a2,2,0,0,0-.25-1.07,1.08,1.08,0,0,0-1-.47,1.09,1.09,0,0,0-.95.47,1.91,1.91,0,0,0-.27,1.07v3A1.91,1.91,0,0,0,28.8,25a1.22,1.22,0,0,0,1.92,0A2.05,2.05,0,0,0,31,24Z"/><path class="cls-2" d="M38.87,21.37a2.52,2.52,0,1,1-1.78-4.31,2.39,2.39,0,0,1,1.78.74,2.55,2.55,0,0,1,0,3.57Zm-1.78-2.76a.86.86,0,0,0-1,1,1,1,0,1,0,1.93,0A.85.85,0,0,0,37.09,18.61Zm1.61,9H37.09l4.28-10.35H43Zm6.12-.54a2.52,2.52,0,1,1-3.56-3.57,2.52,2.52,0,1,1,3.56,3.57Zm-1.77-2.75a1,1,0,1,0,1,1A.86.86,0,0,0,43.05,24.32Z"/><path class="cls-2" d="M62.33,27.8l-.65,0a4.49,4.49,0,0,1-1.3-.18A2.39,2.39,0,0,1,59.25,27a5.41,5.41,0,0,1-2.91.82,5.35,5.35,0,0,1-3.84-1.54,5,5,0,0,1-1.63-3.8,5.25,5.25,0,0,1,1.58-3.85,5.31,5.31,0,0,1,3.86-1.57,5.47,5.47,0,0,1,3.87,1.51,5,5,0,0,1,1.66,3.78,5.25,5.25,0,0,1-.86,3,1.53,1.53,0,0,0,1.35.34Zm-3.94-7.57a2.74,2.74,0,0,0-2.06-.84,2.61,2.61,0,0,0-1.9.76,3.33,3.33,0,0,0-.9,1.86,4.1,4.1,0,0,1,.71-.25,2.76,2.76,0,0,1,.75-.1,4.06,4.06,0,0,1,2.16.66,6.64,6.64,0,0,1,1.69,1.52,3.05,3.05,0,0,0,.35-1.52A2.86,2.86,0,0,0,58.39,20.23ZM56.93,24.6a4.08,4.08,0,0,0-.62-.53,2.82,2.82,0,0,0-1.6-.49,2.68,2.68,0,0,0-.92.18,2.56,2.56,0,0,0,2.52,1.74,2.42,2.42,0,0,0,1.2-.26A6.59,6.59,0,0,0,56.93,24.6Z"/><path class="cls-2" d="M71.34,23.52a6.67,6.67,0,0,1-.18,1.71,3.32,3.32,0,0,1-.85,1.46,3.86,3.86,0,0,1-2.9,1.12,4.9,4.9,0,0,1-1.61-.25,3.36,3.36,0,0,1-1.36-.85,3.58,3.58,0,0,1-.88-1.48,4.46,4.46,0,0,1-.13-.8c0-.24,0-.54,0-.91V17.26H66v6.26a6.64,6.64,0,0,0,0,.7,2.19,2.19,0,0,0,.19.64,1.14,1.14,0,0,0,1.12.63,1.12,1.12,0,0,0,1.12-.62,2.41,2.41,0,0,0,.16-.63,6.83,6.83,0,0,0,0-.72V17.26h2.64Z"/><path class="cls-2" d="M79.09,27.61l-.5-1.49H75l-.54,1.49H71.61l4.15-10.35h2.08L82,27.61Zm-2.27-7.12h0L75.72,24h2.17Z"/><path class="cls-2" d="M24.89,47a4,4,0,0,1-2.57.78A4,4,0,0,1,19.67,47a3,3,0,0,1-1.09-2.47v-.33h2.63a1.8,1.8,0,0,0,.25,1,.94.94,0,0,0,.83.45.88.88,0,0,0,1-1,.9.9,0,0,0-.34-.73,1.89,1.89,0,0,0-.36-.22l-.2-.09-1.12-.49a6.78,6.78,0,0,1-1-.47,4.31,4.31,0,0,1-.8-.61,2.56,2.56,0,0,1-.76-1.88,2.69,2.69,0,0,1,1.15-2.25,4,4,0,0,1,2.47-.8,4.2,4.2,0,0,1,1.53.29,3,3,0,0,1,1.27.89,3.29,3.29,0,0,1,.68,2H23.23c-.1-.68-.42-1-.95-1s-.91.27-.91.81a.88.88,0,0,0,.09.44,2.66,2.66,0,0,0,.95.65l1.1.49a8.91,8.91,0,0,1,.95.5,3.83,3.83,0,0,1,.77.61,2.61,2.61,0,0,1,.69,1.86A2.9,2.9,0,0,1,24.89,47Z"/><path class="cls-2" d="M36.34,38.91a5.4,5.4,0,0,1-.3,7.37,5.61,5.61,0,0,1-7.68,0,4.91,4.91,0,0,1-1.63-3.73,6,6,0,0,1,.4-2.21,5.1,5.1,0,0,1,.67-1.17,5.23,5.23,0,0,1,4.38-2.12,5.4,5.4,0,0,1,3.36,1.1l.14-.05a1.1,1.1,0,0,0,.71-1h-.54V35.54h1.56v1.61a2.11,2.11,0,0,1-.65,1.47A2.64,2.64,0,0,1,36.34,38.91Zm-2.11,1.41a2.56,2.56,0,0,0-2-.93,2.63,2.63,0,0,0-2,.9,3.07,3.07,0,0,0-.78,2.12,3.15,3.15,0,0,0,.78,2.16,2.65,2.65,0,0,0,2.08.92,2.56,2.56,0,0,0,2-.93,3.29,3.29,0,0,0,0-4.24Z"/><path class="cls-2" d="M53.65,43.74a5.17,5.17,0,0,1-1.9,2.95,5.25,5.25,0,0,1-3.33,1.12,5.32,5.32,0,0,1-3.85-1.55,5.4,5.4,0,0,1,0-7.65,5.28,5.28,0,0,1,3.85-1.54A5.15,5.15,0,0,1,53,39.5a4.33,4.33,0,0,1,.7,1.7H50.88a2.5,2.5,0,0,0-2.5-1.81,2.58,2.58,0,0,0-2,.91,3.09,3.09,0,0,0-.76,2.11,3.17,3.17,0,0,0,.76,2.14,2.54,2.54,0,0,0,2,.94,2.61,2.61,0,0,0,2.48-1.75Z"/><path class="cls-2" d="M61.05,47.61V43.48H57.66v4.13H55V37.26h2.64v3.89h3.39V37.26h2.64V47.61Z"/><path class="cls-2" d="M69,36.35l-.64-.8-.64.8H65.49L67.67,34h1.52l2.09,2.32ZM65.56,47.61V37.26h5.75v2.32H68.09V41.2h3.12v2.32H68.09v1.77h3.22v2.32ZM71,35.18l-.66-1.37L73.65,32l.74,1.66Z"/><rect class="cls-3" x="1.41" y="8.39" width="90.19" height="49.07" rx="4.51"/><path class="cls-4" d="M101.06,4.42c-.22-.7-1-1.18-2.31-1.42a3.54,3.54,0,0,0-2.85.44c-3.71,3.19-6.73,8.21-9.28,12.86l-1.43-4.22c-.09-.3-.33-1-2.37-1.27-.72-.09-2-.18-2.61.38A1.83,1.83,0,0,0,79.86,13L83.42,23.6c.16.46.5.92,1.93,1.19.19,0,.46.08.75.11.93.09,2.15.05,2.56-.69s.88-1.63,1.31-2.43c3.19-5.93,6.49-12.07,10.73-15.73A1.6,1.6,0,0,0,101.06,4.42Z"/><path class="cls-5" d="M100.3,2.79c-.24-.68-1-1.08-2.35-1.2a3.7,3.7,0,0,0-2.83.73c-3.58,3.56-6.41,8.88-8.8,13.77L84.75,12c-.11-.28-.37-.95-2.42-1a3.74,3.74,0,0,0-2.59.63,1.89,1.89,0,0,0-.28,1.88L83.4,23.7c.17.44.53.87,2,1,.2,0,.47,0,.77,0,.92,0,2.14-.16,2.52-.94s.82-1.71,1.22-2.55c3-6.25,6-12.7,10.14-16.78A1.64,1.64,0,0,0,100.3,2.79Z"/><path class="cls-2" d="M95.43,3.18c-3.67,3.64-6.5,9.08-9.16,14.62-.68-1.75-1.35-3.5-2-5.24-.3-.78-4.77-.88-4.27.42q2,5.09,3.94,10.18c.28.74,3.9.76,4.27,0C91.59,16.09,94.94,8.33,99.7,3.59,100.48,2.82,96.65,2,95.43,3.18Z"/></g></g></svg>