<svg xmlns="http://www.w3.org/2000/svg" viewBox="0 0 102.05 59.53"><defs><style>.cls-1{isolation:isolate;}.cls-2{fill:#e12228;}.cls-3{fill:none;stroke:#e12228;stroke-miterlimit:10;}.cls-4{fill:#010101;mix-blend-mode:multiply;opacity:0.2;}.cls-5{fill:#fff;}</style></defs><g class="cls-1"><g id="Layer_1" data-name="Layer 1"><path class="cls-2" d="M34.07,23.48A5.38,5.38,0,0,1,28.55,29a5.35,5.35,0,0,1-3.89-1.56,5.22,5.22,0,0,1-1.61-3.87,5.08,5.08,0,0,1,1.63-3.83,5.75,5.75,0,0,1,7.1-.49,4.78,4.78,0,0,1,2,2.66h-3a2.44,2.44,0,0,0-2.28-1.34,2.62,2.62,0,0,0-2.05.89,3,3,0,0,0-.78,2.11,3.26,3.26,0,0,0,.76,2.19,2.66,2.66,0,0,0,2.09.92,2.94,2.94,0,0,0,1.54-.4A2.16,2.16,0,0,0,31,25H27.92V22.93h6.14c0,.09,0,.18,0,.28Z"/><path class="cls-2" d="M35.44,28.82V18.47h2.64V28.82Z"/><path class="cls-2" d="M46.62,28.82l-.5-1.5H42.53L42,28.82H39.14l4.15-10.35h2.08l4.12,10.35ZM43.21,18l-.66-1.37,3.36-1.81.74,1.66Zm1.15,3.72h0l-1.07,3.54h2.17Z"/><path class="cls-2" d="M59.81,28.82l-2.38-3.34h0v3.34H54.86V18.47h3.28c.34,0,.62,0,.83,0a4.9,4.9,0,0,1,.83.09,3.14,3.14,0,0,1,1.52.63A3.42,3.42,0,0,1,62.6,22a3.4,3.4,0,0,1-.67,2.12A2.87,2.87,0,0,1,60,25.3l2.8,3.52Zm-.25-7.71a2.05,2.05,0,0,0-1.2-.32h-1v2.88h.93c1.16,0,1.74-.49,1.74-1.48A1.23,1.23,0,0,0,59.56,21.11Z"/><path class="cls-2" d="M64,28.82V18.47h5.75v2.32H66.53V22.4h3.11v2.32H66.53V26.5h3.21v2.32Zm4.53-12.43-.2.26c-.07.07-.14.15-.24.24l-.23.22a2.06,2.06,0,0,0-.21.21.8.8,0,0,0-.23.46H66.22a1.21,1.21,0,0,1,.19-.61c0-.08.12-.16.19-.25l.21-.22.22-.21.19-.21a.75.75,0,0,0,.17-.45q0-.42-.39-.42a.41.41,0,0,0-.39.2,1,1,0,0,0-.08.45H65.28a.18.18,0,0,0,0-.06v-.06a1.6,1.6,0,0,1,.53-1.23,1.81,1.81,0,0,1,1.27-.47,1.51,1.51,0,0,1,1.47.82,1.35,1.35,0,0,1,.17.63A1.44,1.44,0,0,1,68.52,16.39Z"/><path class="cls-2" d="M17.75,48.82V44.68H14.37v4.14H11.72V38.47h2.65v3.89h3.38V38.47H20.4V48.82Z"/><path class="cls-2" d="M31.42,40.12a5.08,5.08,0,0,1,1.32,3.52,5.15,5.15,0,0,1-1.61,3.84,5.61,5.61,0,0,1-7.69,0,5,5,0,0,1-1.62-3.74,6,6,0,0,1,.4-2.21,4.71,4.71,0,0,1,.67-1.16,5.21,5.21,0,0,1,4.38-2.12,5.34,5.34,0,0,1,3.36,1.1l.14-.06a1.1,1.1,0,0,0,.71-1h-.55V36.75H32.5v1.6a2.2,2.2,0,0,1-.65,1.48A3,3,0,0,1,31.42,40.12Zm-2.1,1.41a2.73,2.73,0,0,0-4.08,0,3.05,3.05,0,0,0-.78,2.12,3.11,3.11,0,0,0,.78,2.15,2.61,2.61,0,0,0,2.07.92,2.56,2.56,0,0,0,2-.92,3.11,3.11,0,0,0,.76-2.11A3.07,3.07,0,0,0,29.32,41.53Z"/><path class="cls-2" d="M40.59,48.82l-3.94-6.3,0,0,.08,6.28H34.16V38.47h2.28l4,6.5,0,0-.11-6.48h2.53V48.82Z"/><path class="cls-2" d="M59.35,45a5.2,5.2,0,0,1-1.9,2.95,5.54,5.54,0,0,1-7.19-.44,5.38,5.38,0,0,1,0-7.65,5.3,5.3,0,0,1,3.84-1.53,5.15,5.15,0,0,1,4.56,2.43,4.29,4.29,0,0,1,.7,1.69H56.58a2.5,2.5,0,0,0-2.5-1.8,2.56,2.56,0,0,0-2,.91,3.12,3.12,0,0,0-.75,2.11,3.19,3.19,0,0,0,.75,2.13,2.55,2.55,0,0,0,2,.94A2.62,2.62,0,0,0,56.58,45Z"/><path class="cls-2" d="M66.75,48.82V44.68H63.36v4.14H60.72V38.47h2.64v3.89h3.39V38.47h2.64V48.82Z"/><path class="cls-2" d="M80.42,40.12a5.38,5.38,0,0,1-.3,7.36,5.61,5.61,0,0,1-7.69,0,5,5,0,0,1-1.62-3.74,6,6,0,0,1,.4-2.21,5,5,0,0,1,.67-1.16,5.21,5.21,0,0,1,4.38-2.12,5.34,5.34,0,0,1,3.36,1.1l.14-.06a1.1,1.1,0,0,0,.71-1h-.55V36.75h1.57v1.6a2.2,2.2,0,0,1-.65,1.48A3.52,3.52,0,0,1,80.42,40.12Zm-2.11,1.41a2.56,2.56,0,0,0-2-.93,2.63,2.63,0,0,0-2,.9,3.05,3.05,0,0,0-.78,2.12,3.11,3.11,0,0,0,.78,2.15,2.62,2.62,0,0,0,2.08.92,2.55,2.55,0,0,0,2-.92,3.11,3.11,0,0,0,.76-2.11A3.07,3.07,0,0,0,78.31,41.53ZM75.16,52.17V50.06h2.22v2.11Z"/><rect class="cls-3" x="1.41" y="8.39" width="90.19" height="49.07" rx="4.51"/><path class="cls-4" d="M101.06,4.42c-.22-.7-1-1.18-2.31-1.42a3.54,3.54,0,0,0-2.85.44c-3.71,3.19-6.73,8.21-9.28,12.86l-1.43-4.22c-.09-.3-.33-1-2.37-1.27-.72-.09-2-.18-2.61.38A1.83,1.83,0,0,0,79.86,13L83.42,23.6c.16.46.5.92,1.93,1.19.19,0,.46.08.75.11.93.09,2.15.05,2.56-.69s.88-1.63,1.31-2.43c3.19-5.93,6.49-12.07,10.73-15.73A1.6,1.6,0,0,0,101.06,4.42Z"/><path class="cls-5" d="M100.3,2.79c-.24-.68-1-1.08-2.35-1.2a3.7,3.7,0,0,0-2.83.73c-3.58,3.56-6.41,8.88-8.8,13.77L84.75,12c-.11-.28-.37-.95-2.42-1a3.74,3.74,0,0,0-2.59.63,1.89,1.89,0,0,0-.28,1.88L83.4,23.7c.17.44.53.87,2,1,.2,0,.47,0,.77,0,.92,0,2.14-.16,2.52-.94s.82-1.71,1.22-2.55c3-6.25,6-12.7,10.14-16.78A1.64,1.64,0,0,0,100.3,2.79Z"/><path class="cls-2" d="M95.43,3.18c-3.67,3.64-6.5,9.08-9.16,14.62-.68-1.75-1.35-3.5-2-5.24-.3-.78-4.77-.88-4.27.42q2,5.09,3.94,10.18c.28.74,3.9.76,4.27,0C91.59,16.09,94.94,8.33,99.7,3.59,100.48,2.82,96.65,2,95.43,3.18Z"/></g></g></svg>