<svg xmlns="http://www.w3.org/2000/svg" viewBox="0 0 102.05 59.53"><defs><style>.cls-1{isolation:isolate;}.cls-2{fill:#e12228;}.cls-3{fill:none;stroke:#e12228;stroke-miterlimit:10;}.cls-4{fill:#010101;mix-blend-mode:multiply;opacity:0.2;}.cls-5{fill:#fff;}</style></defs><g class="cls-1"><g id="Layer_1" data-name="Layer 1"><path class="cls-2" d="M30.73,26.06a5.22,5.22,0,0,1-1.91,3,5.52,5.52,0,0,1-7.18-.44,5.38,5.38,0,0,1,0-7.65,5.3,5.3,0,0,1,3.84-1.53A5.15,5.15,0,0,1,30,21.82a4.44,4.44,0,0,1,.7,1.69H28a2.51,2.51,0,0,0-2.5-1.8,2.55,2.55,0,0,0-2,.91,3.12,3.12,0,0,0-.76,2.11,3.19,3.19,0,0,0,.76,2.13,2.56,2.56,0,0,0,2,.95A2.62,2.62,0,0,0,28,26.06Z"/><path class="cls-2" d="M38.12,29.93V25.79H34.74v4.14H32.09V19.58h2.65v3.89h3.38V19.58h2.65V29.93Z"/><path class="cls-2" d="M50.55,25.83a6.71,6.71,0,0,1-.18,1.72A3.37,3.37,0,0,1,49.52,29a3.9,3.9,0,0,1-2.9,1.12A4.9,4.9,0,0,1,45,29.87,3.26,3.26,0,0,1,43.65,29a3.55,3.55,0,0,1-.88-1.47,4.61,4.61,0,0,1-.13-.8c0-.24,0-.54,0-.92V19.58h2.64v6.25a6.85,6.85,0,0,0,0,.71,2,2,0,0,0,.19.63,1.15,1.15,0,0,0,1.12.64,1.11,1.11,0,0,0,1.12-.63,2.23,2.23,0,0,0,.16-.62,7.18,7.18,0,0,0,0-.73V19.58h2.64Z"/><path class="cls-2" d="M59.07,29.93l-.51-1.5H55l-.55,1.5H51.58l4.15-10.35h2.09l4.11,10.35ZM57.41,18.67l-.64-.81-.64.81H53.86L56,16.35h1.51l2.1,2.32ZM56.8,22.8h0l-1.07,3.54h2.17Zm3.66-7.52c-.05.08-.12.17-.19.26l-.23.24L59.8,16a2.06,2.06,0,0,0-.21.21.81.81,0,0,0-.22.47H58.18a1.2,1.2,0,0,1,.18-.62,2,2,0,0,1,.19-.24l.21-.23.22-.21.19-.21a.77.77,0,0,0,.18-.45q0-.42-.39-.42a.4.4,0,0,0-.39.2.92.92,0,0,0-.08.46H57.24a.15.15,0,0,1,0-.07v-.06a1.59,1.59,0,0,1,.52-1.23A1.81,1.81,0,0,1,59,13.13,1.55,1.55,0,0,1,60.5,14a1.34,1.34,0,0,1,.16.63A1.26,1.26,0,0,1,60.46,15.28Z"/><path class="cls-2" d="M69.42,29.93l-3.94-6.3,0,0,.07,6.28H63V19.58h2.28l4,6.5,0,0-.12-6.48h2.54V29.93Z"/><path class="cls-2" d="M22.43,49.93H19.71L16.25,39.58H19L21,46.84h0l2.09-7.26H25.9Z"/><path class="cls-2" d="M27.06,49.93V39.58H29.7V49.93Z"/><path class="cls-2" d="M31.57,49.93V39.58h5.75V41.9H34.11v1.61h3.11v2.32H34.11v1.78h3.21v2.32Z"/><path class="cls-2" d="M42.84,41.9v8H40.2v-8H38.15V39.58h6.72V41.9Z"/><path class="cls-2" d="M56.5,44.59A5.4,5.4,0,0,1,51,50.14a5.35,5.35,0,0,1-3.89-1.56,5.22,5.22,0,0,1-1.61-3.87,5.05,5.05,0,0,1,1.64-3.83,5.73,5.73,0,0,1,7.09-.49,4.73,4.73,0,0,1,2,2.66h-3a2.44,2.44,0,0,0-2.28-1.34,2.64,2.64,0,0,0-2,.89,3,3,0,0,0-.77,2.11,3.23,3.23,0,0,0,.75,2.19,2.66,2.66,0,0,0,2.09.92,2.85,2.85,0,0,0,1.54-.4,2.16,2.16,0,0,0,.93-1.27H50.34V44h6.14c0,.09,0,.18,0,.28Z"/><path class="cls-2" d="M64.29,49.93l-.51-1.5H60.19l-.55,1.5H56.8L61,39.58H63l4.11,10.35ZM62,42.8h0l-1.07,3.54h2.17Z"/><path class="cls-2" d="M75.73,44.55a3.1,3.1,0,0,1-.82,1.24,3.37,3.37,0,0,1-1.41.74,6.9,6.9,0,0,1-1.61.16H70.75v3.24H68.21V39.58H71.6c.33,0,.6,0,.82,0s.6,0,.85.09a3.17,3.17,0,0,1,1.52.65A3.39,3.39,0,0,1,76,43.07,4.17,4.17,0,0,1,75.73,44.55ZM72.92,42.1a2.8,2.8,0,0,0-1.2-.2h-1v2.46h1.07A2.22,2.22,0,0,0,73,44.13a1.07,1.07,0,0,0,.5-1A1.05,1.05,0,0,0,72.92,42.1Z"/><rect class="cls-3" x="1.41" y="8.39" width="90.19" height="49.07" rx="4.51"/><path class="cls-4" d="M101.06,4.42c-.22-.7-1-1.18-2.31-1.42a3.54,3.54,0,0,0-2.85.44c-3.71,3.19-6.73,8.21-9.28,12.86l-1.43-4.22c-.09-.3-.33-1-2.37-1.27-.72-.09-2-.18-2.61.38A1.83,1.83,0,0,0,79.86,13L83.42,23.6c.16.46.5.92,1.93,1.19.19,0,.46.08.75.11.93.09,2.15.05,2.56-.69s.88-1.63,1.31-2.43c3.19-5.93,6.49-12.07,10.73-15.73A1.6,1.6,0,0,0,101.06,4.42Z"/><path class="cls-5" d="M100.3,2.79c-.24-.68-1-1.08-2.35-1.2a3.7,3.7,0,0,0-2.83.73c-3.58,3.56-6.41,8.88-8.8,13.77L84.75,12c-.11-.28-.37-.95-2.42-1a3.74,3.74,0,0,0-2.59.63,1.89,1.89,0,0,0-.28,1.88L83.4,23.7c.17.44.53.87,2,1,.2,0,.47,0,.77,0,.92,0,2.14-.16,2.52-.94s.82-1.71,1.22-2.55c3-6.25,6-12.7,10.14-16.78A1.64,1.64,0,0,0,100.3,2.79Z"/><path class="cls-2" d="M95.43,3.18c-3.67,3.64-6.5,9.08-9.16,14.62-.68-1.75-1.35-3.5-2-5.24-.3-.78-4.77-.88-4.27.42q2,5.09,3.94,10.18c.28.74,3.9.76,4.27,0C91.59,16.09,94.94,8.33,99.7,3.59,100.48,2.82,96.65,2,95.43,3.18Z"/></g></g></svg>