<?xml version="1.0" encoding="utf-8"?>
<!-- Generator: Adobe Illustrator 26.3.0, SVG Export Plug-In . SVG Version: 6.00 Build 0)  -->
<svg version="1.1" id="Layer_1" xmlns="http://www.w3.org/2000/svg" xmlns:xlink="http://www.w3.org/1999/xlink" x="0px" y="0px"
	 viewBox="0 0 139.87 231.13" style="enable-background:new 0 0 139.87 231.13;" xml:space="preserve">
<style type="text/css">
	.st0{opacity:0.3;fill-rule:evenodd;clip-rule:evenodd;fill:#606161;}
	.st1{fill:#FFFFFF;}
	.st2{fill:#429C46;}
	.st3{fill:#EC8623;}
	.st4{fill:#A42267;}
	.st5{fill:none;stroke:#429C46;stroke-miterlimit:10;}
	.st6{fill-rule:evenodd;clip-rule:evenodd;fill:url(#SVGID_1_);}
	.st7{fill-rule:evenodd;clip-rule:evenodd;fill:url(#SVGID_00000095334781812658997740000017278833327244517298_);}
	.st8{fill-rule:evenodd;clip-rule:evenodd;fill:#074624;}
	.st9{fill-rule:evenodd;clip-rule:evenodd;fill:url(#SVGID_00000093877725531138854850000007191677407561356943_);}
	.st10{fill-rule:evenodd;clip-rule:evenodd;fill:url(#SVGID_00000165199673204770424660000014656649702183185834_);}
	.st11{fill:#E1232A;}
	.st12{fill:#109548;}
	.st13{fill:#3CB54A;}
	.st14{fill:none;stroke:#000000;stroke-miterlimit:10;}
	.st15{fill-rule:evenodd;clip-rule:evenodd;fill:url(#SVGID_00000137107668075545514970000009799462134258572475_);}
	.st16{fill-rule:evenodd;clip-rule:evenodd;fill:url(#SVGID_00000125602178049659305300000012719700286304726422_);}
	.st17{fill-rule:evenodd;clip-rule:evenodd;fill:#A52067;}
	.st18{fill-rule:evenodd;clip-rule:evenodd;fill:url(#SVGID_00000141435658688820344630000011378288391304855983_);}
	.st19{fill-rule:evenodd;clip-rule:evenodd;fill:url(#SVGID_00000008850228681811998090000015024270694842700472_);}
	.st20{font-family:'Arial-BoldMT';}
	.st21{font-size:15.4565px;}
	.st22{font-size:12.1842px;}
</style>
<g>
	<g>
		<path class="st1" d="M5.18,178.58c0-41.42,0-82.84,0-124.29c42.75,0,85.5,0,128.31,0c0,41.41,0,82.85,0,124.29
			C90.73,178.58,47.96,178.58,5.18,178.58z M19.41,105.92l-0.08-0.07c0,1.02,0,2.03,0,3.11c-1.09,0.09-2.08,0.17-3.12,0.25
			c0,2.38,0,4.57,0,7c2.17,0,4.21,0,6.21,0c0,1.17,0,2.09,0,3.14c-1.03,0-1.89,0-2.84,0c0,2.25,0,4.36,0,6.52
			c1.05,0.09,1.97,0.17,2.91,0.25c0,1.03,0,1.89,0,3c-2.11,0-4.15,0-6.44,0c0,5.42-0.03,10.6,0.05,15.78
			c0.01,0.38,0.78,1.06,1.22,1.07c2.87,0.1,5.75,0.05,8.69,0.05c0.09-1.3,0.16-2.37,0.24-3.45c2.24,0,4.29,0,6.53,0
			c0,1.17,0,2.24,0,3.31c2.3,0,4.41,0,6.58,0c0-1.29,0-2.43,0-3.7c-1.19-0.07-2.26-0.14-3.17-0.19c0-1.07,0-1.92,0-2.92
			c2.22,0,4.27,0,6.41,0c0.06-1.15,0.12-2.14,0.18-3.13c1.07,0,1.99,0,2.9,0c0.17,3.42,0.17,3.42,3.51,2.97c0-1,0-2,0-3.05
			c-1.05-0.08-1.98-0.14-2.92-0.21c0-1.03,0-1.89,0-3.02c2.19,0,4.3,0,6.47,0c0.09-1.27,0.16-2.28,0.23-3.25c1,0,1.88,0,3.02,0
			c0-3.36,0-6.66,0-9.98c1.27-0.08,2.28-0.15,3.46-0.23c0-1.04,0-1.96,0-2.83c1.09,0,2.01,0,2.98,0c0,1.03,0,1.89,0,2.93
			c3.43,0,6.76,0,10.09,0c0,2.05,0,4.1,0,6.11c-1.23,0-2.15,0-3.09,0c-0.05-1.03-0.1-1.9-0.14-2.75c-2.38,0-4.62,0-6.97,0
			c0,3.29,0,6.38,0,9.69c-2.16,0-4.2,0-6.24,0c0,1.23,0,2.24,0,3.37c1.03,0.06,1.96,0.11,2.91,0.17c0,1.08,0,1.99,0,3.14
			c-2.25,0-4.36,0-6.46,0c-0.07,1.17-0.13,2.1-0.19,3.18c-3.34,0-6.42,0-9.59,0c0,6.82,0,13.47,0,20.25
			c1.01,0.05,1.94,0.1,2.87,0.15c0,2.14,0,4.1,0,6.06c-1.07,0.1-1.99,0.19-2.85,0.27c0,1.21,0,2.22,0,3.19c1.18,0,2.24,0,3.31,0
			c0.09-1.21,0.17-2.21,0.26-3.36c2.22,0,4.27,0,6.54,0c0-2.12,0-4.09,0-6.1c2.19,0,4.15,0,6.07,0c0,1.04,0,1.95,0,2.99
			c-1.05,0-1.92,0-2.82,0c0,1.12,0,2.11,0,3.24c1.03,0,1.9,0,2.87,0c0.1,1.19,0.19,2.25,0.28,3.33c2.24,0,4.28,0,6.56,0
			c0-4.36,0-8.63,0-13.03c1.14,0,2.05,0,3,0c0.08,1.11,0.14,2.12,0.22,3.22c1.19,0.09,2.26,0.17,3.39,0.26c0,1.11,0,2.07,0,3.02
			l0.08-0.08c-1.15,0-2.3,0-3.59,0c0,1.85,0.07,3.4-0.02,4.95c-0.08,1.36,0.41,1.83,1.78,1.79c3.27-0.08,6.53-0.03,9.8-0.03
			c1.75,0,3.5,0,5.23,0c0-1.37,0-2.37,0-3.61c-2.24,0-4.35,0-6.38,0c0-1.17,0-2.08,0-3c1.11-0.06,2.04-0.11,3.08-0.16
			c0-1.12,0-1.98,0-2.88c1.06,0,1.98,0,2.95,0c0.05,1.01,0.09,1.87,0.15,2.98c2.21,0,4.33,0,6.44,0c0,1.17,0,2.09,0,3.02
			c-1.07,0.1-1.99,0.18-2.85,0.26c0,1.21,0,2.22,0,3.22c2.85,0.31,2.85,0.31,3.75-3.27c0.85-0.04,1.72-0.08,2.71-0.12
			c0.05-1.04,0.1-1.97,0.16-3c2.17,0,4.22,0,6.32,0c0,1.01,0,1.93,0,2.96c-1.1,0.05-2.11,0.1-3.07,0.14c0,1.24,0,2.3,0,3.46
			c1.82,0,3.45-0.06,5.07,0.02c1.35,0.07,1.82-0.39,1.76-1.79c-0.12-2.63-0.03-5.26-0.03-7.89c3.32,0,6.33,0,9.56,0
			c0,2.09,0,4.06,0,6.16c1.33,0,2.43,0,3.53,0l-0.08-0.08c0,1.16,0,2.31,0,3.43c3.21,0.27,3.21,0.27,3.79-3.28
			c0.9-0.05,1.82-0.11,2.8-0.16c0-2.25,0-4.35,0-6.7c-3.28,0-6.44,0-9.6,0c-0.05-1.11-0.1-1.98-0.15-2.94
			c-1.18-0.08-2.25-0.15-3.33-0.23c0-5.54,0-10.91,0-16.22c1.07,0,1.99,0,3.14,0c-1.11,3.41,0.99,3.7,3.32,3.43
			c0.06,1.19,0.1,2.05,0.15,2.99c1.07,0.08,2,0.14,3.11,0.22c0,3.31,0,6.47,0,9.72c1.22,0,2.22,0,3.36,0c0-3.39,0-6.68,0-10.1
			c-1.05-0.05-1.97-0.09-2.96-0.14c0-0.96,0-1.74,0-2.67c1.02-0.05,1.95-0.09,2.91-0.14c0-1.36,0-2.56,0-3.76
			c-1.11-0.08-2.03-0.15-2.87-0.21c0-1.08,0-1.95,0-2.96c1.06,0,1.98,0,2.88,0c0-2.34,0-4.52,0-6.68c-1.11-0.08-2.03-0.14-2.93-0.2
			c-0.07-1.1-0.13-1.96-0.19-2.9c-1.17-0.08-2.18-0.16-3.27-0.24c0-1.01,0-1.93,0-3.08c2.22,0,4.33,0,6.43,0c0-4.59,0-8.93,0-13.33
			c-1.07-0.06-2-0.11-2.97-0.17c0-1.02,0-1.88,0-2.94c1.02,0,1.96,0,2.98,0c0-2.31,0-4.41,0-6.59c-1.05-0.07-1.98-0.13-2.93-0.19
			c0-1.05,0-1.96,0-2.91c1.07-0.09,1.99-0.16,2.88-0.23c0-3.45,0-6.74,0-9.98c-3.41,0-6.65,0-9.89,0c0,2.23,0,4.33,0,6.59
			c2.22,0,4.27,0,6.39,0c0,1.09,0,2,0,2.97c-4.32,0-8.51,0-12.71,0c-0.09-1.12-0.17-2.11-0.24-2.97c-2.29,0-4.36,0-6.43,0
			c0,0,0.07,0.05,0.07,0.05c-0.1-2.2-0.21-4.4-0.32-6.71c-1.02-0.05-1.94-0.1-3.07-0.16c0-2.26,0-4.37,0-6.57c-1.31,0-2.41,0-3.51,0
			c0-2.06,0-4.12,0-6.14c3.68-0.46,3.68-0.46,3.39-3.67c-2.09,0-4.2,0-6.28,0c-0.52-3.93-0.52-3.93-3.63-3.19c0,1,0,2.01,0,3.05
			c1.04,0.09,1.96,0.18,2.85,0.26c0,2.14,0,4.11,0,5.98c-1.07,0-1.99,0-3.05,0c0-1.04,0-1.91,0-2.92c-1.05-0.05-1.98-0.09-3.18-0.15
			c0-4.49,0-8.81,0-13.26c-7.04,0-13.78,0-20.53,0c-3.09,0-3.09,0-2.67,3.54c3.25,0,6.54,0,9.82,0c0,1.21,0,2.14,0,3.13
			c-0.41,0.05-0.71,0.15-0.98,0.1c-1.99-0.38-2.69,0.42-2.48,2.4c0.15,1.36,0.03,2.74,0.03,4.06c-3.38,0-6.4,0-9.44,0
			c-0.08-1.05-0.14-1.98-0.21-2.91c-1.18-0.08-2.18-0.15-3.4-0.23c0-2.29,0-4.4,0-6.57c-1.79,0-3.34,0-4.9,0c-1.54,0-3.08,0-4.59,0
			c-0.47-3.88-0.47-3.88-3.57-3.24c0,3.29,0,6.58,0,9.85c1.05,0.07,1.91,0.13,2.81,0.18c0,1.07,0,1.98,0,2.93
			c-1.05,0.09-1.98,0.17-2.88,0.24c0,1.19,0,2.2,0,3.3c1.02,0.08,1.95,0.15,2.86,0.22c0,1.07,0,1.98,0,3.03c-1.02,0-1.88,0-2.85,0
			c0,1.21,0,2.28,0,3.42c1.03,0.09,1.95,0.17,2.85,0.24c0,1.07,0,1.98,0,3.12c-6.57,0-12.98,0-19.54,0c0,3.33,0,6.42,0,9.59
			c-1.07,0-1.98,0-2.95,0c-0.08-1.05-0.15-1.99-0.23-3.01c-1.17-0.09-2.23-0.16-3.5-0.26c0-2.27,0-4.31,0-6.25c-1.22,0-2.22,0-3.2,0
			c0,2.23,0,4.27,0,6.37c1.12,0.08,2.13,0.15,3.14,0.23c0,1.07,0,2,0,2.94c-1.13,0.09-2.12,0.17-3.12,0.25c0,2.33,0,4.43,0,6.74
			C17.38,106.08,18.39,106,19.41,105.92z M102.03,86.17c8.04,0,15.71,0,23.37,0c0-7.84,0-15.51,0-23.42
			c-7.51,0-14.9-0.02-22.29,0.06c-0.36,0-1.02,0.83-1.03,1.28C102.01,71.41,102.03,78.72,102.03,86.17z M16.27,148.92
			c0,7.84,0,15.56,0,23.25c7.83,0,15.44,0,23.06,0c0-7.83,0-15.5,0-23.25C31.56,148.92,23.95,148.92,16.27,148.92z M39.36,62.75
			c-7.52,0-14.91-0.02-22.3,0.06c-0.33,0-0.94,0.84-0.94,1.29c-0.06,7.32-0.04,14.65-0.04,22.07c7.86,0,15.58,0,23.29,0
			C39.36,78.33,39.36,70.66,39.36,62.75z M99.17,69.78c0-2.12,0.06-4.03-0.05-5.93c-0.02-0.38-0.67-1.03-1.05-1.05
			c-3-0.09-6.01-0.05-8.97-0.05c0,1.31,0,2.32,0,3.56c2.21,0,4.32,0,6.64,0c0,1.3,0,2.36,0,3.46C96.9,69.78,97.85,69.78,99.17,69.78
			z M118.75,152.41c-1.26,0-2.27,0-3.26,0c-0.46,3.64-0.28,3.82,3.26,3.15C118.75,154.56,118.75,153.55,118.75,152.41z
			 M108.79,168.87c-0.29,3.72,0.03,4,3.27,3.11c0-1.01,0-2.02,0-3.11C110.94,168.87,109.94,168.87,108.79,168.87z M108.86,89.59
			c-0.42,3.63-0.21,3.82,3.16,3.13c0-1.06,0-2.11,0-3.13C110.85,89.59,109.84,89.59,108.86,89.59z"/>
		<path d="M118.87,168.82c-1.1,0-2.2,0-3.53,0c0-2.11,0-4.07,0-6.16c-3.23,0-6.24,0-9.56,0c0,2.63-0.08,5.26,0.03,7.89
			c0.06,1.4-0.41,1.86-1.76,1.79c-1.62-0.08-3.25-0.02-5.07-0.02c0-1.17,0-2.22,0-3.46c0.96-0.04,1.97-0.09,3.07-0.14
			c0-1.02,0-1.95,0-2.96c-2.1,0-4.15,0-6.32,0c-0.05,1.03-0.1,1.96-0.16,3c-1,0.04-1.86,0.08-2.71,0.12
			c-0.9,3.58-0.9,3.58-3.75,3.27c0-1,0-2.01,0-3.22c0.86-0.08,1.78-0.16,2.85-0.26c0-0.93,0-1.84,0-3.02c-2.11,0-4.23,0-6.44,0
			c-0.05-1.11-0.1-1.97-0.15-2.98c-0.98,0-1.89,0-2.95,0c0,0.89,0,1.76,0,2.88c-1.05,0.05-1.97,0.1-3.08,0.16c0,0.92,0,1.84,0,3
			c2.02,0,4.14,0,6.38,0c0,1.24,0,2.24,0,3.61c-1.73,0-3.48,0-5.23,0c-3.27,0-6.54-0.05-9.8,0.03c-1.37,0.03-1.86-0.44-1.78-1.79
			c0.09-1.54,0.02-3.09,0.02-4.95c1.29,0,2.44,0,3.59,0c0,1.01,0,2.01,0,3.03c1.14,0,2.05,0,2.94,0c0-1.06,0-1.98,0-2.95
			c-1.11,0-2.06,0-3.02,0c0-0.96,0-1.91,0-3.02c-1.12-0.09-2.19-0.17-3.39-0.26c-0.08-1.1-0.14-2.11-0.22-3.22c-0.95,0-1.86,0-3,0
			c0,4.41,0,8.67,0,13.03c-2.28,0-4.33,0-6.56,0c-0.09-1.08-0.18-2.14-0.28-3.33c-0.98,0-1.84,0-2.87,0c0-1.13,0-2.12,0-3.24
			c0.9,0,1.77,0,2.82,0c0-1.03,0-1.94,0-2.99c-1.91,0-3.87,0-6.07,0c0,2.02,0,3.98,0,6.1c-2.27,0-4.32,0-6.54,0
			c-0.09,1.15-0.17,2.15-0.26,3.36c-1.07,0-2.12,0-3.31,0c0-0.97,0-1.98,0-3.19c0.86-0.08,1.78-0.17,2.85-0.27c0-1.96,0-3.92,0-6.06
			c-0.94-0.05-1.86-0.1-2.87-0.15c0-6.79,0-13.43,0-20.25c3.17,0,6.26,0,9.59,0c0.06-1.08,0.12-2.01,0.19-3.18c2.1,0,4.21,0,6.46,0
			c0-1.15,0-2.07,0-3.14c-0.95-0.05-1.87-0.11-2.91-0.17c0-1.13,0-2.14,0-3.37c2.04,0,4.08,0,6.24,0c0-3.31,0-6.4,0-9.69
			c2.35,0,4.59,0,6.97,0c0.04,0.86,0.09,1.72,0.14,2.75c0.94,0,1.86,0,3.09,0c0-2.01,0-4.06,0-6.11c0,0-0.06,0.06-0.06,0.06
			c1.15,0,2.3,0,3.65,0c0,2.24,0,4.2,0,6.11c1.09,0,1.96,0,2.98,0c0-1.03,0-1.94,0-3.09c3.37,0,6.59,0,9.78,0
			c0.1-1.16,0.18-2.09,0.27-3.13c1.03,0,1.89,0,2.84,0c0-1.05,0-1.96,0-2.93c-1.04-0.09-1.96-0.18-3.1-0.28c0-1.19,0-2.26,0-3.47
			c-1.25,0-2.26,0-3.36,0c-0.08-1.07-0.14-1.99-0.21-2.94c-1.07-0.09-1.99-0.17-3.08-0.26c0-1.24,0-2.35,0-3.45
			c1.16,0,2.31,0,3.48,0c0.11,1.24,0.19,2.16,0.27,3c3.33,0,6.47,0,9.7,0c-0.05-1.03-0.09-1.88-0.14-2.86c-2.29,0-4.33,0-6.42,0
			c0-1.14,0-2.12,0-3.15c1.06-0.07,1.98-0.13,2.87-0.2c0-1.06,0-1.93,0-2.93c-1.01-0.05-1.94-0.1-3.06-0.16c0-2.28,0-4.39,0-6.48
			c-3.91-0.34-3.96-0.4-3.19-3.54c2.2,0,4.39,0,6.67,0c0.07,1.03,0.14,1.95,0.2,2.84c1.08,0,1.99,0,3.06,0c0-3.33,0-6.51,0-9.68
			l-0.05,0.05c1.1,0,2.2,0,3.51,0c0,2.21,0,4.32,0,6.57c1.13,0.06,2.06,0.11,3.07,0.16c0.11,2.31,0.21,4.51,0.31,6.7
			c-1.08,0-2.15,0-3.22,0c0,4.38,0,8.56,0,12.7c0.99,0,1.85,0,2.85,0c0-2.09,0-4.05,0-6.05c1.15-0.06,2.16-0.11,3.18-0.17
			c0-1.06,0-1.98,0-2.88c-3.77-0.33-3.87-0.47-2.87-3.64c2.07,0,4.13,0,6.43,0c0.07,0.86,0.15,1.85,0.24,2.97c4.2,0,8.39,0,12.71,0
			c0-0.97,0-1.89,0-2.97c-2.12,0-4.17,0-6.39,0c0-2.26,0-4.36,0-6.59c3.24,0,6.48,0,9.89,0c0,3.24,0,6.53,0,9.98
			c-0.88,0.07-1.81,0.15-2.88,0.23c0,0.95,0,1.86,0,2.91c0.95,0.06,1.88,0.12,2.93,0.19c0,2.18,0,4.29,0,6.59c-1.02,0-1.96,0-2.98,0
			c0,1.06,0,1.91,0,2.94c0.97,0.05,1.9,0.11,2.97,0.17c0,4.39,0,8.74,0,13.33c-2.1,0-4.21,0-6.43,0c0,1.16,0,2.07,0,3.08
			c1.09,0.08,2.1,0.15,3.27,0.24c0.06,0.94,0.12,1.8,0.19,2.9c0.89,0.06,1.82,0.12,2.93,0.2c0,2.16,0,4.34,0,6.68
			c-0.9,0-1.82,0-2.88,0c0,1.01,0,1.88,0,2.96c0.84,0.06,1.76,0.13,2.87,0.21c0,1.2,0,2.4,0,3.76c-0.96,0.05-1.89,0.09-2.91,0.14
			c0,0.93,0,1.71,0,2.67c0.99,0.05,1.91,0.09,2.96,0.14c0,3.42,0,6.71,0,10.1c-1.14,0-2.14,0-3.36,0c0-3.25,0-6.41,0-9.72
			c-1.12-0.08-2.04-0.15-3.11-0.22c-0.05-0.93-0.09-1.8-0.15-2.99c-2.32,0.27-4.43-0.02-3.32-3.43c-1.15,0-2.07,0-3.14,0
			c0,5.31,0,10.69,0,16.22c1.08,0.07,2.14,0.15,3.33,0.23c0.05,0.97,0.09,1.84,0.15,2.94c3.16,0,6.32,0,9.6,0c0,2.34,0,4.45,0,6.7
			c-0.98,0.06-1.9,0.11-2.8,0.16c-0.58,3.55-0.58,3.55-3.79,3.28c0-1.12,0-2.28,0-3.43c1.01,0,2.01,0,3.03,0c0-1.14,0-2.05,0-2.94
			c-1.06,0-1.98,0-2.95,0C118.87,166.91,118.87,167.87,118.87,168.82z M102.39,112.71c-1.16-0.07-2.31-0.14-3.49-0.21
			c-0.09-1.08-0.17-2-0.24-2.83c-1.11,0-2.02,0-2.93,0c-0.06,1.04-0.11,1.9-0.16,2.85c-1.05,0.07-1.98,0.13-2.91,0.2
			c0,1.07,0,1.99,0,2.95c1.05,0.08,1.98,0.16,2.93,0.23c0.06,1.17,0.1,2.19,0.16,3.29c1.05,0,1.96,0,2.98,0
			c0.06-1.18,0.12-2.25,0.17-3.34c1.24-0.07,2.23-0.13,3.15-0.18c0.1-1.15,0.19-2.1,0.28-3.05c1-0.05,2.01-0.1,3-0.15
			c0-1.07,0-1.98,0-2.8c-1.08,0-1.99,0-2.92,0C102.39,110.8,102.39,111.76,102.39,112.71z M102.39,138.81c0,1.07,0,2.14,0,3.17
			c2.25,0,4.22,0,6.18,0c0-0.98,0-1.84,0-2.75c-2.16-0.12-4.2-0.24-6.25-0.35c-0.13-1-0.26-1.99-0.41-3.13c-1.05,0-1.99,0-2.94,0
			c0-1.22,0-2.27,0-3.51c2.22,0,4.26,0,6.42,0c0.06-1.1,0.11-2.03,0.17-3.02c1.08-0.07,2.02-0.13,3.05-0.2c0-1.01,0-1.93,0-2.9
			c-2.06,0-4.1,0-6.17,0c-0.08,1.13-0.16,2.13-0.25,3.34c-2.23,0-4.33,0-6.47,0c-0.05,1.15-0.1,2.09-0.14,3.14
			c-1.05,0.05-1.98,0.1-2.93,0.15c0,1.08,0,1.99,0,2.95c1.05,0.08,1.98,0.15,2.9,0.22c0.09,1.07,0.17,1.99,0.25,2.88
			C98.12,138.81,100.26,138.81,102.39,138.81z M72.52,152.33c-1.15,0-2.31,0-3.47,0c-0.1-1.22-0.18-2.14-0.25-3.06
			c-1.09-0.1-2.01-0.18-2.91-0.27c-0.06-1.06-0.11-1.93-0.18-3.03c-2.23,0-4.34,0-6.5,0c-0.06-1.26-0.12-2.27-0.17-3.38
			c-2.08,0-4.04,0-6.26,0c0.83,3.11-0.69,3.97-3.29,3.43c0,1.11,0,1.94,0,2.76c3.37,0.1,3.37,0.1,3.37,3.45c0,1.01,0,2.03,0,3.02
			c1.18,0,2.09,0,3.2,0c0-2.2,0-4.24,0-6.26c2.29,0,4.39,0,6.49,0c0,1.2,0,2.21,0,3.36c-1.05,0-1.99,0-3.06,0c0,1.06,0,1.98,0,3
			c1.04,0.05,2.04,0.1,3.26,0.17c0,1.23,0,2.3,0,3.29c1.16,0,2.07,0,2.98,0c0.06-1.19,0.11-2.2,0.17-3.44c2.26,0,4.37,0,6.53,0
			c0-1.19,0-2.15,0-3.11c1.01,0,2.01,0,3.03,0c0-1.14,0-2.05,0-2.94c-1.06,0-1.98,0-2.95,0C72.52,150.43,72.52,151.38,72.52,152.33z
			 M65.63,135.97c-0.92-0.06-1.85-0.12-2.77-0.18c0,2.25,0,4.26,0,6.26c1.05,0.05,1.92,0.09,2.87,0.14c0.07,1.2,0.13,2.26,0.18,3.24
			c1.12,0,2.04,0,3.17,0c-1.07-3.33,0.93-3.62,3.3-3.39c0.08-1.12,0.15-2.05,0.21-2.92c1.21,0,2.27,0,3.46,0c0,1.06,0,1.93,0,2.85
			c1.05,0,1.96,0,2.83,0c0-2.12,0-4.08,0-6.06c-1.16-0.09-2.16-0.17-3.38-0.27c0-3.3,0-6.44,0-9.54c-1.1,0-1.97,0-3.07,0
			c0,2.22,0,4.33,0,6.45c-1.25,0-2.25,0-3.52,0c0-2.21,0-4.32,0-6.41c-1.18,0-2.09,0-3.33,0c0,3.39,0,6.63,0,9.86L65.63,135.97z
			 M91.98,158.91c0-2.21,0-4.31,0-6.49c-1.02-0.07-1.94-0.13-2.85-0.19c0-2.29,0-4.4,0-6.5c1.07-0.1,2-0.19,2.9-0.27
			c0.15-3.02,0.15-3.02,3.51-3.6c0-0.84,0-1.68,0-2.6c-4.44,0-8.76,0-13.04,0c0,1.05,0,1.9,0,2.76c1.16,0.07,2.16,0.13,3.25,0.2
			c0,3.43,0,6.65,0,10.11c-2.21,0-4.31,0-6.42,0c0,2.34,0,4.44,0,6.48c1.07,0,1.99,0,2.92,0c0.06-1.19,0.11-2.2,0.15-3.22
			c1.21,0,2.27,0,3.5,0c0,2.22,0,4.27,0,6.4c1.1,0,2.01,0,2.98,0c0.09-1.04,0.18-1.96,0.26-2.94C90.13,159,91,158.96,91.98,158.91z
			 M99.31,146.13c0,3.17,0,6.16,0,9.11c3.22,0,6.29,0,9.28,0c0-3.12,0-6.07,0-9.11C105.48,146.13,102.47,146.13,99.31,146.13z
			 M105.87,102.91c0,2.15,0,4.1,0,6.27c2.17,0,4.2,0,6.21,0c0.09,1.23,0.16,2.23,0.24,3.3c1.05,0,1.9,0,2.88,0
			c0.07-1.14,0.14-2.21,0.21-3.3c1.25-0.08,2.25-0.14,3.3-0.21c0-2.1,0-4.06,0-6.02c-1.05,0-1.97,0-2.92,0
			c-0.06,1.07-0.11,2.01-0.16,2.99c-2.39,0-4.63,0-7.01,0c0-1.09,0-2.02,0-3.04C107.68,102.91,106.89,102.91,105.87,102.91z
			 M85.44,129.08c2.38,0,4.44,0,6.53,0c0-1.1,0-2.02,0-2.92c-3.28,0-6.42,0-9.72,0c0,1.18,0,2.18,0,3.3c-1.08,0-2.01,0-2.97,0
			c0,0.96,0,1.81,0,2.73c1.05,0.06,1.98,0.12,3.01,0.19c0.07,1.18,0.14,2.25,0.21,3.31c1.06,0,1.91,0,2.94,0
			C85.44,133.51,85.44,131.46,85.44,129.08z M105.79,135.8c1.15,0,2.09,0,3.14,0c0.06,1.07,0.12,2,0.18,3c1.05,0,1.96,0,3.11,0
			c0-2.22,0-4.32,0-6.44c1.15-0.09,2.06-0.15,2.92-0.22c0-2.15,0-4.1,0-5.99c-1.08,0-1.99,0-2.9,0c-0.06,1.18-0.11,2.19-0.17,3.2
			c-1.1,0.06-2.02,0.1-3.09,0.16c0,1.1,0,2.03,0,3.05c-1.16,0.08-2.16,0.14-3.19,0.21C105.79,133.74,105.79,134.62,105.79,135.8z
			 M121.84,122.34c0-3.28,0-6.41,0-9.58c-2.09,0-4.04,0-5.98,0c0,1.06,0,1.98,0,3.04c1.01,0,1.87,0,2.96,0c0,2.24,0,4.34,0,6.54
			C119.91,122.34,120.78,122.34,121.84,122.34z M118.77,135.67c-1.09,0.1-2.01,0.18-2.9,0.26c0,1.06,0,1.97,0,2.84
			c2.11,0,4.05,0,5.93,0c0-2.12,0-4.07,0-5.99c-1.03,0-1.9,0-2.89,0C118.86,133.73,118.82,134.6,118.77,135.67z M46.33,159.06
			c0,1.09,0,2.01,0,2.89c2.1,0,4.05,0,5.95,0c0-2.12,0-4.08,0-5.94c-1.08,0-2,0-2.9,0c-0.06,1.1-0.11,2.04-0.17,3.05
			C48.2,159.06,47.33,159.06,46.33,159.06z M92.61,152.16c1.08,0,1.99,0,2.93,0c0-2.08,0-4.03,0-6.01c-1.03,0-1.94,0-2.93,0
			C92.61,148.17,92.61,150.06,92.61,152.16z M108.63,119.44c-2.21,0-4.18,0-6.13,0c0,1.05,0,1.96,0,2.88c2.13,0,4.1,0,6.13,0
			C108.63,121.33,108.63,120.46,108.63,119.44z M115.2,116.28c-1.1,0-1.96,0-2.93,0c0,2.06,0,4.02,0,6.02c1.03,0,1.95,0,2.93,0
			C115.2,120.26,115.2,118.36,115.2,116.28z M105.36,159.22c-2.12,0-4.12,0-6.12,0c0,1.03,0,1.87,0,2.73c2.13,0,4.14,0,6.12,0
			C105.36,160.94,105.36,160.08,105.36,159.22z M119.01,142.58c0,0.92,0,1.87,0,2.92c0.94,0,1.85,0,2.85,0c0-1.01,0-1.92,0-2.92
			C120.9,142.58,120.05,142.58,119.01,142.58z M72.66,142.58c0,1.17,0,2.07,0,2.86c1.09,0,1.99,0,2.78,0c0-1.09,0-1.99,0-2.86
			C74.4,142.58,73.55,142.58,72.66,142.58z M49.23,152.48c-1.16,0-2.07,0-2.94,0c0,1.02,0,1.88,0,2.82c1.02,0,1.94,0,2.94,0
			C49.23,154.32,49.23,153.46,49.23,152.48z M59.02,156.01c-0.91,0-1.87,0-2.93,0c0,0.94,0,1.85,0,2.85c1.01,0,1.92,0,2.93,0
			C59.02,157.91,59.02,157.05,59.02,156.01z M98.66,96.01c0-1.09,0-2,0-2.89c-1.04,0-1.95,0-2.82,0c0,1.04,0,1.94,0,2.89
			C96.82,96.01,97.62,96.01,98.66,96.01z M79.1,162.05c-0.07-1.11-0.13-2.01-0.18-2.89c-1.13,0-1.96,0-2.82,0c0,1.03,0,1.93,0,2.89
			C77.09,162.05,77.94,162.05,79.1,162.05z M62.42,162.04c-0.06-1.09-0.11-1.95-0.16-2.89c-0.99,0-1.83,0-2.75,0
			c0,1.03,0,1.94,0,2.89C60.5,162.04,61.37,162.04,62.42,162.04z M99.27,122.6c0,0.97,0,1.89,0,2.88c0.95,0,1.81,0,2.66,0
			c0-1,0-1.91,0-2.88C100.97,122.6,100.18,122.6,99.27,122.6z M59.5,168.66c1.06,0,1.91,0,2.78,0c0-1.04,0-1.95,0-2.89
			c-0.99,0-1.85,0-2.78,0C59.5,166.76,59.5,167.62,59.5,168.66z M82.19,148.85c0-0.97,0-1.82,0-2.71c-1.04,0-1.96,0-2.92,0
			c0,0.97,0,1.82,0,2.71C80.25,148.85,81.12,148.85,82.19,148.85z M72.42,146.14c-1.09,0-2,0-2.93,0c0,0.96,0,1.81,0,2.56
			c1.05,0,1.96,0,2.93,0C72.42,147.81,72.42,147.09,72.42,146.14z"/>
		<path d="M19.4,105.92c-1.01,0.08-2.03,0.16-3.21,0.25c0-2.31,0-4.41,0-6.74c1-0.08,1.99-0.16,3.12-0.25c0-0.94,0-1.86,0-2.94
			c-1.01-0.07-2.02-0.15-3.14-0.23c0-2.1,0-4.15,0-6.37c0.98,0,1.97,0,3.2,0c0,1.94,0,3.98,0,6.25c1.27,0.09,2.33,0.17,3.5,0.26
			c0.08,1.03,0.15,1.96,0.23,3.01c0.97,0,1.88,0,2.95,0c0-3.17,0-6.26,0-9.59c6.56,0,12.97,0,19.54,0c0-1.14,0-2.05,0-3.12
			c-0.9-0.08-1.82-0.16-2.85-0.24c0-1.14,0-2.21,0-3.42c0.97,0,1.83,0,2.85,0c0-1.05,0-1.97,0-3.03c-0.9-0.07-1.83-0.14-2.86-0.22
			c0-1.1,0-2.11,0-3.3c0.9-0.08,1.82-0.15,2.88-0.24c0-0.95,0-1.86,0-2.93c-0.89-0.06-1.76-0.12-2.81-0.18c0-3.27,0-6.56,0-9.85
			c3.1-0.64,3.1-0.64,3.57,3.24c1.51,0,3.05,0,4.59,0c1.56,0,3.11,0,4.9,0c0,2.16,0,4.27,0,6.57c1.22,0.08,2.22,0.15,3.4,0.23
			c0.07,0.93,0.14,1.85,0.21,2.91c3.04,0,6.06,0,9.44,0c0-1.32,0.12-2.7-0.03-4.06c-0.21-1.98,0.49-2.79,2.48-2.4
			c0.27,0.05,0.57-0.05,0.98-0.1c0-0.98,0-1.91,0-3.13c-3.27,0-6.57,0-9.82,0c-0.42-3.54-0.42-3.54,2.67-3.54
			c6.75,0,13.49,0,20.53,0c0,4.45,0,8.78,0,13.26c1.2,0.06,2.12,0.1,3.18,0.15c0,1.01,0,1.87,0,2.92c1.06,0,1.98,0,3.05,0
			c0-1.86,0-3.83,0-5.98c-0.89-0.08-1.81-0.16-2.85-0.26c0-1.04,0-2.05,0-3.05c3.11-0.74,3.11-0.74,3.63,3.19c2.08,0,4.19,0,6.28,0
			c0.3,3.21,0.3,3.21-3.39,3.67c0,2.02,0,4.08,0,6.14c0,0,0.05-0.05,0.05-0.05c-1.01,0-2.02,0-3.27,0c0,1.35,0,2.41,0,3.45
			c-1.25,0-2.26,0-3.5,0c0-2.23,0-4.33,0-6.67c-2.35,0-4.45,0-6.54,0c-0.07-1.17-0.12-2.1-0.17-2.93c-2.2,0-4.16,0-6.07,0
			c0,2.15,0,4.1,0,6.04c1.1,0.08,2.02,0.15,2.93,0.22c0.08,1.31,0.15,2.41,0.22,3.51c-1.08,0-2.15,0-3.2,0c0,1.15,0,2.01,0,2.92
			c1.02,0,1.92,0,2.83,0c0.11-1.1,0.2-2.04,0.3-2.99c1.03,0.01,2.07,0.03,3.1,0.04l-0.04-0.04c0,3.22,0,6.44,0,9.85
			c-2.16,0-4.14,0-6.2,0c-0.07,1.25-0.12,2.31-0.18,3.41c-1.23,0.08-2.24,0.15-3.28,0.22c0,1.05,0,1.96,0,3.11c1.2,0,2.25,0,3.44,0
			c0,1.1,0,1.96,0,2.99c1.15,0,2.16,0,3.18,0c0,3.38,0,6.76,0,10.1c-1.4,0-2.46,0-3.72,0c0-3.39,0-6.62,0-10.03c-2.3,0-4.4,0-6.52,0
			c-0.05-1.14-0.09-2.07-0.14-3.02c-1.09,0-2.01,0-2.98,0c-0.06,1.13-0.1,2.12-0.15,3.13c-1.09,0-1.97,0-2.95,0
			c-0.08,1.12-0.15,2.2-0.22,3.27c-2.27,0-4.38,0-6.52,0c-0.05-1.09-0.09-2.04-0.14-3.22c-2.19,0-4.29,0-6.42,0
			c0-1.23,0-2.21,0-3.35c2.28,0,4.42,0,6.56,0c0,1.01,0,2.01,0,3.03c1.14,0,2.05,0,2.94,0c0-1.07,0-1.98,0-2.95
			c-1.11,0-2.06,0-3.02,0c0-1,0-2,0-3.02c-3.35,0-6.48,0-9.61,0c0,4.3,0,8.46,0,12.56c1.17,0.16,2.17,0.3,3.17,0.44l-0.04-0.04
			c-0.1,1.07-0.19,2.14-0.29,3.23c-1.15,0-2.2,0-3.33,0c-0.08-1.21-0.15-2.27-0.22-3.32c-1.15,0-2.09,0-3.04,0c0-1.01,0-2.01,0-3.09
			c-1.1,0-2.02,0-2.93,0c0,1.02,0,1.92,0,2.85c1.11,0.06,2.06,0.11,3.01,0.16c0,1.14,0,2.29,0,3.44c-1.21,0.1-2.13,0.17-3.07,0.25
			c-0.09,1.06-0.17,1.98-0.25,3.04c-1.25,0-2.34,0-3.44,0c0-1,0-2.01,0-3.04c-1.13,0-2.04,0-3.12,0c0,1.08,0,2.03,0,2.97
			c-3.22,0-6.45,0-9.61,0c0,2.29,0,4.24,0,6.17c2.08,0,3.98,0,6,0c0.06-1.01,0.11-1.94,0.17-2.96c1.21-0.06,2.27-0.1,3.36-0.16
			c0-1.21,0-2.17,0-3.13c1.09,0.02,2.18,0.04,3.27,0.06c0,1.01,0,2.01,0,2.98c4.61,0,8.94,0,13.25,0c0.06-1.04,0.12-1.91,0.17-2.85
			c1.05-0.08,1.97-0.15,2.91-0.23c0.1-1.2,0.19-2.27,0.28-3.32c1.26-0.07,2.27-0.13,3.31-0.2c0.06-1.11,0.1-2.04,0.16-3.14
			c4.33,0,8.52,0,12.76,0c0.09-1.23,0.16-2.29,0.24-3.31c1.28,0,2.28,0,3.39,0c0,3.47,0,6.8,0,10.12c0,0,0.06-0.06,0.06-0.06
			c-3.33,0-6.66,0-10.09,0c0-1.04,0-1.9,0-2.93c-0.97,0-1.89,0-2.98,0c0,0.87,0,1.79,0,2.83c-1.18,0.08-2.19,0.15-3.46,0.23
			c0,3.33,0,6.63,0,9.98c-1.14,0-2.02,0-3.02,0c-0.07,0.97-0.14,1.98-0.23,3.25c-2.17,0-4.28,0-6.47,0c0,1.13,0,2,0,3.02
			c0.94,0.07,1.87,0.14,2.92,0.21c0,1.05,0,2.05,0,3.05c-3.34,0.45-3.34,0.45-3.51-2.97c-0.91,0-1.83,0-2.9,0
			c-0.06,0.99-0.11,1.99-0.18,3.13c-2.14,0-4.18,0-6.41,0c0,1,0,1.84,0,2.92c0.91,0.05,1.98,0.12,3.17,0.19c0,1.27,0,2.42,0,3.7
			c-2.17,0-4.28,0-6.58,0c0-1.07,0-2.14,0-3.31c-2.24,0-4.29,0-6.53,0c-0.07,1.08-0.15,2.15-0.24,3.45c-2.94,0-5.82,0.05-8.69-0.05
			c-0.44-0.01-1.21-0.69-1.22-1.07c-0.08-5.18-0.05-10.36-0.05-15.78c2.29,0,4.33,0,6.44,0c0-1.11,0-1.97,0-3
			c-0.94-0.08-1.87-0.16-2.91-0.25c0-2.15,0-4.26,0-6.52c0.95,0,1.81,0,2.84,0c0-1.06,0-1.98,0-3.14c-2,0-4.04,0-6.21,0
			c0-2.43,0-4.62,0-7c1.04-0.08,2.04-0.16,3.12-0.25c0-1.08,0-2.1,0-3.11c2.25,0,4.49,0,6.77,0c0-1.17,0-2.12,0-3.07
			c2.12,0,4.24,0,6.48,0c0-3.37,0-6.51,0-9.64c-1.03,0-1.94,0-3,0c0,2.21,0,4.26,0,6.4c-1.22,0.11-2.28,0.2-3.4,0.3
			c0,1.09,0,2.05,0,3c-2.19,0-4.38,0-6.77,0C19.4,104.03,19.4,104.97,19.4,105.92z M49.28,73.01c0-1.01,0-2.01,0-3.03
			c-1.15,0-2.06,0-2.95,0c0,1.07,0,1.98,0,2.96c1.11,0,2.06,0,3.02,0c0,1,0,2,0,3.01c1.13,0,2.04,0,2.93,0c0-1.06,0-1.97,0-2.94
			C51.18,73.01,50.23,73.01,49.28,73.01z M35.9,112.62c0.1,1,0.2,2,0.3,2.98c1.07,0,2.04,0,2.95,0c0-1.04,0-1.91,0-2.91
			c-1.16,0-2.24,0-3.33,0c0.08-1.17,0.17-2.33,0.26-3.53c1.12-0.07,2.11-0.14,3.02-0.2c0-1.05,0-1.91,0-2.76c-3.21,0-6.27,0-9.3,0
			c0,1.02,0,1.87,0,2.76c1.06,0.09,1.99,0.17,2.92,0.25c0.07,1.18,0.13,2.19,0.2,3.28C33.99,112.54,34.94,112.58,35.9,112.62z
			 M26.11,135.84c0-1.01,0-2.01,0-3.03c-1.16,0-2.07,0-2.95,0c0,1.07,0,1.98,0,2.96c1.11,0,2.07,0,3.02,0c0,1,0,2.01,0,3.01
			c3.37,0,6.51,0,9.66,0c0.08-1.07,0.16-2,0.23-2.93c1.1-0.05,2.04-0.1,3.09-0.15c0-1.05,0-1.97,0-2.91c-2.11,0-4.15,0-6.24,0
			c-0.09,1.04-0.18,1.96-0.27,3.05C30.38,135.84,28.25,135.84,26.11,135.84z M49.28,82.73c1.15,0,2.31,0,3.68,0
			c0,3.47,0,6.62,0,9.75c2.14,0,4.05,0,6.04,0c0-1.02,0-1.93,0-2.9c-1.04-0.08-1.97-0.14-2.86-0.21c0-3.46,0-6.76,0-10.18
			c1.03,0,1.9,0,2.82,0c0-0.97,0-1.8,0-2.56c-2.12,0-4.08,0-6.02,0c-0.07,1.05-0.13,1.92-0.2,2.89c-1.19,0.09-2.27,0.18-3.39,0.27
			c0,1.11,0,2.06,0,3.02c-1.01,0-2.01,0-2.99,0c0,1.28,0,2.33,0,3.33c1.04,0,1.9,0,2.91,0C49.28,84.91,49.28,83.82,49.28,82.73z
			 M72.55,86.47c-1.15-0.09-2.31-0.18-3.69-0.28c0-2.22,0-4.32,0-6.42c-3.25,0-6.26,0-9.31,0c0,3.26,0,6.4,0,9.62
			c1.09,0.06,2.02,0.11,3,0.16c0.09,1.07,0.18,1.99,0.26,2.88c1.07,0,1.98,0,2.94,0c0.05-1.02,0.09-1.88,0.14-2.97
			c2.22,0,4.33,0,6.6,0c0-1.17,0-2.12,0-3.07c1-0.1,2-0.19,3.03-0.29c0-1.12,0-2.12,0-3.22c-1.01,0-1.93,0-2.96,0
			C72.55,84.15,72.55,85.31,72.55,86.47z M36.14,93.08c-0.19,2.95-0.19,2.95,2.53,2.94c1.31-0.01,2.62,0,4.04,0
			c0,1.18,0,2.12,0,3.17c1.03,0,1.94,0,2.94,0c0-2.08,0-4.04,0-6.1C42.46,93.08,39.38,93.08,36.14,93.08z M26.05,138.93
			c-2.98,0.91-4.11-0.22-3.46-2.99c-1.14,0-2.05,0-2.99,0c0,2.1,0,4.05,0,6.02c2.24,0,4.34,0,6.45,0
			C26.05,141.01,26.05,140.22,26.05,138.93z M26.24,109.58c-0.1,1.14-0.18,2.06-0.26,2.98c-1.05,0.05-1.92,0.1-2.85,0.14
			c0,1.06,0,1.97,0,2.95c2.07,0,4.02,0,6,0c0-2.09,0-4.04,0-6.07C28.13,109.58,27.26,109.58,26.24,109.58z M62.23,102.77
			c0-3.32,0-6.46,0-9.63c-0.98,0-1.83,0-2.63,0c0,3.3,0,6.44,0,9.63C60.52,102.77,61.25,102.77,62.23,102.77z M36.14,126.11
			c0,1.04,0,1.95,0,2.85c2.22,0,4.32,0,6.39,0c0-1.03,0-1.89,0-2.85C40.33,126.11,38.24,126.11,36.14,126.11z M76.13,66.36
			c0,2.32,0,4.42,0,6.47c0.99,0,1.84,0,2.79,0c0-2.23,0-4.31,0-6.47C77.96,66.36,77.1,66.36,76.13,66.36z M36.1,102.83
			c1.17-0.06,2.11-0.1,3.05-0.15c0-1.18,0-2.02,0-2.8c-1.13,0-2.11,0-3.05,0C36.1,100.86,36.1,101.66,36.1,102.83z M75.48,96.01
			c0-1.07,0-1.98,0-2.89c-1.05,0-1.96,0-2.81,0c0,1.05,0,1.95,0,2.89C73.65,96.01,74.46,96.01,75.48,96.01z M75.43,76
			c0-0.92,0-1.87,0-2.92c-0.94,0-1.85,0-2.85,0c0,1.01,0,1.92,0,2.92C73.54,76,74.4,76,75.43,76z M39.59,105.78
			c1.17,0,2.07,0,2.86,0c0-1.09,0-1.99,0-2.78c-1.09,0-1.99,0-2.86,0C39.59,104.03,39.59,104.88,39.59,105.78z M65.95,96.21
			c0,1.14,0,2.05,0,2.94c1.05,0,1.95,0,2.85,0c0-1.05,0-1.96,0-2.94C67.8,96.21,66.94,96.21,65.95,96.21z M52.36,93.13
			c-1.15,0-2.05,0-2.91,0c0,1.01,0,1.86,0,2.81c1.04,0,1.94,0,2.91,0C52.36,94.97,52.36,94.11,52.36,93.13z M29.69,132.1
			c1.13,0,2.03,0,2.87,0c0-1,0-1.82,0-2.61c-1.07,0-1.96,0-2.87,0C29.69,130.44,29.69,131.23,29.69,132.1z M69.54,76.52
			c0,1.04,0,1.86,0,2.64c1.03,0,1.88,0,2.81,0c0-0.93,0-1.75,0-2.64C71.35,76.52,70.49,76.52,69.54,76.52z"/>
		<path d="M102.03,86.17c0-7.45-0.02-14.77,0.05-22.08c0-0.45,0.66-1.27,1.03-1.28c7.39-0.08,14.78-0.06,22.29-0.06
			c0,7.91,0,15.58,0,23.42C117.73,86.17,110.06,86.17,102.03,86.17z M121.81,82.71c0-5.58,0-10.94,0-16.25c-5.44,0-10.73,0-15.89,0
			c0,5.54,0,10.9,0,16.25C111.3,82.71,116.48,82.71,121.81,82.71z"/>
		<path d="M16.27,148.92c7.68,0,15.28,0,23.06,0c0,7.75,0,15.42,0,23.25c-7.62,0-15.23,0-23.06,0
			C16.27,164.47,16.27,156.75,16.27,148.92z M19.6,152.44c0,5.59,0,10.9,0,16.16c5.51,0,10.89,0,16.2,0c0-5.49,0-10.81,0-16.16
			C30.35,152.44,25.04,152.44,19.6,152.44z"/>
		<path d="M39.36,62.75c0,7.91,0,15.58,0,23.42c-7.7,0-15.43,0-23.29,0c0-7.42-0.02-14.74,0.04-22.07c0-0.45,0.61-1.29,0.94-1.29
			C24.45,62.73,31.84,62.75,39.36,62.75z M19.65,66.37c0,5.56,0,10.91,0,16.28c5.49,0,10.79,0,16.17,0c0-5.47,0-10.83,0-16.28
			C30.37,66.37,25.06,66.37,19.65,66.37z"/>
		<path d="M99.17,69.78c-1.32,0-2.27,0-3.44,0c0-1.1,0-2.17,0-3.46c-2.32,0-4.43,0-6.64,0c0-1.24,0-2.25,0-3.56
			c2.97,0,5.97-0.04,8.97,0.05c0.38,0.01,1.03,0.66,1.05,1.05C99.23,65.75,99.17,67.66,99.17,69.78z"/>
		<path d="M118.75,152.41c0,1.14,0,2.15,0,3.15c-3.54,0.67-3.72,0.49-3.26-3.15C116.48,152.41,117.49,152.41,118.75,152.41z"/>
		<path d="M108.79,168.87c1.15,0,2.15,0,3.27,0c0,1.09,0,2.1,0,3.11C108.83,172.88,108.5,172.6,108.79,168.87z"/>
		<path d="M108.86,89.59c0.98,0,1.99,0,3.16,0c0,1.01,0,2.06,0,3.13C108.65,93.42,108.44,93.22,108.86,89.59z"/>
		<path class="st1" d="M56.02,102.78c-2.14,0-4.28,0-6.56,0c0,1.13,0,2.11,0,3.35c2.13,0,4.23,0,6.42,0
			c0.05,1.19,0.1,2.13,0.14,3.22c2.14,0,4.25,0,6.52,0c0.07-1.07,0.15-2.14,0.22-3.27c0.98,0,1.86,0,2.95,0
			c0.05-1.02,0.1-2.01,0.15-3.13c0.96,0,1.88,0,2.98,0c0.04,0.95,0.09,1.89,0.14,3.02c2.11,0,4.22,0,6.52,0c0,3.42,0,6.64,0,10.03
			c1.26,0,2.32,0,3.72,0c0-3.34,0-6.72,0-10.1c0,0-0.09,0.07-0.09,0.07c1.06,0,2.12,0,3.18,0l-0.09-0.08c0,1.1,0,2.2,0,3.45
			c1.09,0.09,2.01,0.17,3.08,0.26c0.07,0.95,0.13,1.87,0.21,2.94c1.1,0,2.11,0,3.36,0c0,1.22,0,2.28,0,3.47
			c1.14,0.1,2.06,0.19,3.1,0.28c0,0.97,0,1.89,0,2.93c-0.95,0-1.81,0-2.84,0c-0.09,1.04-0.17,1.97-0.27,3.13c-3.19,0-6.41,0-9.78,0
			c0,1.15,0,2.06,0,3.09c-1.02,0-1.89,0-2.98,0c0-1.92,0-3.88,0-6.11c-1.35,0-2.5,0-3.65,0c0-3.33,0-6.65,0-10.12
			c-1.11,0-2.11,0-3.39,0c-0.07,1.02-0.15,2.08-0.24,3.31c-4.24,0-8.43,0-12.76,0c-0.05,1.1-0.1,2.03-0.16,3.14
			c-1.04,0.06-2.05,0.12-3.31,0.2c-0.09,1.06-0.18,2.12-0.28,3.32c-0.94,0.07-1.86,0.14-2.91,0.23c-0.06,0.94-0.11,1.8-0.17,2.85
			c-4.31,0-8.64,0-13.25,0c0-0.97,0-1.98,0-2.98l-0.08,0.08c1.09,0,2.19,0,3.44,0c0.09-1.07,0.17-1.98,0.25-3.04
			c0.94-0.08,1.86-0.15,3.07-0.25c0-1.15,0-2.3,0-3.44l-0.07,0.08c0.95,0,1.89,0,3.04,0c0.07,1.05,0.14,2.11,0.22,3.32
			c1.13,0,2.18,0,3.33,0c0.1-1.09,0.19-2.16,0.28-3.24c1.08-0.11,2.16-0.21,3.41-0.33c-0.05-1.16-0.1-2.21-0.15-3.24
			c-1.29,0-2.29,0-3.49,0c0.1,1.31,0.18,2.46,0.27,3.62c-1-0.14-2-0.28-3.17-0.44c0-4.1,0-8.26,0-12.56c3.12,0,6.25,0,9.61,0
			c0,1.02,0,2.02,0,3.02L56.02,102.78z"/>
		<path class="st1" d="M79.29,86.39c-0.07-1.1-0.14-2.21-0.22-3.51c-0.91-0.07-1.83-0.14-2.93-0.22c0-1.94,0-3.9,0-6.04
			c1.91,0,3.87,0,6.07,0c0.05,0.82,0.1,1.76,0.17,2.93c2.09,0,4.2,0,6.54,0c0,2.34,0,4.44,0,6.67c1.24,0,2.25,0,3.5,0
			c0-1.05,0-2.11,0-3.45c1.25,0,2.26,0,3.27,0c0,3.18,0,6.35,0,9.68c-1.07,0-1.98,0-3.06,0c-0.06-0.89-0.13-1.81-0.2-2.84
			c-2.28,0-4.47,0-6.67,0c-0.78,3.15-0.72,3.21,3.19,3.54c0,2.09,0,4.2,0,6.48c1.12,0.06,2.05,0.11,3.06,0.16c0,1,0,1.87,0,2.93
			c-0.89,0.06-1.81,0.12-2.87,0.2c0,1.02,0,2.01,0,3.15c2.08,0,4.13,0,6.42,0c0.05,0.98,0.09,1.83,0.14,2.86c-3.23,0-6.37,0-9.7,0
			c-0.08-0.84-0.16-1.76-0.27-3c-1.17,0-2.32,0-3.48,0c0,0,0.09,0.08,0.09,0.08c0-1,0-2,0-3.01c-1.23,0-2.28,0-3.38,0
			c0.07,1.12,0.14,2.06,0.2,3.01c0,0,0.09-0.07,0.09-0.07c-1.02,0-2.03,0-3.18,0c0-1.03,0-1.89,0-2.99c-1.19,0-2.25,0-3.44,0
			c0-1.15,0-2.07,0-3.11c1.04-0.07,2.05-0.14,3.28-0.22c0.06-1.1,0.11-2.17,0.18-3.41c2.06,0,4.03,0,6.2,0c0-3.41,0-6.63,0-9.85
			c1.15,0,2.3,0,3.43,0c0-1.33,0-2.38,0-3.41c-1.2,0-2.26,0-3.39,0c0,1.27,0,2.36,0,3.46c-1.03-0.01-2.07-0.03-3.1-0.04
			C79.21,86.32,79.29,86.39,79.29,86.39z"/>
		<path class="st1" d="M91.98,158.91c-0.98,0.04-1.85,0.08-2.85,0.13c-0.09,0.98-0.17,1.9-0.26,2.94c-0.97,0-1.89,0-2.98,0
			c0-2.13,0-4.19,0-6.4c-1.23,0-2.29,0-3.5,0c-0.05,1.02-0.1,2.03-0.15,3.22c-0.92,0-1.84,0-2.92,0c0-2.03,0-4.14,0-6.48
			c2.11,0,4.22,0,6.42,0c0-3.46,0-6.68,0-10.11c-1.09-0.07-2.09-0.13-3.25-0.2c0-0.86,0-1.71,0-2.76c4.29,0,8.6,0,13.04,0
			c0,0.92,0,1.76,0,2.6c-3.36,0.58-3.36,0.58-3.51,3.6c-0.9,0.08-1.82,0.17-2.9,0.27c0,2.1,0,4.21,0,6.5
			c0.91,0.06,1.83,0.12,2.85,0.19C91.98,154.6,91.98,156.71,91.98,158.91z"/>
		<path class="st1" d="M65.59,136.01c0-3.24,0-6.47,0-9.86c1.24,0,2.15,0,3.33,0c0,2.09,0,4.2,0,6.41c1.26,0,2.27,0,3.52,0
			c0-2.12,0-4.23,0-6.45c1.1,0,1.96,0,3.07,0c0,3.09,0,6.24,0,9.54c1.22,0.1,2.22,0.18,3.38,0.27c0,1.99,0,3.94,0,6.06
			c-0.87,0-1.78,0-2.83,0c0-0.92,0-1.79,0-2.85c-1.19,0-2.25,0-3.46,0c-0.06,0.87-0.13,1.8-0.21,2.92c-2.37-0.23-4.36,0.06-3.3,3.39
			c-1.13,0-2.05,0-3.17,0c-0.06-0.98-0.12-2.05-0.18-3.24c-0.96-0.05-1.82-0.09-2.87-0.14c0-2,0-4.02,0-6.26
			c0.93,0.06,1.85,0.12,2.78,0.18c0.1,1.01,0.2,2.01,0.3,3.03c1.14,0,2.19,0,3.27,0c0-1.14,0-2.11,0-3.29
			C67.89,135.82,66.74,135.91,65.59,136.01z"/>
		<path class="st1" d="M72.44,152.25c0,0.96,0,1.91,0,3.11c-2.16,0-4.28,0-6.53,0c-0.06,1.24-0.11,2.25-0.17,3.44
			c-0.91,0-1.82,0-2.98,0c0-0.99,0-2.05,0-3.29c-1.22-0.06-2.23-0.11-3.26-0.17c0-1.01,0-1.94,0-3c1.07,0,2.01,0,3.06,0
			c0-1.15,0-2.16,0-3.36c-2.11,0-4.2,0-6.49,0c0,2.02,0,4.06,0,6.26c-1.1,0-2.01,0-3.2,0c0-1,0-2.01,0-3.02c0-3.35,0-3.35-3.37-3.45
			c0-0.82,0-1.65,0-2.76c2.6,0.55,4.12-0.32,3.29-3.43c2.22,0,4.18,0,6.26,0c0.06,1.11,0.11,2.12,0.17,3.38c2.16,0,4.27,0,6.5,0
			c0.06,1.11,0.12,1.97,0.18,3.03c0.9,0.08,1.82,0.17,2.91,0.27c0.07,0.92,0.15,1.84,0.25,3.06c1.17,0,2.32,0,3.47,0L72.44,152.25z"
			/>
		<path class="st1" d="M102.4,138.81c-2.14,0-4.27,0-6.6,0c-0.08-0.89-0.16-1.81-0.25-2.88c-0.92-0.07-1.84-0.14-2.9-0.22
			c0-0.96,0-1.88,0-2.95c0.95-0.05,1.88-0.1,2.93-0.15c0.05-1.05,0.09-1.99,0.14-3.14c2.14,0,4.24,0,6.47,0
			c0.09-1.21,0.16-2.21,0.25-3.34c2.07,0,4.11,0,6.17,0c0,0.97,0,1.89,0,2.9c-1.03,0.07-1.97,0.13-3.05,0.2
			c-0.06,0.99-0.11,1.92-0.17,3.02c-2.16,0-4.21,0-6.42,0c0,1.24,0,2.29,0,3.51c0.95,0,1.89,0,2.94,0c0.15,1.13,0.28,2.13,0.41,3.13
			C102.32,138.88,102.4,138.81,102.4,138.81z"/>
		<path class="st1" d="M99.31,146.13c3.15,0,6.17,0,9.28,0c0,3.05,0,6,0,9.11c-2.99,0-6.06,0-9.28,0
			C99.31,152.29,99.31,149.3,99.31,146.13z M105.97,152.24c-0.21-1.21-0.06-2.59-0.67-3.17c-0.53-0.5-2.3-0.46-2.82,0.05
			c-0.59,0.58-0.4,1.95-0.57,3.12C103.32,152.24,104.4,152.24,105.97,152.24z"/>
		<path class="st1" d="M105.87,102.91c1.02,0,1.81,0,2.74,0c0,1.02,0,1.95,0,3.04c2.38,0,4.62,0,7.01,0
			c0.05-0.98,0.1-1.92,0.16-2.99c0.95,0,1.88,0,2.92,0c0,1.96,0,3.92,0,6.02c-1.04,0.06-2.05,0.13-3.3,0.21
			c-0.07,1.1-0.14,2.16-0.21,3.3c-0.98,0-1.84,0-2.88,0c-0.08-1.06-0.15-2.07-0.24-3.3c-2.01,0-4.04,0-6.21,0
			C105.87,107.01,105.87,105.07,105.87,102.91z"/>
		<path class="st1" d="M85.44,129.08c0,2.39,0,4.44,0,6.6c-1.03,0-1.89,0-2.94,0c-0.07-1.07-0.13-2.13-0.21-3.31
			c-1.03-0.06-1.96-0.12-3.01-0.19c0-0.92,0-1.77,0-2.73c0.96,0,1.88,0,2.97,0c0-1.12,0-2.12,0-3.3c3.3,0,6.44,0,9.72,0
			c0,0.91,0,1.82,0,2.92C89.88,129.08,87.82,129.08,85.44,129.08z"/>
		<path class="st1" d="M105.79,135.8c0-1.19,0-2.06,0-3.03c1.03-0.07,2.03-0.14,3.19-0.21c0-1.02,0-1.95,0-3.05
			c1.07-0.05,1.99-0.1,3.09-0.16c0.05-1.01,0.11-2.02,0.17-3.2c0.91,0,1.82,0,2.9,0c0,1.88,0,3.84,0,5.99
			c-0.86,0.06-1.77,0.13-2.92,0.22c0,2.12,0,4.23,0,6.44c-1.15,0-2.06,0-3.11,0c-0.06-1-0.11-1.92-0.18-3
			C107.88,135.8,106.94,135.8,105.79,135.8z"/>
		<path class="st1" d="M102.31,112.63c-0.09,0.95-0.17,1.9-0.28,3.05c-0.91,0.05-1.91,0.11-3.15,0.18
			c-0.06,1.09-0.11,2.15-0.17,3.34c-1.01,0-1.93,0-2.98,0c-0.05-1.11-0.1-2.12-0.16-3.29c-0.95-0.08-1.88-0.15-2.93-0.23
			c0-0.96,0-1.88,0-2.95c0.93-0.06,1.86-0.13,2.91-0.2c0.05-0.95,0.1-1.81,0.16-2.85c0.91,0,1.82,0,2.93,0
			c0.07,0.83,0.15,1.75,0.24,2.83c1.18,0.07,2.34,0.14,3.49,0.21L102.31,112.63z"/>
		<path class="st1" d="M102.46,96.2c-1,3.17-0.89,3.31,2.87,3.64c0,0.9,0,1.82,0,2.88c-1.02,0.05-2.03,0.11-3.18,0.17
			c0,2,0,3.96,0,6.05c-1,0-1.86,0-2.85,0c0-4.14,0-8.32,0-12.7c1.08,0,2.15,0,3.22,0C102.53,96.25,102.46,96.2,102.46,96.2z"/>
		<path class="st1" d="M121.84,122.34c-1.06,0-1.92,0-3.01,0c0-2.2,0-4.3,0-6.54c-1.09,0-1.95,0-2.96,0c0-1.06,0-1.98,0-3.04
			c1.94,0,3.89,0,5.98,0C121.84,115.92,121.84,119.06,121.84,122.34z"/>
		<path class="st1" d="M118.77,135.67c0.05-1.07,0.1-1.94,0.14-2.89c1,0,1.86,0,2.89,0c0,1.91,0,3.87,0,5.99c-1.88,0-3.83,0-5.93,0
			c0-0.87,0-1.78,0-2.84C116.76,135.85,117.68,135.76,118.77,135.67z"/>
		<path class="st1" d="M46.33,159.06c1,0,1.87,0,2.88,0c0.06-1.01,0.11-1.95,0.17-3.05c0.9,0,1.82,0,2.9,0c0,1.86,0,3.82,0,5.94
			c-1.9,0-3.85,0-5.95,0C46.33,161.06,46.33,160.15,46.33,159.06z"/>
		<path class="st1" d="M92.61,152.16c0-2.1,0-3.99,0-6.01c0.99,0,1.9,0,2.93,0c0,1.99,0,3.93,0,6.01
			C94.59,152.16,93.68,152.16,92.61,152.16z"/>
		<path class="st1" d="M102.32,138.88c2.04,0.12,4.09,0.23,6.25,0.35c0,0.91,0,1.77,0,2.75c-1.95,0-3.92,0-6.18,0
			c0-1.03,0-2.1,0-3.17C102.4,138.81,102.32,138.88,102.32,138.88z"/>
		<path class="st1" d="M108.63,119.44c0,1.02,0,1.89,0,2.88c-2.03,0-4,0-6.13,0c0-0.92,0-1.83,0-2.88
			C104.45,119.44,106.42,119.44,108.63,119.44z"/>
		<path class="st1" d="M115.2,116.28c0,2.07,0,3.98,0,6.02c-0.98,0-1.89,0-2.93,0c0-2,0-3.96,0-6.02
			C113.24,116.28,114.11,116.28,115.2,116.28z"/>
		<path class="st1" d="M105.36,159.22c0,0.87,0,1.72,0,2.73c-1.98,0-3.99,0-6.12,0c0-0.86,0-1.71,0-2.73
			C101.24,159.22,103.24,159.22,105.36,159.22z"/>
		<path class="st1" d="M72.44,165.69c0.95,0,1.91,0,3.02,0c0,0.97,0,1.89,0,2.95c-0.89,0-1.8,0-2.94,0c0-1.02,0-2.02,0-3.03
			C72.52,165.61,72.44,165.69,72.44,165.69z"/>
		<path class="st1" d="M118.87,168.82c0-0.95,0-1.91,0-3.02c0.97,0,1.89,0,2.95,0c0,0.88,0,1.8,0,2.94c-1.02,0-2.02,0-3.03,0
			C118.79,168.74,118.87,168.82,118.87,168.82z"/>
		<path class="st1" d="M119.01,142.58c1.03,0,1.89,0,2.85,0c0,1,0,1.91,0,2.92c-1,0-1.9,0-2.85,0
			C119.01,144.45,119.01,143.49,119.01,142.58z"/>
		<path class="st1" d="M72.66,142.58c0.89,0,1.75,0,2.78,0c0,0.86,0,1.77,0,2.86c-0.79,0-1.69,0-2.78,0
			C72.66,144.65,72.66,143.74,72.66,142.58z"/>
		<path class="st1" d="M102.39,112.71c0-0.96,0-1.91,0-3.04c0.93,0,1.84,0,2.92,0c0,0.83,0,1.73,0,2.8c-0.99,0.05-2,0.1-3,0.15
			C102.31,112.63,102.39,112.71,102.39,112.71z"/>
		<path class="st1" d="M72.52,152.33c0-0.95,0-1.91,0-3.02c0.97,0,1.89,0,2.95,0c0,0.89,0,1.8,0,2.94c-1.02,0-2.02,0-3.03,0
			C72.44,152.25,72.52,152.33,72.52,152.33z"/>
		<path class="st1" d="M49.23,152.48c0,0.98,0,1.84,0,2.82c-1,0-1.92,0-2.94,0c0-0.93,0-1.79,0-2.82
			C47.16,152.48,48.07,152.48,49.23,152.48z"/>
		<path class="st1" d="M59.02,156.01c0,1.04,0,1.89,0,2.85c-1.01,0-1.91,0-2.93,0c0-1,0-1.91,0-2.85
			C57.15,156.01,58.11,156.01,59.02,156.01z"/>
		<path class="st1" d="M98.66,96.01c-1.04,0-1.84,0-2.82,0c0-0.95,0-1.85,0-2.89c0.86,0,1.77,0,2.82,0
			C98.66,94.02,98.66,94.92,98.66,96.01z"/>
		<path class="st1" d="M79.1,162.05c-1.16,0-2.02,0-3,0c0-0.95,0-1.85,0-2.89c0.86,0,1.7,0,2.82,0
			C78.97,160.03,79.03,160.93,79.1,162.05z"/>
		<path class="st1" d="M62.42,162.04c-1.05,0-1.92,0-2.91,0c0-0.96,0-1.87,0-2.89c0.92,0,1.76,0,2.75,0
			C62.31,160.08,62.36,160.95,62.42,162.04z"/>
		<path class="st1" d="M99.27,122.6c0.92,0,1.7,0,2.66,0c0,0.98,0,1.88,0,2.88c-0.85,0-1.71,0-2.66,0
			C99.27,124.49,99.27,123.57,99.27,122.6z"/>
		<path class="st1" d="M59.5,168.66c0-1.04,0-1.9,0-2.89c0.93,0,1.79,0,2.78,0c0,0.94,0,1.85,0,2.89
			C61.41,168.66,60.56,168.66,59.5,168.66z"/>
		<path class="st1" d="M82.19,148.85c-1.06,0-1.94,0-2.92,0c0-0.9,0-1.75,0-2.71c0.96,0,1.88,0,2.92,0
			C82.19,147.03,82.19,147.87,82.19,148.85z"/>
		<path class="st1" d="M72.42,146.14c0,0.95,0,1.67,0,2.56c-0.98,0-1.89,0-2.93,0c0-0.75,0-1.6,0-2.56
			C70.42,146.14,71.34,146.14,72.42,146.14z"/>
		<path class="st1" d="M72.48,86.4c0,0.95,0,1.9,0,3.07c-2.26,0-4.38,0-6.6,0c-0.05,1.08-0.09,1.95-0.14,2.97c-0.96,0-1.88,0-2.94,0
			c-0.08-0.9-0.16-1.82-0.26-2.88c-0.98-0.05-1.91-0.1-3-0.16c0-3.22,0-6.36,0-9.62c3.05,0,6.06,0,9.31,0c0,2.09,0,4.2,0,6.42
			c1.38,0.11,2.54,0.19,3.69,0.28L72.48,86.4z M62.49,82.79c0,1.16,0,2.27,0,3.37c1.17,0,2.22,0,3.18,0c0-1.24,0-2.3,0-3.37
			C64.55,82.79,63.6,82.79,62.49,82.79z"/>
		<path class="st1" d="M49.35,82.81c0-0.96,0-1.91,0-3.02c1.12-0.09,2.2-0.17,3.39-0.27c0.07-0.97,0.12-1.84,0.2-2.89
			c1.94,0,3.89,0,6.02,0c0,0.76,0,1.59,0,2.56c-0.93,0-1.79,0-2.82,0c0,3.43,0,6.72,0,10.18c0.89,0.06,1.82,0.13,2.86,0.21
			c0,0.96,0,1.88,0,2.9c-1.99,0-3.89,0-6.04,0c0-3.13,0-6.28,0-9.75c-1.38,0-2.53,0-3.68,0L49.35,82.81z"/>
		<path class="st1" d="M26.11,135.84c2.13,0,4.27,0,6.54,0c0.1-1.09,0.18-2.01,0.27-3.05c2.09,0,4.13,0,6.24,0c0,0.93,0,1.85,0,2.91
			c-1.05,0.05-1.99,0.1-3.09,0.15c-0.07,0.92-0.15,1.85-0.23,2.93c-3.16,0-6.3,0-9.66,0c0-1,0-2,0-3.01L26.11,135.84z"/>
		<path class="st1" d="M32.71,119.22c0,0.96,0,1.91,0,3.13c-1.09,0.05-2.15,0.1-3.36,0.16c-0.06,1.02-0.11,1.94-0.17,2.96
			c-2.02,0-3.93,0-6,0c0-1.93,0-3.88,0-6.17c3.16,0,6.38,0,9.61,0C32.79,119.3,32.71,119.22,32.71,119.22z"/>
		<path class="st1" d="M26.17,102.85c0-0.95,0-1.91,0-3c1.12-0.1,2.19-0.2,3.4-0.3c0-2.15,0-4.19,0-6.4c1.07,0,1.98,0,3,0
			c0,3.13,0,6.27,0,9.64c-2.24,0-4.36,0-6.48,0L26.17,102.85z"/>
		<path class="st1" d="M35.89,112.63c-0.95-0.04-1.9-0.08-2.97-0.13c-0.07-1.08-0.13-2.1-0.2-3.28c-0.94-0.08-1.86-0.16-2.92-0.25
			c0-0.89,0-1.75,0-2.76c3.02,0,6.08,0,9.3,0c0,0.86,0,1.71,0,2.76c-0.91,0.06-1.9,0.13-3.02,0.2c-0.09,1.2-0.17,2.36-0.26,3.53
			C35.82,112.7,35.89,112.63,35.89,112.63z"/>
		<path class="st1" d="M36.14,93.08c3.24,0,6.32,0,9.51,0c0,2.06,0,4.03,0,6.1c-1,0-1.91,0-2.94,0c0-1.05,0-1.99,0-3.17
			c-1.42,0-2.73,0-4.04,0C35.94,96.03,35.94,96.03,36.14,93.08z"/>
		<path class="st1" d="M26.05,138.93c0,1.29,0,2.08,0,3.03c-2.12,0-4.22,0-6.45,0c0-1.96,0-3.91,0-6.02c0.94,0,1.85,0,2.99,0
			C21.95,138.71,23.07,139.84,26.05,138.93z"/>
		<path class="st1" d="M26.24,109.58c1.03,0,1.89,0,2.89,0c0,2.03,0,3.98,0,6.07c-1.98,0-3.93,0-6,0c0-0.98,0-1.89,0-2.95
			c0.94-0.05,1.8-0.09,2.85-0.14C26.06,111.64,26.14,110.71,26.24,109.58z"/>
		<path class="st1" d="M62.23,102.77c-0.99,0-1.72,0-2.63,0c0-3.19,0-6.33,0-9.63c0.8,0,1.64,0,2.63,0
			C62.23,96.3,62.23,99.44,62.23,102.77z"/>
		<path class="st1" d="M26.1,102.78c0,0.95,0,1.9,0,3.07c-2.28,0-4.53,0-6.77,0c0,0,0.08,0.07,0.08,0.07c0-0.95,0-1.89,0-3.07
			c2.39,0,4.58,0,6.77,0C26.17,102.85,26.1,102.78,26.1,102.78z"/>
		<path class="st1" d="M36.14,126.11c2.1,0,4.19,0,6.39,0c0,0.96,0,1.82,0,2.85c-2.07,0-4.17,0-6.39,0
			C36.14,128.06,36.14,127.15,36.14,126.11z"/>
		<path class="st1" d="M76.13,66.36c0.97,0,1.83,0,2.79,0c0,2.16,0,4.24,0,6.47c-0.95,0-1.79,0-2.79,0
			C76.13,70.77,76.13,68.68,76.13,66.36z"/>
		<path class="st1" d="M72.55,86.47c0-1.16,0-2.32,0-3.59c1.04,0,1.95,0,2.96,0c0,1.1,0,2.1,0,3.22c-1.03,0.1-2.03,0.19-3.03,0.29
			C72.48,86.4,72.55,86.47,72.55,86.47z"/>
		<path class="st1" d="M49.28,82.73c0,1.09,0,2.18,0,3.4c-1.02,0-1.87,0-2.91,0c0-0.99,0-2.05,0-3.33c0.98,0,1.98,0,2.99,0
			C49.35,82.81,49.28,82.73,49.28,82.73z"/>
		<path class="st1" d="M36.1,102.83c0-1.17,0-1.97,0-2.95c0.94,0,1.92,0,3.05,0c0,0.78,0,1.62,0,2.8
			C38.21,102.72,37.28,102.77,36.1,102.83z"/>
		<path class="st1" d="M35.82,112.7c1.08,0,2.17,0,3.33,0c0,1,0,1.87,0,2.91c-0.91,0-1.88,0-2.95,0c-0.1-0.98-0.2-1.98-0.3-2.98
			C35.89,112.63,35.82,112.7,35.82,112.7z"/>
		<path class="st1" d="M75.48,96.01c-1.02,0-1.83,0-2.81,0c0-0.94,0-1.84,0-2.89c0.86,0,1.76,0,2.81,0
			C75.48,94.03,75.48,94.94,75.48,96.01z"/>
		<path class="st1" d="M26.18,135.78c-0.95,0-1.91,0-3.02,0c0-0.98,0-1.89,0-2.96c0.88,0,1.8,0,2.95,0c0,1.01,0,2.02,0,3.03
			C26.11,135.84,26.18,135.78,26.18,135.78z"/>
		<path class="st1" d="M75.43,76c-1.03,0-1.89,0-2.85,0c0-1.01,0-1.91,0-2.92c1,0,1.9,0,2.85,0C75.43,74.13,75.43,75.08,75.43,76z"
			/>
		<path class="st1" d="M79.21,86.32c-0.09,0.94-0.19,1.88-0.3,2.99c-0.91,0-1.81,0-2.83,0c0-0.91,0-1.77,0-2.92c1.05,0,2.13,0,3.2,0
			C79.29,86.39,79.21,86.32,79.21,86.32z"/>
		<path class="st1" d="M49.28,73.01c0.95,0,1.9,0,3,0c0,0.97,0,1.88,0,2.94c-0.89,0-1.8,0-2.93,0c0-1.01,0-2.01,0-3.01L49.28,73.01z
			"/>
		<path class="st1" d="M49.35,72.94c-0.95,0-1.91,0-3.02,0c0-0.98,0-1.89,0-2.96c0.88,0,1.8,0,2.95,0c0,1.01,0,2.02,0,3.03
			C49.28,73.01,49.35,72.94,49.35,72.94z"/>
		<path class="st1" d="M35.98,119.28c-1.09-0.02-2.18-0.04-3.27-0.06c0,0,0.08,0.07,0.08,0.07c0-0.95,0-1.89,0-2.97
			c1.07,0,1.99,0,3.12,0c0,1.03,0,2.03,0,3.04C35.9,119.36,35.98,119.28,35.98,119.28z"/>
		<path class="st1" d="M42.67,112.63c-0.95-0.05-1.89-0.1-3.01-0.16c0-0.93,0-1.83,0-2.85c0.92,0,1.83,0,2.93,0
			c0,1.07,0,2.08,0,3.09C42.59,112.71,42.67,112.63,42.67,112.63z"/>
		<path class="st1" d="M55.95,102.86c0.95,0,1.91,0,3.02,0c0,0.97,0,1.88,0,2.95c-0.89,0-1.8,0-2.94,0c0-1.02,0-2.02,0-3.03
			C56.02,102.78,55.95,102.86,55.95,102.86z"/>
		<path class="st1" d="M39.59,105.78c0-0.89,0-1.75,0-2.78c0.87,0,1.77,0,2.86,0c0,0.79,0,1.69,0,2.78
			C41.67,105.78,40.76,105.78,39.59,105.78z"/>
		<path class="st1" d="M65.95,96.21c0.99,0,1.85,0,2.85,0c0,0.98,0,1.89,0,2.94c-0.89,0-1.8,0-2.85,0
			C65.95,98.25,65.95,97.34,65.95,96.21z"/>
		<path class="st1" d="M52.36,93.13c0,0.98,0,1.84,0,2.81c-0.97,0-1.87,0-2.91,0c0-0.95,0-1.8,0-2.81
			C50.31,93.13,51.21,93.13,52.36,93.13z"/>
		<path class="st1" d="M29.69,132.1c0-0.87,0-1.66,0-2.61c0.91,0,1.8,0,2.87,0c0,0.79,0,1.61,0,2.61
			C31.72,132.1,30.82,132.1,29.69,132.1z"/>
		<path class="st1" d="M69.54,76.52c0.95,0,1.81,0,2.81,0c0,0.89,0,1.71,0,2.64c-0.92,0-1.77,0-2.81,0
			C69.54,78.37,69.54,77.56,69.54,76.52z"/>
		<path class="st1" d="M121.81,82.71c-5.33,0-10.51,0-15.89,0c0-5.36,0-10.72,0-16.25c5.17,0,10.45,0,15.89,0
			C121.81,71.77,121.81,77.13,121.81,82.71z M118.67,79.64c0-3.58,0-6.8,0-10.16c-2.95,0-5.75-0.07-8.54,0.06
			c-0.51,0.02-1.38,0.83-1.41,1.31c-0.15,2.43-0.14,4.88-0.01,7.31c0.03,0.51,0.83,1.39,1.3,1.41
			C112.88,79.71,115.75,79.64,118.67,79.64z"/>
		<path class="st1" d="M19.6,152.44c5.44,0,10.75,0,16.2,0c0,5.36,0,10.67,0,16.16c-5.31,0-10.68,0-16.2,0
			C19.6,163.34,19.6,158.03,19.6,152.44z M22.7,155.52c0,3.49,0,6.72,0,9.97c3.42,0,6.71,0,9.99,0c0-3.4,0-6.63,0-9.97
			C29.34,155.52,26.11,155.52,22.7,155.52z"/>
		<path class="st1" d="M19.65,66.37c5.42,0,10.73,0,16.17,0c0,5.44,0,10.8,0,16.28c-5.38,0-10.68,0-16.17,0
			C19.65,77.28,19.65,71.93,19.65,66.37z M22.58,79.51c3.61,0,6.84,0,10.02,0c0-3.42,0-6.7,0-10.01c-2.95,0-5.7-0.07-8.43,0.06
			c-0.55,0.02-1.5,0.76-1.52,1.21C22.51,73.63,22.58,76.51,22.58,79.51z"/>
		<path d="M49.51,112.84c-0.09-1.15-0.17-2.31-0.27-3.62c1.2,0,2.2,0,3.49,0c0.05,1.03,0.1,2.08,0.15,3.24
			c-1.26,0.12-2.34,0.22-3.41,0.33C49.47,112.8,49.51,112.84,49.51,112.84z"/>
		<path d="M79.14,105.98c-0.06-0.95-0.13-1.89-0.2-3.01c1.11,0,2.15,0,3.38,0c0,1.01,0,2.01,0,3.01
			C81.26,105.98,80.2,105.98,79.14,105.98z"/>
		<path d="M82.31,86.36c0-1.1,0-2.19,0-3.46c1.13,0,2.19,0,3.39,0c0,1.03,0,2.09,0,3.41c-1.14,0-2.29,0-3.43,0
			C82.27,86.32,82.31,86.36,82.31,86.36z"/>
		<path d="M65.59,136.01c1.15-0.09,2.3-0.19,3.61-0.3c0,1.18,0,2.15,0,3.29c-1.08,0-2.13,0-3.27,0c-0.1-1.02-0.2-2.03-0.3-3.03
			C65.63,135.97,65.59,136.01,65.59,136.01z"/>
		<path d="M105.97,152.24c-1.57,0-2.66,0-4.07,0c0.17-1.17-0.02-2.54,0.57-3.12c0.52-0.51,2.3-0.54,2.82-0.05
			C105.91,149.65,105.76,151.02,105.97,152.24z"/>
		<path d="M62.49,82.79c1.11,0,2.06,0,3.18,0c0,1.07,0,2.13,0,3.37c-0.95,0-2,0-3.18,0C62.49,85.05,62.49,83.95,62.49,82.79z"/>
		<path d="M118.67,79.64c-2.93,0-5.79,0.07-8.65-0.07c-0.48-0.02-1.27-0.89-1.3-1.41c-0.14-2.43-0.14-4.88,0.01-7.31
			c0.03-0.49,0.9-1.29,1.41-1.31c2.79-0.13,5.59-0.06,8.54-0.06C118.67,72.85,118.67,76.06,118.67,79.64z"/>
		<path d="M22.7,155.52c3.41,0,6.64,0,9.99,0c0,3.34,0,6.57,0,9.97c-3.28,0-6.57,0-9.99,0C22.7,162.23,22.7,159,22.7,155.52z"/>
		<path d="M22.58,79.51c0-3-0.07-5.88,0.07-8.74c0.02-0.45,0.97-1.19,1.52-1.21c2.74-0.13,5.48-0.06,8.43-0.06
			c0,3.32,0,6.59,0,10.01C29.42,79.51,26.19,79.51,22.58,79.51z"/>
	</g>
	<g>
		<g>
			<linearGradient id="SVGID_1_" gradientUnits="userSpaceOnUse" x1="107.6544" y1="25.597" x2="89.0662" y2="12.5813">
				<stop  offset="0" style="stop-color:#046941"/>
				<stop  offset="0.4" style="stop-color:#037B48"/>
				<stop  offset="1" style="stop-color:#87C541"/>
			</linearGradient>
			<path class="st6" d="M95.58,11.34c-1.64,0.33-2.24,1.07-2.18,2.14c0.08,1.5,1.73,4.36,2.52,5.64c1.38,2.23,3.01,4.24,4.82,6.09
				c1.47,1.45,2.39,1.77,3.96-0.38c1.34-1.76,2.58-3.52,3.64-5.71c0.47-0.96,0.9-2.01,1.28-3.19c0.41-1.37,0.26-2.59-1.08-3.49
				c1.3,0.63,1.86,1.8,1.95,3.08c0.08,1.24-0.29,2.59-0.58,3.59c-0.71,2.48-1.61,4.98-2.75,7.22c-0.86,1.7-1.97,3.74-3.06,5.25
				c-2.43,3.35-4.77,2.26-7.5,0c-1.73-1.44-3.4-3.25-4.83-5.24c-1.44-2-3.04-4.97-3.98-7.25c-1.29-3.12-0.29-4.72,1.31-5.73
				C90.83,12.26,93.46,11.63,95.58,11.34z"/>
			
				<linearGradient id="SVGID_00000034768346498996713540000012270364818975676587_" gradientUnits="userSpaceOnUse" x1="95.9954" y1="11.2251" x2="106.9951" y2="18.9272">
				<stop  offset="0" style="stop-color:#046941"/>
				<stop  offset="0.3" style="stop-color:#037B48"/>
				<stop  offset="1" style="stop-color:#87C541"/>
			</linearGradient>
			<path style="fill-rule:evenodd;clip-rule:evenodd;fill:url(#SVGID_00000034768346498996713540000012270364818975676587_);" d="
				M95.52,18.46c2.53-0.38,9.11-0.79,11.42,0.41c0.77,0.4,0.79,0.94,0.72,1.56c0.23-0.42,0.46-0.85,0.68-1.3
				c0.47-0.96,0.9-2.01,1.28-3.19c0.41-1.37,0.26-2.59-1.08-3.49l-0.01,0c-0.5-0.26-1.08-0.45-1.59-0.6
				c-1.52-0.44-3.21-0.62-4.91-0.74c-0.7-0.05-1.43-0.05-2.18-0.04c-1.34,0-2.81,0.09-4.28,0.28c-1.64,0.33-2.24,1.07-2.18,2.14
				C93.47,14.76,94.68,17.02,95.52,18.46z"/>
		</g>
		<path class="st8" d="M88.91,45.91c1.32-0.16,2.44-0.83,2.82-2.83c0.24-1.28,0.21-3.34-0.15-4.54c-0.17-0.56-0.42-1.03-0.79-1.34
			c-0.62-0.52-1.31-0.61-1.91-0.63c-1.02-0.04-1.57,0.14-2.31,0.73c-0.14,0.12-0.27,0.17-0.27-0.04l-0.02-4.27l-2.36,0.04
			l0.01,12.23C84.93,45.94,87.71,46.05,88.91,45.91L88.91,45.91z M25.54,45.68c0.5,0,0.4,0.04,0.7-0.37c2.05-2.82,4-8.82,3.97-12.18
			c-0.96-0.04-1.92,0.12-2.89,0.35c-0.93,5.5-1.74,6.95-3.23,9.75l0,0l0,0c-1.48-2.8-2.3-4.26-3.23-9.75
			c-0.97-0.23-1.94-0.39-2.89-0.35c-0.03,3.35,1.92,9.36,3.97,12.18c0.3,0.41,0.2,0.37,0.7,0.37H25.54L25.54,45.68z M93.45,37.01
			l0.23,2.15c0.94-0.09,1.7-0.34,2.68-0.41c1.48-0.05,2.42-0.09,2.37,0.98c-1.1,0-2.22,0-3.36,0.01c-1.39,0.01-2.55,0.67-2.4,3.5
			c0.18,3.4,4.22,3.15,6.06,1.79v0.76h2.14c-0.06-3.47,0.2-7.11-0.43-8.1C99.56,35.82,95.65,36.51,93.45,37.01L93.45,37.01z
			 M43,45.39c-0.08-0.7-0.16-1.4-0.24-2.1c-0.97,0.18-2.63,0.43-3.61,0.39c-1.13-0.04-1.55-0.58-1.54-2.19
			c0.36,0.41,0.86,0.69,1.49,0.7c1.47,0.02,2.85,0.04,4.3-0.01c0.06-2.68,0.3-5.01-2.38-5.58c-1.09-0.23-2.53-0.23-3.56,0.08
			c-1.13,0.34-1.69,0.87-2.01,2c-0.61,2.1-0.44,5.21,0.91,6.41C37.92,46.46,41.04,45.97,43,45.39L43,45.39z M38.69,38.67h1.18
			c0.59,0,1.07,0.48,1.07,1.07v0.48h-3.33v-0.48C37.62,39.16,38.1,38.67,38.69,38.67L38.69,38.67z M114.24,45.78l0.07-3.93
			c0-0.24,0.22,0.08,0.28,0.18c0.78,1.31,1.5,2.29,2.66,3.45c0.33,0.33,0.39,0.3,0.97,0.3h2.48c-1.81-1.5-2.81-2.69-3.78-4.51
			c-0.19-0.42-0.18-0.37,0.09-0.76c0.36-0.41,0.81-0.97,1.31-1.54l2.11-2.49c0.01-0.02,0.02-0.04,0.03-0.06h-2.25
			c-0.41,0-0.4-0.06-0.69,0.25c-0.85,0.92-1.83,2-2.63,2.88c-0.1,0.11-0.21,0.19-0.31,0.26c-0.33,0.23-0.27,0.17-0.27-0.16
			l-0.02-6.68l-2.39,0.02l-0.03,12.8H114.24L114.24,45.78z M58.72,45.47l-0.21-2.09c-1.08,0.09-2.22,0.39-3.37,0.26
			c-1.15-0.13-1.29-0.73-1.3-1.67c-0.01-0.56-0.02-1.2,0.01-1.76c0.04-0.76,0.27-1.26,1.29-1.37c1.15-0.13,2.29,0.17,3.37,0.26
			l0.21-2.09c-4.11-0.97-6.68-0.49-7.25,2.7c-0.12,0.67-0.07,2.86,0.1,3.49C52.3,46,54.81,46.4,58.72,45.47L58.72,45.47z
			 M45.81,36.56c-0.5,0-1,0-1.5,0c0,0.74-0.01,1.47-0.01,2.21c0.52,0,1,0.01,1.52,0.01c0,0.75,0,1.54,0,2.29
			c0,0.79-0.01,1.53,0,2.17c0.01,0.94,0.18,1.74,0.71,2.16c0.22,0.18,0.54,0.27,0.94,0.31c0.93,0.11,2.1,0.05,2.89-0.2
			c-0.03-0.63-0.05-1.26-0.08-1.9c-0.92,0.09-2.06,0.29-2.06-0.18c0-1.61,0-3.04,0-4.65c0.74,0,1.44-0.01,2.18-0.01
			c0-0.73,0-1.47,0-2.2c-0.73,0-1.45-0.01-2.18-0.01c0-0.73,0-1.46,0-2.2c-0.8,0-1.6,0-2.41,0C45.81,35.1,45.81,35.83,45.81,36.56
			L45.81,36.56z M31.13,45.78l2.34,0.05l0.09-9.23l-2.43,0.01L31.13,45.78L31.13,45.78z M62.99,36.44h2.1
			c1.64,0,2.98,1.34,2.98,2.98v3.52c0,1.64-1.34,2.98-2.98,2.98h-2.1c-1.64,0-2.98-1.34-2.98-2.98v-3.52
			C60.01,37.78,61.35,36.44,62.99,36.44L62.99,36.44z M63.45,38.67c-0.59,0-1.07,0.48-1.07,1.07v2.87c0,0.59,0.48,1.07,1.07,1.07
			h1.18c0.59,0,1.07-0.48,1.07-1.07v-2.87c0-0.59-0.48-1.07-1.07-1.07H63.45L63.45,38.67z M71.97,45.78
			c0.02-2.35,0.04-4.7,0.07-7.05c0.59,0,1.17,0,1.76,0c0.47,0.01,0.93,0.3,0.93,0.8v0.32l0.01,5.93h2.36l0.07-7.06
			c0.64,0,1.28,0,1.93,0c0.57,0,0.94,0.32,0.94,0.86l0.01,6.2h2.34l0.08-6.67c0.02-1.42-0.76-2.59-2.37-2.57
			c-0.51,0.01-1.02,0.01-1.53,0.01c-0.77,0.01-1.18,0.15-1.65,0.64c-0.35,0.37-0.18,0.37-0.5,0.03c-0.47-0.51-1.04-0.68-1.77-0.68
			c-0.36,0-0.72,0-1.08,0c-0.66,0.03-1.07,0.23-1.57,0.73c-0.39,0.4-0.34,0.53-0.34-0.09c0-0.19,0-0.38,0-0.58c0,0,0,0,0,0l0,0
			c-0.66,0-1.35,0.01-2.01,0.01c0,3.06,0.01,6.11,0.01,9.17H71.97L71.97,45.78z M105.08,45.78c0.02-2.35,0.04-4.7,0.07-7.05
			c0.59,0,1.19,0,1.78,0c0.52,0.01,0.94,0.32,0.94,0.85c0,2.07,0.01,4.13,0.01,6.2c0.8,0,1.6,0,2.39,0
			c0.02-2.06,0.04-4.11,0.06-6.17c0.02-1.63-0.62-3.07-2.56-3.07c-0.37,0-0.73,0-1.09,0c-0.64,0.03-1.06,0.22-1.54,0.68
			c-0.41,0.4-0.4,0.61-0.4-0.02v-0.61l-2.04,0c0,3.06,0.01,6.13,0.01,9.19C103.49,45.78,104.28,45.78,105.08,45.78L105.08,45.78z
			 M96.18,41.8c0.87,0,1.74,0,2.61,0c0,0.45,0,0.91,0,1.36c0,0.56-1.65,0.59-2.69,0.57c-0.77-0.02-0.68,0-0.71-0.68
			c-0.01-0.25,0-0.51,0-0.76C95.38,41.77,95.49,41.8,96.18,41.8L96.18,41.8z M89.4,40.16v1.26v1.27c0,0.59-0.48,1.07-1.07,1.07
			c-0.4,0-0.81,0-1.21,0c-0.84,0-0.85,0.01-0.85-1.19v-1.15v-1.57c0-1.2,0.01-1.19,0.85-1.19c0.4,0,0.8,0,1.21,0
			c0.59,0,1.07,0.48,1.07,1.07V40.16z"/>
	</g>
	<text transform="matrix(1 0 0 1 6.7588 216.327)" class="st20 st21">TRAN HUU LANH</text>
	<text transform="matrix(1 0 0 1 26.302 196.1777)" class="st20 st22">0071001404282</text>
	<g>
		<circle class="st1" cx="69.34" cy="116.43" r="12.68"/>
		<g>
			<g>
				<path class="st11" d="M71.75,125.36c-0.17-0.03-0.33-0.06-0.5-0.1c-0.05-0.01-0.1-0.03-0.18-0.05c0.09-0.03,0.15-0.05,0.21-0.07
					c1.48-0.57,2.43-1.61,2.83-3.15c0.43-1.65,0.88-3.29,1.31-4.93c0.11-0.4,0.24-0.79,0.29-1.2c0.15-1.17-0.39-2.36-1.42-2.87
					c-0.33-0.16-0.69-0.27-1.04-0.38c-0.39-0.13-0.77-0.28-1.14-0.47c-0.29-0.15-0.6-0.25-0.9-0.38c0.28-0.07,0.58-0.11,0.88-0.06
					c0.51,0.1,1.01,0.23,1.51,0.36c0.4,0.1,0.81,0.19,1.18,0.4c0.93,0.51,1.48,1.32,1.73,2.33c0.18,0.7,0.12,1.39-0.03,2.09
					c-0.38,1.77-0.74,3.54-1.11,5.31c-0.14,0.66-0.34,1.3-0.76,1.84c-0.57,0.75-1.32,1.2-2.26,1.32c-0.02,0-0.04,0.01-0.07,0.02
					C72.11,125.36,71.93,125.36,71.75,125.36z"/>
				<path class="st11" d="M68.22,121.91c0.02,0.11,0.04,0.23,0.06,0.34c0.04,0.18,0.02,0.36-0.04,0.54
					c-0.12,0.35-0.14,0.7-0.01,1.04c0.08,0.2,0.21,0.37,0.32,0.55c-0.15-0.09-0.32-0.18-0.48-0.29c-0.37-0.24-0.7-0.54-0.96-0.9
					c-0.48-0.66-0.6-1.39-0.36-2.17c0.1-0.32,0.23-0.63,0.41-0.91c0.26-0.41,0.36-0.84,0.33-1.31c-0.02-0.24-0.07-0.48-0.11-0.72
					c0-0.03-0.01-0.06-0.02-0.09c0.01-0.01,0.02-0.02,0.03-0.02c0.04,0.05,0.08,0.1,0.12,0.15c0.32,0.38,0.59,0.8,0.63,1.31
					c0.02,0.2-0.03,0.41-0.06,0.62c-0.01,0.08-0.04,0.15-0.04,0.22c0,0.12,0.09,0.18,0.21,0.13c0.08-0.03,0.16-0.08,0.22-0.14
					c0.34-0.33,0.48-0.76,0.54-1.21c0.09-0.69-0.09-1.34-0.35-1.97c-0.12-0.29-0.23-0.59-0.22-0.91c0.01-0.42,0.2-0.84,0.52-1.1
					c0,0.15-0.01,0.27,0,0.4c0.03,0.6,0.14,1.19,0.45,1.72c0.09,0.16,0.22,0.31,0.34,0.46c0.02,0.03,0.05,0.05,0.08,0.07
					c0.19,0.14,0.34,0.09,0.4-0.13c0.06-0.25,0.04-0.51-0.03-0.75c-0.02-0.05-0.04-0.11-0.04-0.18c0.05,0.05,0.1,0.09,0.15,0.14
					c0.31,0.32,0.43,0.7,0.42,1.14c-0.01,0.37-0.13,0.71-0.27,1.05c-0.08,0.2-0.13,0.41-0.18,0.62c-0.01,0.06,0.02,0.16,0.06,0.18
					c0.05,0.02,0.14-0.01,0.19-0.04c0.35-0.22,0.53-0.55,0.61-0.95c0.07-0.37,0.24-0.7,0.52-0.96c0.02-0.02,0.04-0.04,0.06-0.06
					c0.01-0.01,0.03-0.02,0.06-0.04c-0.04,0.18-0.09,0.34-0.11,0.5c-0.15,0.82-0.01,1.59,0.41,2.31c0.41,0.71,0.37,1.43,0.08,2.16
					c-0.24,0.59-0.61,1.09-1.15,1.45c-0.2,0.13-0.41,0.22-0.68,0.26c0.06-0.05,0.1-0.08,0.14-0.1c0.3-0.23,0.43-0.53,0.4-0.9
					c-0.02-0.27-0.08-0.53-0.21-0.78c-0.11-0.22-0.15-0.45-0.03-0.69c-0.01-0.01-0.02-0.02-0.03-0.03
					c-0.06,0.05-0.15,0.09-0.18,0.15c-0.06,0.14-0.09,0.3-0.13,0.44c-0.02,0.07-0.06,0.14-0.09,0.21c-0.06-0.05-0.15-0.1-0.18-0.16
					c-0.09-0.18-0.03-0.36,0.04-0.54c0.04-0.09,0.09-0.18,0.12-0.28c0.05-0.17,0.03-0.33-0.06-0.5c-0.04,0.1-0.05,0.19-0.1,0.27
					c-0.04,0.08-0.1,0.14-0.18,0.21c0.06-0.27-0.03-0.5-0.13-0.74c-0.09-0.22-0.03-0.45,0.05-0.66c0.02-0.05,0.04-0.09,0.07-0.17
					c-0.19,0.11-0.3,0.26-0.38,0.42c-0.21,0.4-0.22,0.84-0.16,1.28c0.02,0.1,0.03,0.21,0.03,0.31c0,0.04-0.05,0.07-0.07,0.11
					c-0.03-0.03-0.08-0.06-0.08-0.1c-0.03-0.24-0.05-0.47-0.17-0.69c-0.02-0.04-0.04-0.08-0.08-0.15c-0.01,0.16,0,0.28-0.02,0.4
					c-0.02,0.14-0.05,0.29-0.11,0.42c-0.06,0.14-0.05,0.27-0.03,0.41c0.01,0.07,0.02,0.15,0.02,0.22c-0.15,0.03-0.24-0.04-0.26-0.19
					C68.46,122.27,68.41,122.14,68.22,121.91z"/>
				<path class="st11" d="M67.07,125.28c-0.62,0.08-1.19,0-1.73-0.26c-0.97-0.47-1.57-1.26-1.85-2.28
					c-0.22-0.79-0.37-1.59-0.54-2.38c-0.27-1.26-0.54-2.52-0.79-3.79c-0.25-1.27,0-2.43,0.88-3.42c0.39-0.44,0.88-0.75,1.45-0.9
					c0.59-0.16,1.18-0.33,1.78-0.48c0.33-0.09,0.67-0.07,1.04-0.02c-0.09,0.03-0.16,0.06-0.23,0.08c-0.26,0.11-0.54,0.19-0.78,0.34
					c-0.49,0.29-1.02,0.46-1.55,0.64c-1.02,0.33-1.59,1.06-1.83,2.07c-0.12,0.51-0.08,1.03,0.06,1.53c0.28,1.03,0.56,2.06,0.82,3.09
					c0.08,0.33,0.11,0.69,0.16,1.03c0.18,1.07,0.47,2.11,1.06,3.04c0.49,0.77,1.13,1.36,1.99,1.69
					C67.02,125.25,67.03,125.26,67.07,125.28z"/>
				<path class="st11" d="M68.93,125.04c-0.59-0.01-1.18-0.02-1.75-0.2c-0.68-0.21-1.17-0.64-1.46-1.29
					c-0.35-0.76-0.59-1.57-0.83-2.37c-0.32-1.08-0.58-2.17-0.77-3.29c-0.12-0.73-0.19-1.47-0.21-2.22
					c-0.02-1.03,0.41-1.79,1.28-2.31c0.9-0.55,1.89-0.83,2.94-0.94c0.08-0.01,0.17,0,0.25,0c0.02,0,0.04,0.01,0.09,0.02
					c-0.07,0.03-0.11,0.04-0.15,0.06c-0.67,0.25-1.33,0.49-1.95,0.85c-0.41,0.24-0.78,0.53-1.03,0.95
					c-0.26,0.44-0.35,0.93-0.36,1.44c-0.02,0.81,0.09,1.6,0.22,2.4c0.2,1.19,0.43,2.38,0.77,3.55c0.18,0.62,0.4,1.22,0.7,1.79
					c0.42,0.8,1.06,1.32,1.96,1.49C68.74,124.99,68.83,125.02,68.93,125.04z"/>
				<path class="st11" d="M69.96,112.55c1.53-0.17,2.92,0.17,4.12,1.17c0.48,0.4,0.71,0.94,0.73,1.58c0.04,1.18-0.11,2.34-0.35,3.49
					c-0.23,1.14-0.55,2.26-0.96,3.34c-0.28,0.72-0.67,1.38-1.13,2c-0.36,0.49-0.84,0.78-1.43,0.87c-0.35,0.05-0.71,0.07-1.06,0.1
					c0-0.02-0.01-0.03-0.01-0.05c0.1-0.04,0.2-0.08,0.3-0.12c0.22-0.08,0.44-0.15,0.65-0.23c0.62-0.24,1.05-0.69,1.39-1.23
					c0.43-0.68,0.72-1.42,0.91-2.19c0.25-0.98,0.47-1.97,0.68-2.96c0.13-0.63,0.24-1.26,0.33-1.89c0.07-0.45,0.08-0.9,0-1.35
					c-0.13-0.69-0.52-1.19-1.14-1.5c-0.64-0.33-1.33-0.53-2.03-0.73c-0.32-0.09-0.64-0.16-0.96-0.24c-0.02,0-0.04-0.01-0.05-0.02
					C69.96,112.57,69.96,112.56,69.96,112.55z"/>
				<path class="st12" d="M69.37,111.35c-0.01,0.06-0.02,0.1-0.09,0.11"/>
				<path class="st12" d="M69.37,111.48c0,0-0.1-0.03-0.1-0.03c-0.42,0.06-0.83,0.14-1.25,0.2c-0.01,0-0.02,0-0.03,0
					c-0.01-0.01-0.03-0.02-0.04-0.03c0.23-0.38,0.44-0.78,0.69-1.15c0.7-1.03,1.56-1.87,2.67-2.46c0.43-0.23,0.87-0.4,1.34-0.52
					c0.07-0.02,0.1,0,0.14,0.05c0.34,0.45,0.25,1-0.2,1.33c-0.04,0.03-0.09,0.04-0.14,0.05c-0.78,0.11-1.51,0.34-2.14,0.82
					c-0.52,0.4-0.84,0.93-0.93,1.59"/>
			</g>
			<path class="st13" d="M70.63,111.73c0,0-0.27-0.29-1.26-0.25c-0.23-0.71,0.89-2.41,3.13-2.55c-1.91,0.74-2.25,1.86-1.87,2.83"/>
		</g>
	</g>
</g>
</svg>
